<svg width="128" height="128" viewBox="0 0 128 128" fill="none" xmlns="http://www.w3.org/2000/svg">
<path fill-rule="evenodd" clip-rule="evenodd" d="M63.8784 6.69507C95.4443 6.69507 121.072 32.3224 121.072 63.8882C121.072 95.4541 95.4443 121.081 63.8784 121.081C32.3125 121.081 6.68521 95.4541 6.68521 63.8882C6.68521 32.3224 32.3125 6.69507 63.8784 6.69507ZM63.8784 19.0869C88.6049 19.0869 108.68 39.1617 108.68 63.8882C108.68 88.6148 88.6049 108.69 63.8784 108.69C39.1519 108.69 19.0771 88.6148 19.0771 63.8882C19.0771 39.1617 39.1519 19.0869 63.8784 19.0869Z" fill="#FF6161"/>
<path fill-rule="evenodd" clip-rule="evenodd" d="M111.398 32.065C112.508 33.72 113.535 35.435 114.471 37.205L102.789 41.676C101.853 40.041 100.817 38.471 99.689 36.974C99.928 36.906 100.168 36.833 100.407 36.753C103.074 35.869 108.348 33.321 110.935 32.254C111.087 32.191 111.242 32.127 111.398 32.065ZM19.997 27.225C20.3 27.38 20.597 27.552 20.885 27.72C23.304 29.128 25.416 31.016 27.938 32.254C28.817 32.685 29.866 33.081 31.027 33.441C29.431 35.162 27.967 37.01 26.654 38.966L16.3629 32.065C17.4899 30.387 18.703 28.771 19.997 27.225Z" fill="#F64545"/>
<path fill-rule="evenodd" clip-rule="evenodd" d="M121.049 65.5631C121.012 66.8471 120.933 68.1201 120.813 69.3791C120.346 69.5281 119.882 69.6441 119.47 69.7491C116.605 70.4851 111.017 72.2091 108.324 73.4761C108.071 73.5951 107.82 73.7161 107.571 73.839C107.88 72.4761 108.128 71.0911 108.309 69.6841C111.673 68.8051 116.217 68.1341 118.675 67.0201C119.537 66.6281 120.366 66.1751 121.049 65.5631ZM6.827 59.8681C7.268 60.3291 7.774 60.7411 8.302 61.1271C10.787 62.9451 16.067 64.8541 19.162 66.6281C19.231 67.7731 19.343 68.9061 19.497 70.0251C19.126 69.7681 18.75 69.5161 18.368 69.2681C15.871 67.6481 10.649 64.8711 7.91 63.7541C7.535 63.6011 7.11301 63.4321 6.69101 63.2341C6.70401 62.1051 6.749 60.9841 6.827 59.8681Z" fill="#F64545"/>
<path fill-rule="evenodd" clip-rule="evenodd" d="M84.7937 37.3938C89.904 39.0478 95.1674 40.1646 100.405 38.4267C103.073 37.542 108.347 34.9948 110.935 33.9278C112.155 33.4234 113.51 32.8692 114.761 33.5352C116.926 34.6885 118.119 37.2431 119.015 39.4038C121.339 45.0063 122.924 51.5652 123.519 57.5869C123.728 59.7027 124.557 63.3218 123.385 65.276C122.63 66.5351 120.782 66.9774 119.469 67.3152C116.604 68.0505 111.016 69.7738 108.323 71.0413C105.299 72.4632 102.543 74.1804 99.7575 76.0143C98.1011 77.1032 96.2684 78.6053 94.324 79.1218C92.1547 79.6978 89.2344 78.7985 87.2462 77.9587C80.8283 75.2474 76.2746 68.1599 72.444 62.6109C69.0631 57.7133 65.173 52.1218 64.5289 46.0283L84.7937 37.3938Z" fill="#FAC7A2"/>
<path fill-rule="evenodd" clip-rule="evenodd" d="M90.384 78.999C89.7035 77.3778 88.9415 75.8198 87.9121 74.3116C86.2824 71.9236 84.1229 69.8868 81.9657 67.9885C78.2737 64.7388 75.0483 61.4296 72.6189 57.1287C72.0708 56.1577 71.5981 55.1563 71.3465 54.0674C71.3186 53.9483 71.1059 53.1754 71.2761 53.0855C71.3283 53.0575 71.6224 53.2252 71.6808 53.2471C72.1122 53.4209 72.5424 53.5971 72.9872 53.7357C74.561 54.223 76.0607 54.0844 77.6588 54.2473C77.8568 54.2679 78.4499 55.1697 78.6006 55.352C79.4172 56.3412 80.3871 57.187 81.3496 58.0292C84.6187 60.8888 87.8379 63.4142 90.4338 66.9664C91.282 68.1283 92.0708 69.3277 92.7842 70.5758C92.9835 70.9258 93.6811 72.0123 95.0556 72.0123C97.1446 72.0123 98.6746 71.6696 100.57 70.808C102.403 69.9767 104.047 68.7918 105.914 68.0165C109.08 66.6991 115.555 65.9991 118.673 64.5845C120.139 63.921 121.506 63.0776 122.228 61.5791C122.73 60.54 122.837 59.3575 122.948 58.2237C123.074 56.916 123.129 55.6351 123.109 54.3287C123.276 55.4261 123.413 56.515 123.519 57.5869C123.728 59.7027 124.557 63.3218 123.385 65.276C122.63 66.535 120.782 66.9774 119.469 67.3152C116.604 68.0505 111.016 69.7737 108.323 71.0413C105.299 72.4632 102.543 74.1804 99.7574 76.0142C98.101 77.1031 96.2683 78.6052 94.3239 79.1217C93.1426 79.4353 91.7391 79.3113 90.384 78.999Z" fill="#F59B67"/>
<path fill-rule="evenodd" clip-rule="evenodd" d="M32.5875 77.1153C32.0747 77.0424 31.5873 76.9197 31.1438 76.7349C29.2856 75.9596 27.6729 74.223 26.1806 72.9202C23.6686 70.7266 21.1699 68.6521 18.3663 66.834C15.8701 65.214 10.648 62.4359 7.90876 61.3191C6.65337 60.8074 4.8827 60.1184 4.30544 58.7694C3.40735 56.6743 4.71986 53.201 5.21205 51.1326C6.61692 45.2469 9.07543 38.9627 12.1355 33.7261C13.3156 31.7063 14.8432 29.3364 17.1437 28.4882C18.4744 27.9972 19.742 28.73 20.8831 29.3936C23.3028 30.8009 25.4149 32.6894 27.9366 33.9278C32.8913 36.3583 43.2492 37.677 48.7727 37.677C58.1717 37.677 64.5689 45.2785 67.8867 47.5888C71.9044 50.3876 84.5737 63.6561 87.1708 66.7891C90.6137 70.9429 93.9497 76.5806 93.6641 82.1964C93.534 84.7388 91.3344 87.1767 88.775 87.4927C87.6229 87.6361 86.5838 87.2581 85.4718 87.2702C85.3831 87.2715 84.8399 88.8088 84.7657 88.9765C84.2735 90.0921 83.5261 91.1689 82.5539 91.9175C81.2013 92.9602 79.4938 93.2798 77.8119 93.2288C77.3148 93.213 76.1032 92.8265 75.6329 92.9954C75.5588 93.0222 75.3084 94.7357 75.2513 94.9193C74.7834 96.4201 73.9072 97.7594 72.67 98.7364C71.3247 99.7998 69.5832 100.254 67.8867 100.033C67.5294 99.987 65.5169 99.2019 65.4026 99.2748C63.3913 100.552 62.2709 102.489 59.6167 102.761C55.0229 103.232 51.4645 98.813 48.7727 95.7262C43.3416 89.4991 37.5325 83.7046 32.5875 77.1153Z" fill="#FAC7A2"/>
<path fill-rule="evenodd" clip-rule="evenodd" d="M22.2856 69.6595C21.0265 68.6666 19.7334 67.7199 18.3663 66.834C15.8701 65.214 10.648 62.4359 7.90876 61.319C6.65337 60.8074 4.8827 60.1183 4.30544 58.7694C3.40735 56.6742 4.71986 53.201 5.21205 51.1325C5.52559 49.82 5.89137 48.4893 6.30335 47.1537C5.96307 48.5816 5.57782 50.1311 5.4174 51.5919C5.29344 52.7233 5.15613 53.9034 5.43443 55.0239C5.83547 56.6366 7.00214 57.7425 8.30007 58.6916C11.0636 60.7126 17.2786 62.8467 20.109 64.7826C21.3073 65.6017 22.35 66.6043 23.4449 67.5449C26.426 63.622 30.338 64.796 32.2813 66.7854C32.7467 67.2606 33.1587 67.7734 33.5197 68.3227C34.0738 67.8609 34.6827 67.4599 35.3207 67.1439C37.1218 66.2531 39.6581 65.9602 41.5916 66.7854C43.4911 67.596 45.0843 69.1114 45.7709 70.921C46.2109 72.0792 46.2364 73.3115 46.1878 74.5316L46.3069 74.5413C48.0934 74.709 49.706 75.6387 50.8909 76.9549C52.7746 79.0464 53.3774 82.0943 53.5111 84.8056C53.5475 85.5567 53.5718 86.3077 53.5864 87.0587C53.7347 87.1304 53.8841 87.1997 54.0288 87.2751C54.7166 87.6299 55.3583 88.0613 55.9149 88.7784C57.5349 90.8662 57.9882 93.4584 56.9576 97.4773C56.8628 97.8456 56.8337 98.2333 56.8713 98.6137C57.005 99.9772 58.3017 100.787 59.5122 101.05C60.4832 101.261 61.532 101.25 62.4969 101.003C62.8165 100.921 63.8787 100.444 63.8787 100.444C62.6488 101.501 61.532 102.565 59.6167 102.761C55.0229 103.232 51.4645 98.813 48.7727 95.7261C43.3416 89.499 37.5325 83.7046 32.5875 77.1153C32.0747 77.0424 31.5873 76.9196 31.1438 76.7349C29.2856 75.9595 27.6729 74.2229 26.1806 72.9202C24.8924 71.796 23.609 70.7022 22.2856 69.6595Z" fill="#F59B67"/>
<path fill-rule="evenodd" clip-rule="evenodd" d="M64.7103 50.6423C61.265 50.7444 57.7829 50.8427 54.4014 51.352C49.8719 52.0326 45.4726 53.4153 40.8375 52.7989C39.5815 52.6326 38.2751 52.354 37.1884 51.6519C35.0901 50.2957 34.0181 47.5996 34.8789 45.1719L39.0412 45.1127C41.74 44.8127 44.2779 44.093 46.9092 43.4703C50.1433 42.704 53.4057 42.0448 56.6815 41.4902C60.4227 40.8574 64.164 40.9028 67.9015 41.5116C71.2891 42.0637 75.4932 42.796 77.8728 45.598C78.6488 46.5118 79.243 48.1315 79.0159 49.4575C80.2265 49.9768 81.3979 50.5705 82.4341 51.3141C83.0898 51.7843 84.7892 51.9961 84.8653 52.8897C84.8715 52.9641 82.7706 54.1867 82.277 54.3291C80.0288 54.9821 78.289 55.2568 75.9549 54.9619C73.4133 54.6405 71.0595 53.985 68.7438 52.8897C67.3527 52.2318 66.0376 51.4225 64.7103 50.6423Z" fill="#F59B67"/>
<path fill-rule="evenodd" clip-rule="evenodd" d="M88.1138 38.3647C84.6272 37.2685 80.9388 36.052 77.4497 34.968C74.1855 33.9532 70.8859 32.6298 67.4102 32.9822C62.7387 33.455 58.0392 36.3242 53.6216 37.8482C50.9079 38.784 48.1893 39.6821 45.5109 40.7187C42.9575 41.708 40.4881 42.8321 37.8363 43.5442C37.4414 43.65 35.1724 44.0036 35.023 44.3002C34.8018 44.734 34.9755 45.6418 35.0375 46.1267C35.4422 49.3011 38.3747 50.5808 41.295 50.7582C45.2264 50.9964 48.9829 49.5174 52.8159 48.9389C56.8628 48.3276 61.0337 48.6813 65.1146 48.1684C65.6554 48.1004 66.5414 48.832 66.9643 49.0896C68.402 49.9658 69.7813 50.9162 71.3016 51.6502C75.2172 53.54 79.1681 54.0054 83.4325 53.2556C89.0909 52.2603 93.5619 49.3849 95.3703 43.7399L88.1138 38.3647Z" fill="#FAC7A2"/>
<path fill-rule="evenodd" clip-rule="evenodd" d="M23.0269 68.7092C21.8384 70.7484 20.7191 76.6195 23.5798 79.5131C24.5363 80.4804 25.7491 81.048 27.0543 81.3895C27.4736 81.4988 27.8917 81.5815 28.3243 81.6118C28.5358 81.6264 28.966 81.4174 28.9587 81.6289C28.9234 82.4941 28.7278 83.1966 28.9016 84.0874C29.3549 86.3964 31.5023 88.5074 33.6886 89.1928C34.4821 89.4419 35.3304 89.6048 36.1629 89.6303C36.3853 89.6376 37.112 89.4565 37.2931 89.5452C37.3235 89.5598 37.2591 89.9219 37.2518 89.9791C37.1983 90.4579 37.1473 90.9379 37.1424 91.4192C37.1327 92.6235 37.5605 93.7258 38.444 94.5595C39.5511 95.6046 41.0058 96.2925 42.5504 96.1879C43.0767 96.1515 43.6235 96.0069 44.1291 95.8635C44.2943 95.8161 44.4609 95.7699 44.6237 95.714C44.7076 95.6848 44.8801 95.5329 44.8728 95.6216C44.7914 96.6376 44.1813 97.1747 44.6577 98.2442C46.0589 101.388 51.5508 101.709 53.4309 99.0122C55.2222 96.4419 55.921 92.1192 53.8769 89.4844C53.1258 88.5158 51.7647 87.4586 51.1862 87.7065C51.1157 87.6555 51.1741 87.0575 51.1717 86.9482C51.1583 86.1254 51.1328 85.3051 51.0927 84.4823C50.9784 82.1709 50.5458 79.5459 48.9392 77.7631C48.0569 76.7835 46.8683 76.0689 45.5388 75.9438C45.0916 75.9012 44.7039 75.849 44.281 75.9912C44.0707 76.0616 43.8301 76.2051 43.6758 76.3375C43.5008 76.0301 43.7159 75.0663 43.7353 74.7236C43.7997 73.5302 43.9018 72.2967 43.4692 71.1556C42.4301 68.4151 38.5375 66.6675 35.8578 67.9934C35.0424 68.3969 34.2877 68.9741 33.6752 69.6486C33.4091 69.9427 33.1465 70.4823 32.8403 70.7156C32.7273 70.8019 32.7236 70.458 32.6641 70.3304C32.5353 70.046 32.4052 69.7616 32.2667 69.4809C31.862 68.6655 31.3443 67.9266 30.7063 67.2752C29.1641 65.6953 25.2156 64.9503 23.0269 68.7092Z" fill="#FAC7A2"/>
<path fill-rule="evenodd" clip-rule="evenodd" d="M54.747 96.1739C54.451 97.2229 54.154 98.241 53.59 99.05C53.371 99.364 52.9439 99.601 52.6389 99.834C51.4569 100.735 49.722 101.026 48.142 100.723C48.829 100.679 49.518 100.571 50.158 100.337C51.373 99.892 52.606 99.0859 53.438 98.0959C53.934 97.5059 54.335 96.8339 54.747 96.1739ZM50.05 79.4729C51.106 80.9399 51.106 82.438 51.188 84.089C51.228 84.911 51.253 85.732 51.267 86.555C51.269 86.663 51.117 87.6559 51.188 87.7069C50.984 87.8159 50.774 87.9469 50.523 88.1079C49.854 88.5399 49.337 89.2179 48.776 89.7799C47.202 91.354 46.396 93.453 45.094 95.209C44.961 95.389 44.816 95.552 44.662 95.697C44.649 95.705 44.636 95.71 44.625 95.714C44.461 95.77 44.296 95.8169 44.13 95.8639C43.624 96.0069 43.078 96.153 42.552 96.189C41.537 96.258 40.56 95.9839 39.696 95.4919C40.088 95.5409 40.487 95.567 40.881 95.546C41.725 95.501 42.512 94.88 43.151 94.381C44.296 93.49 45.0039 92.198 45.8969 91.082C47.1699 89.49 48.1529 87.7919 49.0919 85.9859C49.7269 84.7649 50.382 83.4039 50.455 82.0049C50.499 81.1499 50.315 80.2949 50.05 79.4729ZM41.2039 68.5329C42.2309 69.1759 43.46 69.6969 43.864 70.7619C44.297 71.9039 44.195 73.1369 44.13 74.3299C44.112 74.6629 43.53 76.0009 43.677 76.3389C43.594 76.4629 43.508 76.5869 43.421 76.7149C42.654 77.8529 41.8059 78.9519 41.0869 80.1219C39.8579 82.1219 38.7059 84.325 37.9619 86.555C37.6389 87.521 37.425 88.5259 37.226 89.5279C36.975 89.4919 36.365 89.638 36.164 89.631C35.331 89.605 34.483 89.4429 33.69 89.1939C33.121 89.0149 32.554 88.7399 32.02 88.3899C32.07 88.4009 32.119 88.411 32.169 88.42C33.079 88.585 34.028 88.592 34.781 87.995C35.712 87.256 36.277 86.038 36.851 85.026C37.847 83.269 38.867 81.5219 39.801 79.7299C41.028 77.3719 42.549 74.5829 42.722 71.8829C42.785 70.9019 42.583 70.2229 42.057 69.4689C41.897 69.2379 41.5459 68.8309 41.2039 68.5329ZM29.27 66.3459C29.846 66.5769 30.6579 66.5889 31.0219 66.9609C31.6599 67.6129 32.1769 68.3519 32.5819 69.1679C32.7209 69.4479 32.8699 70.6939 32.8839 70.6819C32.8209 70.7809 32.755 70.8769 32.702 70.9679C32.461 71.3849 32.283 71.8329 32.093 72.2739C31.356 73.9899 30.6509 75.7109 30.0659 77.4849C29.7309 78.5009 29.436 79.5059 29.213 80.5529C29.153 80.8349 29.074 81.11 28.99 81.386C28.981 81.418 28.965 81.5009 28.943 81.5689C28.864 81.4659 28.51 81.626 28.326 81.612C27.893 81.582 27.475 81.4989 27.056 81.3899C26.099 81.1399 25.1899 80.768 24.3969 80.206C24.6539 80.316 24.9219 80.4039 25.1939 80.4589C26.3299 80.6859 27.488 80.233 28.111 79.237C28.84 78.071 29.065 76.5159 29.521 75.2259C29.789 74.4669 30.053 73.7039 30.327 72.9469C30.943 71.2469 31.734 69.3509 30.659 67.6349C30.311 67.0779 29.792 66.7139 29.27 66.3459Z" fill="#F59B67"/>
<path fill-rule="evenodd" clip-rule="evenodd" d="M61.851 102.021C61.631 101.997 61.411 101.955 61.19 101.894C60.8 101.787 60.387 101.668 60.031 101.47C59.97 101.436 59.759 101.197 59.76 101.124C59.76 101.102 59.812 101.121 59.833 101.124C59.881 101.131 59.93 101.138 59.978 101.144C60.119 101.162 60.258 101.17 60.4 101.175C60.809 101.187 61.182 100.912 61.514 100.671C62.114 100.236 62.648 99.291 62.486 98.523C62.42 98.209 62.271 97.925 62.092 97.66C61.251 96.594 60.52 95.429 60.047 94.349C59.736 93.638 59.289 91.225 59.304 91.259C60.094 93.122 61.177 94.904 62.435 96.482C63.313 97.582 64.255 98.575 65.423 99.2711C65.414 99.2711 65.408 99.273 65.404 99.275C64.063 100.127 63.118 101.271 61.851 102.021ZM73.352 98.127C73.341 98.128 73.33 98.128 73.32 98.127C73.284 98.126 73.358 98.068 73.376 98.037C73.41 97.979 73.441 97.92 73.47 97.859C73.55 97.69 73.612 97.512 73.663 97.331C73.818 96.786 73.846 96.156 73.796 95.594C73.745 95.022 73.582 94.453 73.257 93.974C72.803 93.306 72.109 92.862 71.579 92.266C70.914 91.694 70.295 91.114 69.788 90.558C67.826 88.402 64.736 82.445 64.736 80.941C64.736 80.866 67.216 84.873 67.888 85.925C69.292 88.127 71.322 90.324 73.486 91.828C74.119 92.268 74.814 92.584 75.498 92.927L75.634 92.996C75.56 93.022 75.309 94.736 75.252 94.92C74.876 96.129 74.234 97.233 73.352 98.127ZM82.443 92.002C82.434 92.001 82.425 92 82.415 91.998C82.39 91.994 82.456 91.967 82.475 91.951C82.521 91.913 82.564 91.874 82.607 91.833C82.728 91.719 82.838 91.595 82.935 91.459C83.224 91.052 83.426 90.561 83.503 90.067C83.597 89.465 83.486 88.713 83.139 88.2C83.013 88.013 82.858 87.842 82.688 87.684C80.126 85.821 78.166 83.341 76.415 80.66C75.643 79.478 72.221 73.481 72.266 73.535C76.382 78.399 79.966 84.204 85.345 87.201L85.4731 87.271C85.3841 87.272 84.8411 88.809 84.7671 88.977C84.2751 90.093 83.527 91.169 82.555 91.919C82.518 91.947 82.481 91.975 82.443 92.002Z" fill="#F59B67"/>
<path d="M94.023 24.9804L24.9691 94.0344L33.7316 102.797L102.786 33.743L94.023 24.9804Z" fill="#FF6161"/>
</svg>
