<svg width="128" height="128" viewBox="0 0 128 128" fill="none" xmlns="http://www.w3.org/2000/svg">
<g clip-path="url(#clip0)">
<path fill-rule="evenodd" clip-rule="evenodd" d="M8.74868 34.281H17.8783C22.0549 34.281 25.4433 37.6665 25.4433 41.8451V85.935C25.4433 90.1116 22.0549 93.4991 17.8783 93.4991H8.74868C5.33232 93.4991 3.88644 96.2727 3.88644 99.6887C3.88644 103.103 5.33232 105.876 8.74868 105.876H17.8783C28.8923 105.876 37.8214 96.9475 37.8214 85.935V41.8451C37.8214 30.8307 28.8923 21.9017 17.8783 21.9017H8.74868C5.33232 21.9017 3.88644 24.6754 3.88644 28.0914C3.88644 31.5074 5.33232 34.281 8.74868 34.281Z" fill="#56AAFF"/>
<path fill-rule="evenodd" clip-rule="evenodd" d="M37.821 83.933C37.821 83.933 37.821 73.251 37.821 85.933C37.821 96.9469 28.892 105.876 17.878 105.876H8.74899C5.33299 105.876 3.88699 103.102 3.88699 99.687C3.88699 99.346 3.90099 99.012 3.92999 98.687C4.19499 101.628 5.67399 103.876 8.74899 103.876H17.878C28.892 103.876 37.821 94.9469 37.821 83.933Z" fill="#2691FC"/>
<path fill-rule="evenodd" clip-rule="evenodd" d="M63.8784 6.69507C95.4443 6.69507 121.072 32.3224 121.072 63.8882C121.072 95.4541 95.4443 121.081 63.8784 121.081C32.3125 121.081 6.68521 95.4541 6.68521 63.8882C6.68521 32.3224 32.3125 6.69507 63.8784 6.69507ZM63.8784 19.0869C88.605 19.0869 108.68 39.1617 108.68 63.8882C108.68 88.6148 88.605 108.69 63.8784 108.69C39.1519 108.69 19.0771 88.6148 19.0771 63.8882C19.0771 39.1617 39.1519 19.0869 63.8784 19.0869Z" fill="#FF6161"/>
<path fill-rule="evenodd" clip-rule="evenodd" d="M108.455 59.359C109.953 60.032 111.551 60.58 113.264 61.105C115.318 61.733 118.722 61.37 121.05 62.247C121.066 62.792 121.074 63.339 121.074 63.888H108.682C108.682 62.36 108.605 60.85 108.455 59.359Z" fill="#F64545"/>
<path fill-rule="evenodd" clip-rule="evenodd" d="M103.915 84.005L116.685 85.883C115.622 88.428 114.381 90.88 112.977 93.2239C110.981 92.7879 107.102 91.86 105.427 91.83C102.84 91.783 101.905 92.026 98.892 91.83C100.824 89.413 102.511 86.792 103.915 84.005Z" fill="#F64545"/>
<path fill-rule="evenodd" clip-rule="evenodd" d="M69.3053 46.1852L102.296 56.2862C105.392 59.4997 108.963 60.9657 113.263 62.2818C116.06 63.1382 121.361 62.1541 123.038 64.9692C123.991 66.5691 124.017 69.9832 123.995 71.8855C123.948 75.7951 123.005 80.6897 121.778 84.465C121.149 86.397 119.94 89.4585 118.352 90.7874C115.521 93.1594 109.114 90.0125 104.905 89.9366C100.944 89.8664 96.6607 89.6811 91.746 89.2741C86.9683 88.8782 72.0667 83.4093 68.5856 82.3271C65.0846 81.2394 62.1488 80.773 58.5803 79.8421C55.2215 78.9653 51.5591 79.6888 48.2156 77.3406C47.6889 76.9707 46.7725 75.8207 46.7751 75.1489C46.7874 72.5542 48.2953 71.5177 50.8682 71.0041C48.2427 70.3813 45.5069 70.0611 44.1823 67.7078C43.9377 67.2719 43.7443 66.7919 43.6404 66.2779C43.1444 63.8405 45.0429 61.8869 46.8916 61.397C44.1522 60.7882 41.3365 59.5834 40.8966 56.434C40.8283 55.9455 40.8409 55.4409 40.8836 54.9382C40.985 53.7265 41.7782 53.0386 42.6798 52.4299C44.9264 50.916 47.3611 51.4946 49.6577 51.9037C50.3281 52.0224 51 52.1378 51.6724 52.2516C51.5461 52.1872 51.4204 52.1191 51.2961 52.0497C50.4227 51.5616 49.3995 51.0331 48.8182 49.9829C48.1785 48.8282 48.0604 47.1139 48.9886 45.7855C49.2128 45.4639 49.5463 44.9114 49.8893 44.7368C50.8718 44.2391 52.2836 44.4773 53.2773 44.526C55.6223 44.64 57.9538 44.7446 60.2814 44.9806C63.3065 45.2868 66.32 45.6758 69.3053 46.1852Z" fill="#FAC7A2"/>
<path fill-rule="evenodd" clip-rule="evenodd" d="M122.535 81.8529C122.3 82.7638 122.046 83.643 121.777 84.4694C121.15 86.4006 119.939 89.4625 118.352 90.791C115.521 93.1623 109.114 90.0161 104.905 89.9402C100.945 89.8695 96.6604 89.685 91.7458 89.2781C88.2381 88.9868 79.2748 85.963 73.3783 83.9458C74.4316 84.1554 75.5902 84.4375 76.938 84.7303C80.4787 85.5011 83.6338 86.3544 87.2576 86.5391C89.5316 86.6545 91.8199 86.7677 94.0981 86.7494C96.6695 86.7284 99.2643 86.5185 101.83 86.791C105.451 87.1761 108.932 88.3822 112.543 88.7853C114.558 89.0097 117.075 88.7687 118.731 87.4816C120.645 85.9934 121.434 83.9061 122.54 81.833L122.535 81.8529Z" fill="#F59B67"/>
<path fill-rule="evenodd" clip-rule="evenodd" d="M72.0671 47.0308C72.4732 47.2143 72.8825 47.3905 73.294 47.5589C75.5875 48.4958 77.9604 49.2038 80.1549 50.3751C84.9701 52.9451 89.921 56.6092 92.5155 61.5205C93.2883 62.9835 93.0052 68.9353 93.0178 70.6141C93.0208 71.0742 93.007 71.561 92.8532 71.9999C92.7994 72.1537 92.821 72.4636 92.6586 72.4486C89.6264 72.1731 84.1752 66.2521 82.9658 63.1353C81.9683 60.5602 81.383 57.1292 79.2351 55.2275C76.7795 53.0543 75.6497 53.3834 72.5655 52.4355C71.1561 52.0026 69.597 51.3171 68.2542 50.3752C67.5137 49.855 66.8381 49.256 66.2902 48.5774C65.3771 47.4471 65.3776 45.583 65.5771 45.6106C66.8244 45.7837 68.0672 45.9743 69.3054 46.1851L72.0671 47.0308Z" fill="#F59B67"/>
<path fill-rule="evenodd" clip-rule="evenodd" d="M72.9944 52.5138C72.9944 52.5138 74.2798 52.0156 74.9096 52.1713C75.6137 52.3455 76.9926 53.1001 77.2196 53.5595C77.2375 53.595 77.1401 53.5465 77.0998 53.5392C77.0272 53.5262 76.9532 53.5164 76.8783 53.5111C76.6521 53.4964 76.395 53.5257 76.2068 53.6667C75.9678 53.8462 75.8141 54.1395 75.7414 54.4147C75.7287 54.4634 75.7169 54.5124 75.7037 54.5599C75.6661 55.8774 75.6412 57.2079 75.5508 58.5177C75.2262 63.2423 74.6388 67.9408 73.8809 72.5631C73.6059 74.2401 73.4384 75.9254 73.1967 77.6057C73.1136 78.1888 73.1796 79.2055 72.8838 79.7189C72.8359 79.801 72.6269 77.371 72.5172 76.7004C72.4656 76.3838 72.4224 76.0679 72.3881 75.7537C72.3378 75.5148 72.2798 75.2572 72.243 75.1492C72.0028 74.4472 71.5816 73.8554 70.8991 73.5813C70.0253 73.2299 69.0365 73.1601 68.1125 73.0278C66.6737 72.8217 65.2306 72.6215 63.7835 72.4765C61.8008 72.2779 59.782 72.124 57.8179 71.7819C56.302 71.5184 54.5152 71.2409 52.9755 71.1169C52.2641 71.0592 51.5431 71.0359 50.8261 71.0125L50.8682 71.0041C48.2427 70.3812 45.5069 70.0611 44.1823 67.7077C43.9377 67.2718 43.7443 66.7918 43.6404 66.2778C43.5983 66.0722 43.5731 65.8698 43.5645 65.6715C44.3807 67.8853 46.7019 68.8184 48.8488 69.3894C51.2039 70.0157 53.6077 70.1939 56.0201 70.4509C59.1634 70.7854 62.3454 71.1727 65.4675 71.6709C67.5001 71.9945 70.0176 72.5229 71.7684 70.9702C72.2112 70.5781 72.5835 70.1469 72.7618 69.5439C72.8666 68.9389 72.9689 68.333 73.0672 67.7273C73.1452 66.5877 72.2299 65.3543 71.3917 65.0815C69.5233 64.4739 68.0523 64.5406 66.1222 64.2002C62.8763 63.627 59.6096 63.2255 56.356 62.7031C54.216 62.3596 52.0917 61.882 49.9391 61.6287C48.9267 61.5095 47.8851 61.4783 46.8481 61.4086C46.8622 61.4049 46.8763 61.4012 46.8916 61.3969C44.1523 60.7881 41.3365 59.5833 40.8966 56.4339C40.8283 55.9455 40.8409 55.4408 40.8836 54.9381C40.8858 54.9121 40.8881 54.886 40.8911 54.8603C40.9943 55.5764 41.147 56.3354 41.5237 56.9278C42.6046 58.6268 45.1469 59.2042 46.9928 59.7205C49.138 60.3206 51.363 60.6592 53.5547 61.0426C57.3593 61.7089 61.1679 62.317 64.991 62.8725C66.8988 63.1486 68.7969 63.4526 70.6984 63.7694C71.9826 63.9831 73.411 64.0759 74.0113 60.8134C74.0157 60.7892 74.013 60.8672 74.0071 61.0055C74.0477 60.6436 74.0867 60.2811 74.1237 59.9187C73.8832 57.435 72.5436 57.0149 71.9653 56.7912C70.1513 56.0906 68.4159 55.6929 66.5376 55.1987C64.6914 54.7131 63.0785 54.3656 61.204 54.0167C59.8999 53.7744 58.1669 53.4008 56.8582 53.2154C55.0501 52.9589 53.2109 52.5418 51.4286 52.1224C51.3836 52.0988 51.3397 52.0746 51.2961 52.0496C50.4227 51.5616 49.3995 51.033 48.8182 49.9828C48.5311 49.4644 48.3487 48.8338 48.3196 48.1757C48.3915 48.3977 48.6688 49.2252 49.1378 49.5671C49.8341 50.0755 50.4521 50.31 51.2658 50.5793C54.9167 51.7876 58.7892 52.278 62.5338 53.1129C64.4786 53.5472 66.4209 54.0451 68.3382 54.5913C69.35 54.8799 70.351 55.2382 71.4021 55.3572C72.2002 55.4474 74.015 55.5197 74.5392 53.7032C74.5286 53.5696 74.503 53.4374 74.4334 53.3089C74.168 52.8238 73.4757 52.6536 72.9944 52.5138Z" fill="#F59B67"/>
<path d="M94.023 24.9804L24.9691 94.0344L33.7316 102.797L102.786 33.743L94.023 24.9804Z" fill="#FF6161"/>
<path fill-rule="evenodd" clip-rule="evenodd" d="M71.996 47.011L72.068 47.033C72.474 47.216 72.882 47.392 73.295 47.561C75.588 48.497 77.961 49.205 80.155 50.377C81.414 51.048 82.681 51.795 83.913 52.618L80.208 56.323C79.923 55.922 79.602 55.554 79.236 55.229C76.78 53.056 75.65 53.385 72.566 52.437C71.233 52.028 69.768 51.393 68.477 50.529L71.996 47.011Z" fill="#F64545"/>
<path fill-rule="evenodd" clip-rule="evenodd" d="M97.589 75.6714C90.9121 72.8763 88.292 69.1064 85.8152 65.1072C83.5771 61.4932 83.496 55.5615 79.8438 53.2691C75.837 50.7531 65.9533 50.4533 65.9488 44.3685C65.9472 42.0764 70.7247 42.3046 72.1048 42.3675C74.9834 42.4987 77.8375 42.9232 80.6762 43.3982C84.395 44.0208 88.7439 45.3121 91.9344 47.5143C97.082 51.068 100.428 55.0203 105.426 58.8239" fill="#FAC7A2"/>
<path fill-rule="evenodd" clip-rule="evenodd" d="M24.977 21.98C29.032 23.494 32.505 26.2 34.972 29.672C30.207 33.702 26.294 38.709 23.543 44.384V42.075C23.543 38.726 20.828 36.011 17.478 36.011H13.939C16.874 30.77 20.608 26.038 24.977 21.98Z" fill="#F64545"/>
<path fill-rule="evenodd" clip-rule="evenodd" d="M8.74868 34.281H17.8783C22.0549 34.281 25.4433 37.6665 25.4433 41.8451V64.0015C25.4433 71.8153 37.8214 71.8153 37.8214 64.0015V41.8451C37.8214 30.8307 28.8923 21.9017 17.8783 21.9017H8.74868C5.33232 21.9017 3.88644 24.6754 3.88644 28.0914C3.88644 31.5074 5.33232 34.281 8.74868 34.281Z" fill="#56AAFF"/>
<path fill-rule="evenodd" clip-rule="evenodd" d="M3.92999 27.09C4.19499 30.031 5.67399 32.279 8.74899 32.279H17.878C22.056 32.279 25.443 35.666 25.443 39.844V41.844C25.443 37.666 22.056 34.279 17.878 34.279H8.74899C5.33299 34.279 3.88699 31.506 3.88699 28.09C3.88699 27.749 3.90099 27.415 3.92999 27.09Z" fill="#2691FC"/>
</g>
<defs>
<clipPath id="clip0">
<rect width="128" height="128" fill="white"/>
</clipPath>
</defs>
</svg>
