<svg width="128" height="128" viewBox="0 0 128 128" fill="none" xmlns="http://www.w3.org/2000/svg">
<path fill-rule="evenodd" clip-rule="evenodd" d="M37.3402 94.1837C37.3402 93.6314 36.8929 93.1843 36.3404 93.1843C33.7109 93.1843 26.6234 93.1843 23.9939 93.1843C23.4414 93.1843 22.9941 93.6314 22.9941 94.1837C22.9941 98.838 22.9941 118.345 22.9941 122.999C22.9941 123.55 23.4414 123.998 23.9939 123.998C26.6234 123.998 33.7109 123.998 36.3404 123.998C36.8929 123.998 37.3402 123.55 37.3402 122.999C37.3402 118.345 37.3402 98.838 37.3402 94.1837Z" fill="#FF6161"/>
<path fill-rule="evenodd" clip-rule="evenodd" d="M71.1734 77.4822C71.1734 76.9303 70.7261 76.4824 70.1736 76.4824C67.5441 76.4824 60.4566 76.4824 57.8271 76.4824C57.2746 76.4824 56.8273 76.9303 56.8273 77.4822C56.8273 83.6808 56.8273 116.802 56.8273 123.001C56.8273 123.553 57.2746 124 57.8271 124C60.4566 124 67.5441 124 70.1736 124C70.7261 124 71.1734 123.553 71.1734 123.001C71.1734 116.802 71.1734 83.6808 71.1734 77.4822Z" fill="#F64545"/>
<path fill-rule="evenodd" clip-rule="evenodd" d="M105.006 51.7207C105.006 51.1686 104.559 50.7226 104.006 50.7226C101.377 50.7226 94.2894 50.7226 91.6599 50.7226C91.1074 50.7226 90.6601 51.1686 90.6601 51.7207C90.6601 59.8435 90.6601 114.879 90.6601 122.999C90.6601 123.551 91.1074 123.999 91.6599 123.999C94.2894 123.999 101.377 123.999 104.006 123.999C104.559 123.999 105.006 123.551 105.006 122.999C105.006 114.879 105.006 59.8435 105.006 51.7207Z" fill="#EC3838"/>
<path fill-rule="evenodd" clip-rule="evenodd" d="M96.562 26.415L93.645 21.606L116.209 19.76L104.147 38.919L101.23 34.11L16.459 85.533L11.791 77.838L96.562 26.415Z" fill="#EC3838"/>
<path fill-rule="evenodd" clip-rule="evenodd" d="M29.4473 39.0938C29.5764 39.2716 29.682 39.453 29.7452 39.6642C29.8896 40.1427 29.7894 40.6969 29.4609 41.0779C29.2505 41.3225 28.9671 41.4814 28.7297 41.6953C28.337 42.0474 28.0463 42.6477 28.1538 43.1821C28.2431 43.6235 28.6818 43.8907 29.1052 43.9439C29.7623 44.027 30.3942 43.7526 30.7011 43.145C31.2057 42.144 30.0088 40.6003 31.2716 39.9305C31.4197 39.852 31.575 39.7951 31.7401 39.7663L29.4473 39.0938Z" fill="#EB17A4"/>
<path fill-rule="evenodd" clip-rule="evenodd" d="M20.5739 28.1269C20.2841 27.8002 19.997 27.4878 19.6278 27.282C18.6222 26.7205 17.6744 27.4246 16.7979 27.9545C16.3249 28.2407 15.7183 28.6108 15.1586 28.4763C13.9589 28.1874 13.4435 26.4272 14.8219 26.0489C16.305 25.6418 18.1736 26.67 19.3399 25.1508L20.5739 28.1269Z" fill="#EB17A4"/>
<path fill-rule="evenodd" clip-rule="evenodd" d="M50.7652 23.1008C50.8465 23.4077 50.9648 23.702 51.1345 23.971C51.3836 24.3645 51.7447 24.7247 52.2105 24.8366C53.282 25.093 54.7497 24.2905 55.6822 25.1508C56.705 26.0941 55.8889 28.0764 54.4581 27.8562C53.0301 27.6359 51.7365 25.5408 50.2164 26.6872L50.7652 23.1008Z" fill="#EB17A4"/>
<path fill-rule="evenodd" clip-rule="evenodd" d="M37.2051 9.40062C37.011 9.16502 36.8286 8.90505 36.6941 8.63063C35.9458 7.10507 37.8748 6.43618 37.7602 5.02617C37.7069 4.36178 36.9027 3.92849 36.2942 4.00973C35.7644 4.08105 35.2625 4.45747 34.9971 4.91333C34.5069 5.75825 34.9104 6.64922 35.0404 7.52483C35.1406 8.20365 34.9583 8.90234 34.5891 9.47284L37.2051 9.40062Z" fill="#EB17A4"/>
<path fill-rule="evenodd" clip-rule="evenodd" d="M25.0178 13.6153C25.3166 12.5266 25.1803 11.4271 24.1873 10.5903C23.3469 9.88353 21.9044 9.42045 21.7546 8.16029C21.7103 7.78928 21.7383 7.31537 21.9604 7.00033C22.5146 6.21319 23.9084 5.93606 24.5574 6.73855C25.062 7.36321 25.044 8.26771 25.3256 8.98987C25.8257 10.2744 27.0109 11.2159 28.337 11.5499C34.6279 8.22799 41.6625 7.85247 47.5986 13.645C47.8613 13.9014 48.134 14.248 48.4057 14.6615C48.4878 14.7156 48.5708 14.7644 48.6566 14.8059C49.451 15.1914 50.3176 14.7915 50.9115 14.221C51.6463 13.5151 52.0498 12.5392 52.6582 11.7322C53.0347 11.2322 53.5077 10.7835 54.1694 10.7537C54.8707 10.7221 55.4196 11.3694 55.5559 12.0121C55.7454 12.9057 55.36 13.8996 54.6153 14.4322C54.0042 14.8682 53.3163 14.9106 52.6041 15.0469C51.5181 15.2527 50.3456 15.6337 49.7841 16.6655C49.7254 16.7738 49.6811 16.892 49.6487 17.0148C50.3347 18.5855 50.8989 20.3882 51.1282 21.9137C51.9993 27.6945 47.493 34.6453 41.8846 38.1865C41.9938 39.1253 42.9064 39.9287 43.7848 40.4713C44.5954 40.9722 45.7499 41.1997 45.7716 42.3714C45.7924 43.4971 44.3354 44.5279 43.2739 44.3276C42.6546 44.2102 42.1861 43.6541 41.8846 43.1423C41.185 41.9517 41.1643 40.1688 40.1821 39.1885C40.0594 39.2445 39.9357 39.2996 39.812 39.3537C34.8066 41.5066 29.9266 40.2754 26.0803 37.2333C25.025 37.4238 24.2839 38.0557 23.7342 39.1299C23.3487 39.8836 23.1926 40.6843 22.5426 41.281C22.1545 41.6375 21.6571 41.9192 21.1128 41.8722C20.0882 41.7838 19.2595 40.5678 19.4401 39.5938C19.6296 38.5666 20.7824 38.2461 21.5722 37.7939C22.4939 37.2667 23.5329 36.3532 23.4787 35.1869C23.4688 34.9748 23.4191 34.7717 23.3487 34.574C22.1843 33.1937 21.1796 31.6321 20.3789 29.963C19.3209 27.7595 18.2539 25.1291 18.4083 22.6891C18.6719 18.5349 21.8042 15.9343 24.9501 13.664L25.0178 13.6153Z" fill="#FB49BF"/>
<path fill-rule="evenodd" clip-rule="evenodd" d="M39.8193 30.103C39.0818 29.1759 37.4172 29.1759 36.6255 29.4494C35.2679 29.9179 34.015 32.1178 34.8671 33.4664C35.7364 34.843 38.0843 34.7951 39.0818 33.6162C39.7479 32.8282 40.7635 31.29 39.8193 30.103Z" fill="#EB17A4"/>
<path fill-rule="evenodd" clip-rule="evenodd" d="M31.9586 25.1571C31.7546 24.1885 31.0893 23.2325 30.3356 22.4887C29.6576 21.8216 28.5843 21.6853 28.0581 21.7973C26.12 22.2098 24.9672 24.3419 25.1406 26.188C25.3897 28.8328 28.3767 31.484 30.8032 29.323C31.1245 29.0368 31.3646 28.6803 31.5569 28.2984C31.8521 27.7099 32.1617 26.1248 31.9586 25.1571Z" fill="#EB17A4"/>
<path fill-rule="evenodd" clip-rule="evenodd" d="M35.1343 14.5839C34.4925 14.9793 33.9328 15.7998 33.6015 16.5761C32.5093 19.1353 34.395 22.0988 36.9649 22.7063C37.7954 22.9022 38.9075 23.0484 39.7786 22.7361C41.5723 22.0916 41.7023 19.7888 41.3475 18.4284C41.1327 17.6016 40.7499 16.8885 40.221 16.2268C39.5205 15.3512 38.3036 14.4765 37.456 14.202C36.7438 13.9727 35.777 14.1885 35.1343 14.5839Z" fill="#EB17A4"/>
</svg>
