<svg width="128" height="128" viewBox="0 0 128 128" fill="none" xmlns="http://www.w3.org/2000/svg">
<path d="M88.768 16.817C88.547 17.045 88.273 17.221 87.978 17.337L91.397 18.292C91.0089 17.048 91.6235 16.0753 92.2306 15.1144C92.8016 14.2106 93.3661 13.3172 93.084 12.218C92.66 10.566 89.664 9.388 89.01 11.511C88.8443 12.0492 89.0005 12.6016 89.1507 13.133C89.179 13.2335 89.2072 13.3333 89.233 13.432C89.549 14.646 89.723 15.833 88.768 16.817Z" fill="#EB17A4"/>
<path d="M46.517 28.16C45.801 26.812 43.432 25.481 41.454 25.777C38.535 26.213 37.261 30.502 38.443 32.846C39.657 35.255 43.851 35.688 45.751 33.862C46.989 32.672 47.234 29.507 46.517 28.16Z" fill="#EB17A4"/>
<path d="M68.565 34.627C68.903 34.721 69.191 34.911 69.468 35.118L69.412 31.861C68.386 32.747 67.132 33.155 65.819 32.745C65.4581 32.6325 65.1073 32.4648 64.7589 32.2983C63.8127 31.8461 62.8844 31.4024 61.821 32.096C59.861 33.374 61.023 36.762 63.347 36.569C64.0238 36.5127 64.6131 36.0752 65.1538 35.6739C65.2274 35.6192 65.3001 35.5653 65.372 35.513C66.321 34.824 67.377 34.295 68.565 34.627Z" fill="#EB17A4"/>
<path d="M104.865 37.6674L104.927 37.7415C105.158 38.0189 105.416 38.3281 105.716 38.503C105.762 38.5302 105.809 38.5584 105.857 38.587C106.15 38.7626 106.468 38.9533 106.804 39.01C107.719 39.162 108.499 38.8614 109.28 38.5606C109.967 38.2956 110.655 38.0305 111.436 38.075C113.63 38.201 114.715 41.67 112.535 42.663C111.21 43.2659 109.999 42.6679 108.786 42.0691C107.866 41.6152 106.946 41.1609 105.975 41.229C105.316 41.276 104.713 41.636 104.21 42.046L104.794 37.584C104.817 37.6112 104.841 37.639 104.865 37.6674Z" fill="#EB17A4"/>
<path d="M79.961 59.176C80.029 57.104 80.766 55.808 82.957 55.765L78.918 54.28C79.3173 55.6304 78.532 56.3303 77.686 57.0844C77.2671 57.4578 76.8333 57.8445 76.521 58.33C76.175 58.868 75.761 59.972 75.928 60.628C76.252 61.903 77.939 62.762 79.131 62.066C79.9392 61.5941 79.9479 60.4603 79.9548 59.5724C79.9559 59.4333 79.9569 59.2995 79.961 59.176Z" fill="#EB17A4"/>
<path d="M29.709 74.851C29.494 74.59 29.292 74.302 29.143 73.998C28.6779 73.0498 29.1464 72.4004 29.6249 71.7371C29.9993 71.2181 30.3798 70.6907 30.324 70.005C30.265 69.269 29.374 68.789 28.7 68.879C28.113 68.958 27.557 69.375 27.263 69.88C26.8471 70.5968 27.0119 71.3436 27.1766 72.0897C27.227 72.3178 27.2773 72.5459 27.311 72.773C27.422 73.525 27.22 74.299 26.811 74.931L29.709 74.851Z" fill="#EB17A4"/>
<path d="M115.982 72.355C116.403 72.451 117.701 72.853 118.019 73.578C118.926 75.646 117.442 79.408 114.622 78.385C114.236 78.246 113.848 78.082 113.569 77.771C111.944 75.966 113.082 71.696 115.982 72.355Z" fill="#EB17A4"/>
<path d="M44.731 90.028C44.821 90.368 44.952 90.694 45.14 90.992C45.416 91.428 45.816 91.827 46.332 91.951C46.7919 92.061 47.3176 91.995 47.8493 91.9282C48.6899 91.8226 49.5452 91.7152 50.178 92.299C51.311 93.344 50.407 95.54 48.822 95.296C48.2418 95.2065 47.6817 94.8377 47.122 94.4691C46.1552 93.8326 45.1894 93.1967 44.123 94.001L44.731 90.028Z" fill="#EB17A4"/>
<path d="M10.237 94.66C10.646 94.888 10.964 95.234 11.285 95.596L9.918 92.299C9.09176 93.3753 7.94734 93.2975 6.79989 93.2195C6.15307 93.1755 5.50528 93.1314 4.91299 93.294C3.38599 93.713 3.95699 95.663 5.28599 95.983C5.90196 96.131 6.56926 95.7273 7.09175 95.4112L7.102 95.405C7.19029 95.3516 7.27923 95.2967 7.36881 95.2413C8.26447 94.6878 9.22429 94.0946 10.237 94.66Z" fill="#EB17A4"/>
<path d="M111.747 99.456C112.387 99.645 113.24 99.813 113.534 99.002C113.583 98.8665 113.611 98.6955 113.64 98.5165C113.712 98.0774 113.791 97.5903 114.213 97.461C115.154 97.173 115.996 98.169 115.295 98.964C115.099 99.1864 114.821 99.3498 114.545 99.5126C114.042 99.8081 113.544 100.101 113.544 100.741L111.747 99.456Z" fill="#EB17A4"/>
<path d="M97.192 105.317C98.153 105.131 99.33 105.593 99.573 106.839L100.139 103.768C99.298 104.555 98.421 104.629 97.47 104.027C97.2806 103.908 97.109 103.768 96.9425 103.633C96.478 103.256 96.054 102.912 95.398 103.123C94.228 103.497 94.677 105.385 95.697 105.604C96.0332 105.676 96.3718 105.565 96.7056 105.455C96.8691 105.402 97.0315 105.348 97.192 105.317Z" fill="#EB17A4"/>
<path d="M21.115 107.745C21.258 107.942 21.375 108.143 21.445 108.377C21.605 108.907 21.494 109.521 21.13 109.943C20.9877 110.109 20.8152 110.239 20.6425 110.369C20.5326 110.452 20.4222 110.535 20.32 110.627C19.885 111.017 19.563 111.682 19.682 112.274C19.781 112.763 20.267 113.059 20.736 113.118C21.464 113.21 22.164 112.906 22.504 112.233C22.7334 111.778 22.6454 111.222 22.5585 110.673C22.4336 109.884 22.3111 109.11 23.136 108.672C23.3 108.585 23.472 108.522 23.655 108.49L21.115 107.745Z" fill="#EB17A4"/>
<path d="M110.849 114.908C110.796 114.033 110.306 113.501 109.45 113.452L111.392 113.134C111.34 113.256 111.34 113.404 111.34 113.535V113.549C111.341 114.125 111.653 114.432 111.974 114.747C112.186 114.955 112.401 115.167 112.534 115.462C112.902 116.283 111.909 117.171 111.189 116.54C110.809 116.207 110.827 115.795 110.845 115.361C110.852 115.212 110.858 115.06 110.849 114.908Z" fill="#EB17A4"/>
<path d="M52.191 123.552C49.902 121.645 51.682 119.99 52.834 119.403C53.386 119.121 54.901 118.807 55.507 120.026C55.5224 120.057 55.5396 120.091 55.5581 120.128C55.8136 120.632 56.3308 121.654 56.026 122.373C55.451 123.725 53.408 124.566 52.191 123.552Z" fill="#EB17A4"/>
<path d="M49.308 4.107C50.517 3.831 51.478 4.118 52.049 4.637C52.551 5.093 52.844 6.805 52.735 7.217C52.528 8.003 52.155 8.789 51.471 9.267C50.14 10.199 48.103 9.433 47.245 8.212C46.22 6.754 47.781 4.455 49.308 4.107Z" fill="#FB49BF"/>
<path d="M69.392 25.246C69.304 23.445 68.483 21.919 66.874 20.87C66.1854 20.4213 65.4622 20.1536 64.7788 19.9007C63.3026 19.3544 62.0124 18.8768 61.659 16.792C61.376 15.117 62.489 13.423 64.35 13.178C65.668 13.005 66.778 14.035 67.494 15.104C68.0596 15.9489 68.4006 16.856 68.7301 17.7323C69.2899 19.2215 69.8163 20.6217 71.355 21.476C72.128 20.36 73.043 19.346 74.11 18.466C78.994 14.432 90.856 15.78 97.205 21.16C97.747 21.62 98.245 22.112 98.705 22.632C100.794 22.649 103.025 21.545 104.11 19.704C104.306 19.3709 104.455 18.9674 104.606 18.5558C104.975 17.5524 105.362 16.5008 106.504 16.303C107.756 16.087 109.299 16.783 109.848 17.818C110.461 18.972 109.949 20.53 108.696 21.347C108.043 21.7721 107.307 21.8728 106.566 21.9743C106.252 22.0172 105.937 22.0602 105.628 22.128C104.37 22.404 101.447 24.814 101.395 26.593C101.51 26.807 101.622 27.023 101.733 27.24C105.526 34.685 107.762 46.169 100.941 52.64C98.413 55.039 95.58 56.533 92.665 57.231C91.7896 58.8229 92.8494 60.6525 93.8674 62.4098C94.4775 63.4631 95.0726 64.4904 95.227 65.425C95.633 67.88 92.207 69.063 90.952 66.996C90.299 65.9208 90.5153 64.5624 90.7155 63.3054C90.7765 62.9222 90.836 62.5485 90.869 62.195C91.036 60.401 90.576 58.868 89.397 57.685C81.397 58.015 73.413 52.757 69.948 44.058C67.659 38.311 67.185 31.076 69.392 25.246Z" fill="#FB49BF"/>
<path d="M16.208 79.52C16.539 78.314 16.388 77.096 15.288 76.169C15.0283 75.9506 14.7167 75.7532 14.3988 75.5518C13.577 75.0311 12.7127 74.4836 12.593 73.477C12.544 73.066 12.575 72.541 12.821 72.192C13.435 71.32 14.979 71.013 15.698 71.902C16.0514 72.3395 16.1734 72.901 16.2942 73.457C16.3644 73.7804 16.4343 74.1018 16.549 74.396C17.103 75.819 18.416 76.862 19.885 77.232C26.854 73.552 34.647 73.136 41.223 79.553C41.514 79.837 41.816 80.221 42.117 80.679C42.208 80.739 42.3 80.793 42.395 80.839C43.275 81.266 44.235 80.823 44.893 80.191C45.3952 79.7085 45.7577 79.1122 46.1201 78.5163C46.345 78.1463 46.5698 77.7764 46.828 77.434C47.245 76.88 47.769 76.383 48.502 76.35C49.279 76.315 49.887 77.032 50.038 77.744C50.248 78.734 49.821 79.835 48.996 80.425C48.4415 80.8206 47.8299 80.9237 47.1932 81.0311C47.0527 81.0547 46.9105 81.0787 46.768 81.106C45.565 81.334 44.266 81.756 43.644 82.899C43.579 83.019 43.53 83.15 43.494 83.286C44.254 85.026 44.879 87.023 45.133 88.713C46.098 95.117 41.106 102.817 34.893 106.74C35.014 107.78 36.025 108.67 36.998 109.271C37.2024 109.397 37.4266 109.508 37.6512 109.619C38.4132 109.995 39.1805 110.374 39.199 111.376C39.222 112.623 37.608 113.765 36.432 113.543C35.746 113.413 35.227 112.797 34.893 112.23C34.5706 111.681 34.3783 111.019 34.1854 110.355C33.9146 109.422 33.6424 108.484 33.007 107.85C32.871 107.912 32.734 107.973 32.597 108.033C27.052 110.418 21.646 109.054 17.385 105.684C16.216 105.895 15.395 106.595 14.786 107.785C14.6575 108.036 14.5521 108.292 14.4478 108.545C14.2054 109.133 13.9694 109.706 13.466 110.168C13.036 110.563 12.485 110.875 11.882 110.823C10.747 110.725 9.82901 109.378 10.029 108.299C10.1953 107.398 11.0308 106.988 11.8058 106.607C12.0095 106.507 12.2089 106.409 12.391 106.305C13.412 105.721 14.563 104.709 14.503 103.417C14.492 103.182 14.437 102.957 14.359 102.738C13.069 101.209 11.956 99.479 11.069 97.63C9.897 95.189 8.715 92.275 8.886 89.572C9.178 84.97 12.648 82.089 16.133 79.574L16.208 79.52Z" fill="#FB49BF"/>
<path d="M101.92 99.771C101.909 99.114 101.749 98.497 101.266 97.993C101.109 97.8291 100.906 97.6833 100.699 97.5338C100.249 97.21 99.7753 96.8686 99.685 96.29C99.652 96.076 99.654 95.858 99.696 95.648C99.931 94.477 100.887 94.472 101.529 95.372C101.729 95.6529 101.812 96.0413 101.899 96.4447C102.088 97.3279 102.292 98.2828 103.776 98.337C104.869 97.7298 106.218 97.8259 107.493 97.9167C107.685 97.9304 107.876 97.944 108.064 97.955C109.779 98.054 114.358 100.01 114.796 102.536C114.828 102.723 114.861 102.894 114.892 103.06C114.996 103.602 115.09 104.094 115.131 104.949C115.504 105.363 116.029 105.674 116.599 105.589C116.828 105.555 117.061 105.475 117.296 105.395C117.789 105.226 118.29 105.054 118.774 105.298C119.406 105.616 119.323 106.376 118.987 106.883C118.848 107.094 118.624 107.335 118.352 107.341C117.965 107.35 117.56 107.118 117.154 106.885C116.519 106.521 115.88 106.154 115.294 106.695C115.241 106.744 115.188 106.797 115.139 106.853C114.972 110.712 113.897 112.438 110.744 113.446C109.313 113.904 108.064 114.199 106.422 113.826C105.974 114.382 106.147 115.111 106.32 115.842C106.452 116.398 106.583 116.954 106.443 117.436C106.141 118.474 105.259 118.658 104.409 118.107C104.172 117.954 103.958 117.728 103.851 117.464C103.575 116.778 103.868 116.158 104.159 115.542C104.504 114.815 104.846 114.092 104.244 113.271C104.196 113.206 104.145 113.146 104.09 113.091C102.548 112.471 101.46 111.421 100.503 110.241C97.916 107.047 99.696 101.998 101.92 99.771Z" fill="#FB49BF"/>
<path d="M70.658 102.629C71.645 102.242 73.503 102.454 74.236 102.629C76.45 103.155 79.02 106.814 77.436 109.013C77.059 109.536 76.477 109.79 75.89 110.014C74.385 110.587 72.741 110.825 71.199 110.241C70.285 109.894 69.304 109.251 68.84 108.368C67.867 106.514 68.589 103.44 70.658 102.629Z" fill="#FB49BF"/>
<path d="M120.209 49.629C121.501 49.732 123.517 51.095 123.924 53.551C124.161 54.983 123.873 56.89 122.652 57.987C120.479 59.941 116.719 58.686 115.747 56.073C114.824 53.592 117.374 49.403 120.209 49.629Z" fill="#FB49BF"/>
<path d="M15.288 43.323C14.17 42.969 12.868 42.681 11.684 43.187C7.719 44.88 7.53699 50.817 11.484 52.569C15.624 54.408 21.56 49.49 18.392 45.314C17.976 44.766 16.406 43.678 15.288 43.323Z" fill="#FB49BF"/>
<path d="M94.676 29.587C94.865 30.851 94.015 32.364 93.154 32.822C92.293 33.279 90.272 33.123 89.512 32.332C88.345 31.118 88.621 28.439 90.16 27.664C91.658 26.909 94.398 27.722 94.676 29.587Z" fill="#EB17A4"/>
<path d="M82.526 30.386C82.01 29.308 80.254 28.516 79.531 28.413C76.498 27.983 73.532 31.033 74.821 33.991C75.086 34.599 75.515 35.152 75.998 35.603C76.817 36.367 78.084 36.928 79.226 36.794C82.341 36.427 83.731 32.904 82.526 30.386Z" fill="#EB17A4"/>
<path d="M91.232 37.907C91.922 37.899 93.322 38.488 94.161 39.133C96.039 40.577 96.635 44.079 95.682 46.572C94.54 49.558 91.293 50.183 88.525 49.17C87.715 48.873 86.797 48.469 86.229 47.798C85.263 46.655 85.395 45.172 85.613 43.771C86.1 40.631 87.783 37.951 91.232 37.907Z" fill="#EB17A4"/>
<path d="M27.415 80.593C26.704 81.031 26.084 81.94 25.717 82.8C24.507 85.635 26.596 88.918 29.443 89.591C30.363 89.808 31.595 89.97 32.56 89.624C34.547 88.91 34.691 86.359 34.298 84.852C34.06 83.936 33.636 83.146 33.05 82.413C32.274 81.443 30.926 80.474 29.987 80.17C29.198 79.916 28.127 80.155 27.415 80.593Z" fill="#EB17A4"/>
<path d="M22.099 89.35C22.934 90.174 23.671 91.233 23.897 92.306C24.122 93.378 23.779 95.134 23.452 95.786C23.239 96.209 22.973 96.604 22.617 96.921C19.929 99.315 16.62 96.378 16.344 93.448C16.152 91.403 17.429 89.041 19.576 88.584C20.159 88.46 21.348 88.611 22.099 89.35Z" fill="#EB17A4"/>
<path d="M32.605 97.785C31.788 96.758 29.944 96.758 29.067 97.061C27.563 97.58 26.175 100.017 27.119 101.511C28.082 103.036 30.683 102.983 31.788 101.677C32.526 100.804 33.651 99.1 32.605 97.785Z" fill="#EB17A4"/>
<path d="M106.996 104.033C107.162 104.206 107.483 104.888 107.509 105.362C107.561 106.326 107.38 107.323 106.57 107.888C106.241 108.117 105.78 108.17 105.393 108.115C104.435 107.977 103.628 107.305 103.451 106.326C103.334 105.683 103.418 104.928 103.854 104.418C104.066 104.17 104.379 103.991 104.66 103.837C104.875 103.719 105.093 103.612 105.327 103.541C105.964 103.349 106.544 103.564 106.996 104.033Z" fill="#EB17A4"/>
<path d="M111.157 104.96C111.794 105.06 112.833 105.502 112.572 106.744C112.365 107.733 110.948 108.328 110.167 107.47C110.046 107.337 109.948 107.182 109.889 107.011C109.799 106.752 109.774 106.465 109.793 106.193C109.84 105.545 110.46 104.851 111.157 104.96Z" fill="#EB17A4"/>
<path fill-rule="evenodd" clip-rule="evenodd" d="M58.9292 33.3009C51.8732 45.3669 33.8512 76.1879 26.6422 88.5169C25.5532 90.3799 25.5282 92.6969 26.5772 94.5849C27.6262 96.4719 29.5872 97.6379 31.7132 97.6379C45.9782 97.6379 82.0212 97.6379 96.2872 97.6379C98.4122 97.6379 100.374 96.4719 101.423 94.5849C102.472 92.6969 102.447 90.3799 101.358 88.5159C94.1492 76.1879 76.1262 45.3669 69.0702 33.3009C68.0052 31.4779 66.0792 30.3619 64.0002 30.3619C61.9212 30.3619 59.9952 31.4779 58.9292 33.3009Z" fill="#262626"/>
<path fill-rule="evenodd" clip-rule="evenodd" d="M63.2752 35.9509C63.4282 35.6899 63.7032 35.5309 64.0002 35.5309C64.2972 35.5309 64.5722 35.6899 64.7242 35.9509C71.7802 48.0169 89.8022 78.8379 97.0112 91.1659C97.1672 91.4329 97.1712 91.7639 97.0212 92.0329C96.8712 92.3029 96.5912 92.4689 96.2872 92.4689C82.0212 92.4689 45.9782 92.4689 31.7132 92.4689C31.4092 92.4689 31.1292 92.3029 30.9792 92.0329C30.8292 91.7639 30.8332 91.4329 30.9882 91.1659L63.2752 35.9509Z" fill="#FFCB49"/>
<path d="M67.4152 57.8409C67.4152 55.9559 65.8852 54.4259 64.0002 54.4259C62.1152 54.4259 60.5852 55.9559 60.5852 57.8409C60.5852 61.6009 64.0002 75.4229 64.0002 75.4229C64.0002 75.4229 67.4152 61.6009 67.4152 57.8409Z" fill="#262626"/>
<path d="M67.4152 81.5089C67.4152 83.3949 65.8863 84.9239 64.0002 84.9239C62.1141 84.9239 60.5852 83.3949 60.5852 81.5089C60.5852 79.6228 62.1141 78.0939 64.0002 78.0939C65.8863 78.0939 67.4152 79.6228 67.4152 81.5089Z" fill="#262626"/>
</svg>
