<svg width="128" height="128" viewBox="0 0 128 128" fill="none" xmlns="http://www.w3.org/2000/svg">
<path fill-rule="evenodd" clip-rule="evenodd" d="M60.5375 94.5841C61.8215 96.2274 62.3255 98.0976 61.5855 100.083C61.0135 101.623 59.6615 103.632 60.2295 105.316C60.4055 105.837 60.7375 106.306 61.1495 106.668C63.6375 108.857 66.5375 107.043 67.5055 104.257C68.1175 102.494 65.7335 100.795 65.1055 99.2197C64.6695 98.1215 64.5175 96.88 64.5935 95.7062L60.5375 94.5841ZM106.506 97.9026C104.806 96.8163 102.874 96.5259 101.122 97.5445C99.0375 98.7502 98.3215 102.049 100.246 103.708C102.946 106.036 108.798 104.01 108.238 101.03C108.066 100.107 107.77 98.7104 106.506 97.9026ZM93.7855 75.5125C94.1135 77.4145 94.9695 79.4915 96.7655 80.4545C99.1055 81.7079 101.566 81.3458 103.178 83.7969C104.398 85.6511 103.534 87.6168 101.694 88.2415C100.83 88.5359 99.1695 88.2415 98.5615 87.6367C96.1375 85.2253 96.5215 81.4731 92.4575 81.0115L93.7855 75.5125ZM32.0455 75.0708C29.6335 72.6754 25.8135 74.0243 22.9295 75.0708C21.4095 75.6239 19.7695 76.4993 18.0975 76.2406C17.2615 76.1093 16.0055 75.1902 15.6175 74.1437C15.1695 72.9301 15.7375 71.5613 17.0815 71.239C18.6015 70.8729 20.2775 71.7085 21.7575 71.9592C24.8375 72.4804 28.5735 71.8438 30.6975 69.3847L32.0455 75.0708ZM12.0975 46.0038C11.0575 44.9971 8.34152 44.4599 6.52152 45.2955C3.66552 46.6046 3.04552 50.2654 5.64952 52.1952C7.77352 53.7709 10.9615 53.0069 12.7775 51.3357C14.0095 50.1977 13.1415 47.0105 12.0975 46.0038ZM90.7975 46.0157C90.8295 45.4268 90.9175 44.8379 91.0815 44.2689C91.2415 43.7278 91.4215 43.1906 91.7655 42.737C93.2015 40.843 95.9615 41.6467 97.7615 40.3535C99.1495 39.3588 99.5215 37.1305 98.6615 35.6742C98.1815 34.8704 97.3215 34.1184 96.3095 34.2735C93.8095 34.6515 93.4055 36.9355 92.2855 38.7062C91.3135 40.2421 89.2335 41.3443 87.3975 41.2647L90.7975 46.0157ZM42.7455 37.5006C43.4135 35.5787 44.4295 32.7018 42.7455 31.1619C41.2215 29.7613 37.8535 29.3117 38.0175 26.7412C38.0375 26.387 38.1255 26.0449 38.2535 25.7146C39.3095 22.977 43.2015 24.3538 44.2975 26.3512C44.8975 27.4415 44.8815 28.7665 45.2335 29.9364C45.5535 31.0147 47.4015 33.243 49.2335 33.5493L42.7455 37.5006ZM97.4455 18.3931C96.8575 18.3374 95.5575 18.4369 94.9295 19.0616C93.5455 20.4463 94.2695 22.8059 96.0495 23.4386C97.8175 24.0673 100.258 22.7462 100.002 20.705C99.8815 19.746 98.4695 18.4846 97.4455 18.3931Z" fill="#EB17A4"/>
<path fill-rule="evenodd" clip-rule="evenodd" d="M38.5935 116.246C37.2415 116.119 33.6095 117.746 33.0815 119.835C32.6895 121.383 33.3615 123.691 35.1215 123.965C35.8375 124.077 36.5375 123.902 37.1975 123.699C38.5055 123.289 39.9615 122.74 40.7735 121.53C40.9575 121.256 41.1015 120.941 41.1935 120.607C41.7015 118.705 39.9455 116.377 38.5935 116.246ZM64.1055 31.6354C66.9415 30.2587 68.6975 24.7437 67.5495 21.8748C66.4375 19.1054 64.0655 16.1012 66.3575 13.2044C67.5855 11.6486 69.8695 11.4178 71.6735 11.8913C74.7855 12.7031 77.0615 15.3213 76.3895 18.6398C75.8855 21.1148 73.9935 22.8855 72.9255 25.1018C71.8495 27.3301 72.0055 29.6658 72.7815 31.9537C72.9455 32.4352 73.2415 32.9525 73.6215 33.3902C81.8335 35.7776 89.6255 40.1506 93.9895 47.7586C94.3975 48.4708 94.7775 49.195 95.1215 49.9271C95.4335 50.0266 95.7615 50.0943 96.1135 50.1301C97.9095 50.3091 99.8695 49.6725 101.086 48.3315C102.814 46.4296 104.198 43.1707 107.278 43.3299C111.698 43.5567 113.566 50.8781 109.314 52.7244C107.814 53.377 105.95 52.7244 104.39 52.6488C101.102 52.4897 98.5015 54.0017 97.4655 57.0059C100.258 70.5705 94.3935 85.7466 82.1815 92.5428C82.1455 92.7696 82.1135 93.0004 82.0935 93.2312C81.8175 96.1797 82.8535 98.595 85.4575 100.063C88.2015 101.607 92.2215 102.228 92.3255 106.163C92.4815 112.176 84.3135 113.902 81.0575 109.311C79.7215 107.425 80.3895 104.926 80.1415 102.781C79.8135 99.9359 78.3975 96.872 75.5655 95.7261C75.2535 95.5988 74.9295 95.4993 74.5975 95.4237C68.5495 96.7487 61.7095 96.0086 55.7655 94.6637C49.6455 93.2829 43.9215 90.3265 39.3935 86.2281C35.6335 87.2308 32.6015 89.9405 31.8135 93.8599C31.3735 96.0524 31.7655 99.2555 30.0975 100.998C28.0535 103.135 23.7375 104.162 20.9255 102.809C18.2295 101.512 16.9695 97.9464 17.8535 94.978C18.5455 92.6582 20.7415 91.0069 23.0695 90.5493C24.7615 90.2191 26.4895 90.3663 28.1775 89.9485C31.9935 89.0055 34.7215 84.9588 34.5375 81.1031C34.5295 80.9558 34.5175 80.8086 34.5015 80.6654C30.8095 75.2976 28.8895 68.7998 29.7535 61.7012C30.4455 56.0151 32.0575 50.5558 34.6375 45.8327C33.5615 42.1879 30.7455 39.4423 26.7815 38.3362C22.7335 37.2061 18.1455 37.6955 16.2655 33.0878C15.6335 31.5399 15.3295 29.6936 15.9855 28.102C17.8215 23.6176 24.1895 20.9795 27.7335 24.9904C29.2055 26.6536 29.9615 28.874 30.3415 31.0226C30.5415 32.1885 30.5255 33.4379 30.9255 34.5561C31.9935 37.5443 35.0855 39.6373 38.2095 40.5445C40.9775 37.2061 44.4175 34.5043 48.5495 32.7177C52.0815 31.1898 58.5655 31.1181 64.1055 31.6354ZM122.29 74.6809C125.242 71.7443 124.378 63.7862 119.654 62.7039C115.058 61.6534 111.134 68.382 112.582 72.2019C113.99 75.9144 119.334 77.6174 122.29 74.6809ZM51.3535 4.42266C49.6615 4.12025 46.8215 3.45973 44.3615 4.86433C42.2335 6.07795 41.3895 9.16569 42.4975 11.3582C43.1815 12.711 44.6215 13.7615 45.9935 14.3743C48.2695 15.3889 51.7695 15.8465 53.9695 14.4141C56.9535 12.4683 56.6215 9.48402 56.1575 7.98391C55.5215 5.92674 53.0175 4.72507 51.3535 4.42266Z" fill="#FB49BF"/>
<path fill-rule="evenodd" clip-rule="evenodd" d="M69.9295 80.8165C71.6095 78.6042 67.7695 70.3596 63.8895 68.8316C60.4135 67.4668 54.3255 73.706 54.3255 76.941C54.3255 80.1759 57.9655 83.0329 60.0935 83.4905C62.9215 84.0993 67.2095 84.3977 69.9295 80.8165ZM78.6855 53.6277C77.5095 53.6675 76.1175 54.3439 75.0655 55.1357C71.5975 57.7539 71.8535 63.2331 74.8655 66.0503C75.8375 66.9615 77.2295 68.0199 78.6535 68.2746C81.5815 68.7918 83.5455 65.7757 84.1215 63.6549C84.4695 62.3696 84.5055 61.1083 84.3015 59.7992C84.0335 58.0723 83.0615 55.9395 82.1255 54.9129C81.3415 54.0494 79.8655 53.5918 78.6855 53.6277ZM60.3095 46.2624C62.8975 49.3382 63.4335 55.8122 59.3135 59.27C57.7975 60.5433 55.5655 61.0207 53.6495 61.1958C52.3335 61.3112 50.9855 61.3868 49.7095 60.977C45.0335 59.4848 43.6135 51.7456 46.7975 48.1803C49.1535 45.5422 51.3575 44.631 54.1655 44.3366C56.2095 44.1217 58.9935 44.6987 60.3095 46.2624Z" fill="#EB17A4"/>
</svg>
