<svg width="128" height="128" viewBox="0 0 128 128" fill="none" xmlns="http://www.w3.org/2000/svg">
<path fill-rule="evenodd" clip-rule="evenodd" d="M71.8445 7.99988C71.8445 6.93921 71.4231 5.92171 70.6728 5.17151C69.9229 4.4213 68.9054 3.99988 67.8446 3.99988C65.4867 3.99988 62.5134 3.99988 60.1555 3.99988C59.0944 3.99988 58.0772 4.4213 57.3269 5.17151C56.5769 5.92171 56.1555 6.93921 56.1555 7.99988C56.1555 14.8747 56.1555 28.2005 56.1555 28.2005H71.8445V7.99988Z" fill="#FFCB49"/>
<path d="M64.0001 15.5101C65.6644 15.5101 67.0136 14.1608 67.0136 12.4965C67.0136 10.8322 65.6644 9.48297 64.0001 9.48297C62.3358 9.48297 60.9866 10.8322 60.9866 12.4965C60.9866 14.1608 62.3358 15.5101 64.0001 15.5101Z" fill="#FFA215"/>
<path fill-rule="evenodd" clip-rule="evenodd" d="M78.0668 29.9374C78.0668 26.6236 75.3807 23.9373 72.067 23.9373C67.3084 23.9373 60.6901 23.9373 55.9321 23.9373C52.6184 23.9373 49.9323 26.6236 49.9323 29.9374C49.9323 35.6645 49.9323 43.4269 49.9323 43.4269H78.0668V29.9374Z" fill="#FFA215"/>
<path fill-rule="evenodd" clip-rule="evenodd" d="M52.893 29.2009V42.845C52.893 43.397 53.341 43.845 53.893 43.845C54.445 43.845 54.893 43.397 54.893 42.845V29.2009C54.893 28.6489 54.445 28.2009 53.893 28.2009C53.341 28.2009 52.893 28.6489 52.893 29.2009ZM59.631 29.2009V42.845C59.631 43.397 60.079 43.845 60.631 43.845C61.183 43.845 61.631 43.397 61.631 42.845V29.2009C61.631 28.6489 61.183 28.2009 60.631 28.2009C60.079 28.2009 59.631 28.6489 59.631 29.2009ZM66.369 29.2009V42.845C66.369 43.397 66.817 43.845 67.369 43.845C67.921 43.845 68.369 43.397 68.369 42.845V29.2009C68.369 28.6489 67.921 28.2009 67.369 28.2009C66.817 28.2009 66.369 28.6489 66.369 29.2009ZM73.107 29.2009V42.845C73.107 43.397 73.555 43.845 74.107 43.845C74.659 43.845 75.107 43.397 75.107 42.845V29.2009C75.107 28.6489 74.659 28.2009 74.107 28.2009C73.555 28.2009 73.107 28.6489 73.107 29.2009Z" fill="#FFCB49"/>
<path fill-rule="evenodd" clip-rule="evenodd" d="M85.9805 50.8685C85.9805 45.3455 81.5033 40.8683 75.9808 40.8683H52.0194C46.4968 40.8683 42.0196 45.3455 42.0196 50.8685V114C42.0196 119.523 46.4968 124 52.0194 124H75.9808C81.5033 124 85.9805 119.523 85.9805 114V50.8685Z" fill="#BDDEFF"/>
<path fill-rule="evenodd" clip-rule="evenodd" d="M81.8997 63.9987C79.2484 59.5761 67.9673 60.8042 63.9999 63.9987C60.0324 67.1931 50.738 68.0287 46.1 63.9987V111.907C46.1 114.028 46.9425 116.063 48.4427 117.564C49.9429 119.064 51.9777 119.907 54.0998 119.907C60.0013 119.907 67.9977 119.907 73.8998 119.907C76.0213 119.907 78.0561 119.064 79.5563 117.564C81.0566 116.063 81.8997 114.028 81.8997 111.907C81.8997 96.452 81.8997 63.9987 81.8997 63.9987Z" fill="#FFA215"/>
<path fill-rule="evenodd" clip-rule="evenodd" d="M46.1003 63.9987C48.7516 59.5761 60.0327 60.8042 64.0001 63.9987C67.9676 67.1931 77.262 68.0287 81.9 63.9987V111.907C81.9 114.028 81.0575 116.063 79.5573 117.564C78.0571 119.064 76.0223 119.907 73.9002 119.907C67.9987 119.907 60.0023 119.907 54.1002 119.907C51.9787 119.907 49.9439 119.064 48.4437 117.564C46.9434 116.063 46.1003 114.028 46.1003 111.907C46.1003 96.452 46.1003 63.9987 46.1003 63.9987Z" fill="#FFCB49"/>
</svg>
