<svg width="128" height="128" viewBox="0 0 128 128" fill="none" xmlns="http://www.w3.org/2000/svg">
<path d="M64.0003 114C91.6145 114 114 91.6143 114 64.0001C114 36.3859 91.6145 14.0001 64.0003 14.0001C36.3861 14.0001 14.0004 36.3859 14.0004 64.0001C14.0004 91.6143 36.3861 114 64.0003 114Z" fill="#56AAFF"/>
<path fill-rule="evenodd" clip-rule="evenodd" d="M95.2769 25C106.69 34.168 114 48.237 114 64C114 91.6 91.596 114 64 114C48.237 114 34.168 106.69 25 95.28C33.566 102.16 44.444 106.28 56.277 106.28C83.8729 106.28 106.277 83.873 106.277 56.277C106.277 44.444 102.158 33.566 95.2769 25Z" fill="#2691FC"/>
<path fill-rule="evenodd" clip-rule="evenodd" d="M29.5195 27.8051C29.947 28.2184 30.3553 28.6526 30.7395 29.1126C31.2987 29.7809 31.9062 31.5059 33.0112 31.2859C36.0678 30.6767 37.3337 25.5043 40.4295 25.4409C41.6412 25.4168 43.0028 26.4934 44.0678 26.9284C45.0162 27.3159 46.0511 27.3559 47.0395 27.5926C48.5203 27.9476 50.3336 30.1109 48.667 31.4001C46.772 32.8668 42.0354 31.3867 40.627 33.5359C40.0054 34.4842 41.3679 36.8476 41.6387 37.6759C41.987 38.7409 40.912 39.9409 40.192 40.5717C36.7112 43.6217 31.4887 43.0267 27.5895 45.1442C24.6437 46.7434 23.8704 49.655 22.0254 52.1775C21.1329 53.3975 19.2479 54.4617 18.9629 56.0176C18.3629 59.2951 21.1104 62.2334 23.8854 63.4834C26.5229 64.6717 29.5404 64.4542 32.3537 64.7792C35.5637 65.1509 38.4854 66.1859 41.1829 67.9884C42.4854 68.8584 43.527 70.1184 44.027 71.6142C44.657 73.5025 44.437 75.3 46.2803 76.4567C49.1837 78.2775 55.6112 76.5558 55.7445 81.1242C55.7645 81.825 55.7028 82.51 55.5936 83.2016C55.2936 85.1166 54.2086 86.5666 53.4903 88.3083C52.6886 90.25 52.377 92.3333 51.0095 94.0083C49.6687 95.65 47.7312 96.575 46.4937 98.325C44.2345 101.525 43.217 105.217 41.2812 108.542C38.2587 107 35.4137 105.15 32.787 103.05C33.1095 100.917 33.5562 98.7916 33.7595 96.6C34.007 93.925 33.637 90.925 31.842 88.8167C29.272 85.8 24.5229 83.8125 23.3354 79.7675C22.1087 75.5884 27.2229 71.95 25.2004 68.1117C24.2479 66.3042 22.0729 65.4317 20.3787 64.4825C18.2604 63.2958 16.3462 61.6275 14.1104 60.6575C14.9637 47.7626 20.7137 36.1976 29.5195 27.8051ZM96.2677 102.183C92.8419 98.0083 91.1194 91.55 91.0385 87.0083C90.9627 82.7233 91.8352 77.9833 88.9669 74.3184C85.1203 69.4034 77.7169 72.2175 72.7594 72.0992C69.3711 72.0183 65.832 70.3408 64.857 66.7917C64.4311 65.2425 65.077 63.7475 65.1386 62.1908C65.2086 60.4233 64.8953 58.5959 65.6744 56.9259C66.6294 54.8767 68.9328 53.4626 70.5736 52.0184C75.0194 48.1026 78.0269 45.1517 84.4036 45.6784C87.6836 45.9492 90.3161 48.0692 93.5077 48.2909C95.7977 48.45 97.8686 47.0284 100.189 47.1409C104.369 47.3434 106.817 47.3851 110.634 45.9417C112.808 51.5434 114 57.6334 114 64C114 79.3017 107.112 93.0083 96.2677 102.183ZM91.0702 21.9651C98.9252 27.0376 105.27 34.2501 109.277 42.7734C108.15 42.5542 107.022 42.2809 105.879 41.9384C103.141 41.1184 100.565 39.6284 97.7719 39.0143C96.0577 38.6368 94.2952 39.5526 92.5652 39.5359C90.6536 39.5167 88.7327 38.6967 86.8461 38.7884C82.8536 38.9834 80.1678 42.6817 76.2003 43.3209C75.3069 43.4642 72.8919 43.8451 72.2644 43.0517C71.9828 42.6951 72.562 41.4351 72.8253 41.0617C74.0736 39.2934 76.3344 38.8526 77.6311 37.2068C78.5011 36.1018 78.7944 34.4876 79.7569 33.5034C81.1236 32.1067 83.0961 31.6451 84.4378 30.1018C85.6194 28.7426 85.9211 26.9268 87.0619 25.566C88.1794 24.2343 89.5819 23.0501 91.0702 21.9651ZM55.1461 14.7835C58.0195 14.2685 60.9786 14.0001 64.0003 14.0001C67.0661 14.0001 70.0678 14.2768 72.9786 14.8059C71.6028 17.1168 70.0186 19.2218 67.6828 20.8001C66.6445 21.5018 65.4645 22.0509 64.2928 22.4959C63.2645 22.8868 62.2353 23.1443 61.4144 23.9293C60.3528 24.9426 59.9828 26.4643 58.7753 27.3751C58.5303 27.5601 57.7503 28.1384 57.3928 27.8451C56.632 27.2209 56.6211 26.0959 56.7495 25.2018C57.0295 23.2468 58.0887 21.5793 57.7887 19.5376C57.5087 17.631 56.267 16.251 55.1461 14.7835Z" fill="#86E94B"/>
<path fill-rule="evenodd" clip-rule="evenodd" d="M33.186 100.63C36.354 102.28 39.722 103.61 43.244 104.56C42.643 105.91 42.031 107.25 41.281 108.54C38.258 107 35.413 105.15 32.787 103.05C32.909 102.24 33.048 101.44 33.186 100.63ZM105.447 47.166C107.094 47.028 108.686 46.678 110.634 45.942C112.808 51.544 114 57.634 114 64C114 79.302 107.111 93.01 96.268 102.18C93.904 99.3 92.351 95.34 91.589 91.66C100.66 82.61 106.277 70.094 106.277 56.277C106.277 53.167 105.993 50.123 105.447 47.166ZM95.278 25.002C101.198 29.757 106.013 35.83 109.277 42.773C108.15 42.554 107.021 42.281 105.878 41.939C105.239 41.747 104.609 41.519 103.983 41.274C102.099 35.287 99.119 29.784 95.278 25.002Z" fill="#46D516"/>
<path fill-rule="evenodd" clip-rule="evenodd" d="M88.5359 81.5671C88.0717 81.119 86.863 80.8788 86.0539 81.2507C84.7822 81.835 84.5066 83.4631 85.6652 84.323C86.6105 85.0244 88.0301 84.6833 88.8377 83.9389C89.3866 83.4339 89.0001 82.0151 88.5359 81.5671Z" fill="#EB17A4"/>
<path fill-rule="evenodd" clip-rule="evenodd" d="M7.74301 66.4246C7.098 66.0476 5.67 66.1096 4.861 66.7506C3.58899 67.7586 3.726 69.6676 5.26801 70.3176C6.52502 70.8476 8.03002 70.0736 8.73603 69.0126C9.21503 68.2936 8.38901 66.8016 7.74301 66.4246Z" fill="#EB17A4"/>
<path fill-rule="evenodd" clip-rule="evenodd" d="M50.735 4.73921C49.463 3.9262 48.013 3.7082 46.699 4.4692C45.134 5.37622 44.598 7.85024 46.041 9.09426C48.066 10.8403 52.456 9.32126 52.036 7.08424C51.906 6.39423 51.683 5.34522 50.735 4.73921Z" fill="#EB17A4"/>
<path fill-rule="evenodd" clip-rule="evenodd" d="M37.1347 57.427C37.1166 56.7697 36.8379 55.3465 36.0639 54.7369C34.3507 53.3885 31.8374 54.499 31.3729 56.551C30.9117 58.5873 32.6941 61.1107 34.9161 60.5578C35.9574 60.2983 37.1653 58.5703 37.1347 57.427Z" fill="#FB49BF"/>
<path fill-rule="evenodd" clip-rule="evenodd" d="M67.9694 122.836C68.1729 122.238 68.062 121.11 67.4141 120.41C66.3282 119.234 64.3734 119.45 63.7461 121.023C63.099 122.645 64.657 123.935 66.1896 123.999C66.6783 124.02 67.765 123.435 67.9694 122.836Z" fill="#EB17A4"/>
<path fill-rule="evenodd" clip-rule="evenodd" d="M73.131 28.4224C72.4706 28.3611 71.0137 28.4711 70.3119 29.1729C68.7576 30.7272 69.5695 33.3749 71.5676 34.0848C73.5504 34.7884 76.2892 33.3054 75.9996 31.0159C75.8643 29.9424 74.2793 28.527 73.131 28.4224Z" fill="#FB49BF"/>
<path fill-rule="evenodd" clip-rule="evenodd" d="M120.348 74.1691C118.575 74.8065 117.983 75.8332 117.731 76.6904C117.592 77.1614 117.696 77.7404 117.892 78.1802C118.655 79.8931 120.606 80.4838 122.232 79.501C123.517 78.7242 124.344 77.0873 123.858 75.6093C123.446 74.3524 121.324 73.8185 120.348 74.1691Z" fill="#FB49BF"/>
<path fill-rule="evenodd" clip-rule="evenodd" d="M59.5669 77.1577C58.2215 77.1841 57.7689 77.98 57.7271 79.2523C57.7087 79.8123 57.7916 80.6917 57.2175 81.027C56.4855 81.4544 55.4495 80.9269 55.2506 80.1439C55.148 79.7411 55.4022 79.0632 55.6147 78.7328C56.1938 77.8326 57.4532 77.4856 57.0866 76.2458L59.5669 77.1577ZM72.9764 65.9933C73.1391 66.183 73.3227 66.4293 73.5426 66.5576C73.7458 66.6767 73.9706 66.8284 74.2107 66.8689C75.2681 67.0446 76.0314 66.2365 77.0551 66.2948C78.4023 66.3722 79.0686 68.5024 77.7299 69.1121C76.2998 69.7631 75.0845 68.1345 73.7016 68.2316C73.2969 68.2604 72.9266 68.4815 72.6178 68.7333L72.9764 65.9933ZM51.2837 64.479C51.1136 64.3519 50.9367 64.2352 50.7292 64.1775C49.9996 63.9736 49.3512 64.2984 48.7684 64.7215C48.4 64.9893 47.9971 65.3307 47.5249 65.37C46.0978 65.4885 45.3843 63.408 46.5879 62.6233C47.4813 62.0405 48.2194 62.7651 49.0429 63.0218C49.8492 63.2736 50.6192 63.023 51.2493 62.479L51.2837 64.479ZM62.6501 53.5602C62.8313 53.489 62.9996 53.3809 63.1353 53.2409C63.7217 52.6366 63.6149 51.9077 63.4208 51.1622C63.3213 50.7809 63.1629 50.3756 63.2839 49.9826C63.6855 48.6789 65.5252 49.4023 65.7856 50.4168C66.143 51.8095 64.2873 52.6643 64.7497 54.1466L62.6501 53.5602Z" fill="#EB17A4"/>
<path fill-rule="evenodd" clip-rule="evenodd" d="M51.2369 58.4169C51.1829 57.3109 50.6787 56.3738 49.6907 55.7297C48.3544 54.8589 46.8058 55.0984 46.4883 53.2255C46.3145 52.1969 46.998 51.1567 48.1408 51.0062C48.9501 50.9 49.6317 51.5325 50.0714 52.1889C51.0091 53.5896 50.9415 55.2685 52.4423 56.1018C52.917 55.4165 53.4789 54.7938 54.1341 54.2535C57.1332 51.7763 64.4173 52.6041 68.3161 55.9078C68.6489 56.1902 68.9547 56.4924 69.2372 56.8117C70.52 56.8221 71.89 56.1442 72.5562 55.0137C72.9707 54.3106 73.0377 53.0965 74.0263 52.9252C74.7952 52.7926 75.7427 53.22 76.0798 53.8555C76.4562 54.5642 76.1418 55.5209 75.3724 56.0226C74.8019 56.3941 74.1277 56.3622 73.4884 56.5022C72.7159 56.6717 70.921 58.1516 70.889 59.244C70.9597 59.3754 71.0284 59.5081 71.0966 59.6413C73.4258 64.2131 74.7989 71.2651 70.6103 75.2387C69.0579 76.7119 67.3182 77.6293 65.5282 78.0579C64.6685 79.6213 66.8484 81.5581 67.1014 83.0896C67.3508 84.5972 65.247 85.3236 64.4763 84.0543C63.9531 83.1928 64.3387 82.0353 64.4253 81.1062C64.5279 80.0045 64.2454 79.0632 63.5214 78.3367C58.6088 78.5393 53.7061 75.3106 51.5783 69.9688C50.1727 66.4397 49.8816 61.9969 51.2369 58.4169Z" fill="#FB49BF"/>
<path fill-rule="evenodd" clip-rule="evenodd" d="M66.4469 66.9445C65.9317 66.5484 65.072 66.1867 64.6482 66.1916C62.5303 66.2187 61.4968 67.8644 61.1978 69.7926C61.0639 70.6529 60.9828 71.5635 61.576 72.2654C61.9248 72.6775 62.4885 72.9256 62.9859 73.1079C64.6857 73.73 66.6796 73.3462 67.3809 71.5126C67.9661 69.9817 67.6001 67.8312 66.4469 66.9445ZM59.3021 61.5732C58.9853 60.9112 57.907 60.4249 57.463 60.3616C55.6005 60.0976 53.7792 61.9705 54.5707 63.7869C54.7334 64.1603 54.9968 64.4999 55.2934 64.7768C55.7964 65.246 56.5744 65.5905 57.2757 65.5082C59.1885 65.2828 60.0421 63.1194 59.3021 61.5732ZM65.8285 63.0691C66.3572 62.7878 66.8792 61.8587 66.7631 61.0826C66.5924 59.9373 64.9098 59.4381 63.99 59.9017C63.0449 60.3776 62.8754 62.0227 63.592 62.7682C64.0587 63.2539 65.2998 63.3497 65.8285 63.0691Z" fill="#EB17A4"/>
<path fill-rule="evenodd" clip-rule="evenodd" d="M98.9421 39.6615C98.0835 39.7117 97.5917 40.2447 97.5376 41.1239C97.5003 41.72 97.7101 42.3122 97.1952 42.7628C96.4729 43.3961 95.4753 42.5053 95.846 41.6801C96.1807 40.9334 97.0432 40.7184 97.0445 39.7593C97.0445 39.6242 97.0471 39.4684 96.9931 39.3435L98.9421 39.6615Z" fill="#EB17A4"/>
<path fill-rule="evenodd" clip-rule="evenodd" d="M108.86 33.0213C109.105 31.7713 110.286 31.3065 111.251 31.4932C111.741 31.5885 112.25 31.8897 112.753 31.7816C113.777 31.5614 114.227 29.6664 113.053 29.2892C112.158 29.0034 111.694 29.7423 110.973 30.1981C110.016 30.8019 109.137 30.7285 108.292 29.9367L108.86 33.0213Z" fill="#EB17A4"/>
<path fill-rule="evenodd" clip-rule="evenodd" d="M96.6364 25.6085C95.9927 25.7978 95.1367 25.9664 94.8406 25.1515C94.6706 24.6816 94.7556 23.7869 94.1596 23.6054C93.2147 23.3157 92.3688 24.3147 93.073 25.1142C93.6278 25.7424 94.8316 25.9021 94.8303 26.8985L96.6364 25.6085Z" fill="#EB17A4"/>
<path fill-rule="evenodd" clip-rule="evenodd" d="M106.504 25.924C106.514 25.2649 106.675 24.6444 107.161 24.1397C107.66 23.6183 108.615 23.2785 108.748 22.4288C108.781 22.2138 108.779 21.995 108.736 21.7838C108.501 20.6085 107.54 20.6033 106.895 21.507C106.254 22.4069 106.811 24.4049 104.64 24.4847C103.377 23.7818 101.772 24.0161 100.334 24.0998C98.6125 24.2002 94.014 26.1635 93.575 28.7009C93.436 29.5016 93.2918 30.0024 93.2378 31.1237C92.8631 31.5395 92.3353 31.851 91.7637 31.7661C91.0531 31.6605 90.2974 31.1121 89.579 31.4739C88.9443 31.7944 89.0294 32.5565 89.3654 33.0663C89.5057 33.2775 89.7297 33.5195 90.0039 33.5259C90.999 33.5478 92.1074 31.9862 93.0743 32.8771C93.127 32.926 93.1811 32.9801 93.23 33.0354C93.3973 36.9104 94.4775 38.6432 97.6431 39.6564C99.0799 40.116 100.334 40.4121 101.983 40.0374C102.773 41.0197 101.635 42.5426 101.961 43.6626C102.265 44.7054 103.15 44.8895 104.004 44.3372C104.242 44.1827 104.457 43.9562 104.565 43.691C105.17 42.1886 103.054 41.0017 104.17 39.48C104.218 39.4143 104.269 39.3551 104.325 39.2998C105.873 38.6767 106.966 37.6223 107.927 36.4367C110.525 33.2311 108.736 28.1615 106.504 25.924Z" fill="#FB49BF"/>
<path fill-rule="evenodd" clip-rule="evenodd" d="M100.891 31.5381C100.917 31.0618 101.24 30.3769 101.406 30.2044C101.859 29.732 102.444 29.517 103.082 29.7101C103.318 29.7809 103.537 29.889 103.752 30.0062C104.035 30.1619 104.349 30.3409 104.561 30.5906C104.999 31.103 105.084 31.86 104.967 32.5062C104.788 33.4898 103.978 34.1644 103.017 34.3021C102.628 34.3588 102.164 34.3047 101.835 34.0743C101.021 33.5078 100.838 32.5062 100.891 31.5381Z" fill="#EB17A4"/>
<path fill-rule="evenodd" clip-rule="evenodd" d="M92.5015 98.4288C92.4474 98.3038 92.3881 98.1673 92.3057 98.0591C92.2129 97.938 92.0751 97.8891 91.9283 97.8698C91.69 97.8376 91.4349 97.8749 91.2172 97.9806C91.0008 98.0849 90.8217 98.2472 90.5654 98.224C90.0257 98.175 89.7565 97.3868 90.2962 97.1317C90.595 96.9888 91.033 97.3327 91.3061 97.4164C91.7582 97.5542 92.1357 97.4395 92.5389 97.2206" fill="#EB17A4"/>
<path fill-rule="evenodd" clip-rule="evenodd" d="M102.313 101.41C102.568 101.145 102.904 101.27 103.185 101.439C103.324 101.524 103.478 101.643 103.651 101.613C103.81 101.585 103.979 101.469 104.024 101.306C104.074 101.125 103.979 100.936 103.778 100.943C103.358 100.961 102.939 101.224 102.554 100.919" fill="#EB17A4"/>
<path fill-rule="evenodd" clip-rule="evenodd" d="M101.149 94.898C101.115 94.6185 101.122 94.4059 101.369 94.2385C101.517 94.138 101.782 94.0929 101.836 93.8894C101.925 93.5507 101.489 93.3807 101.272 93.5906C100.998 93.8585 101.047 94.2578 100.584 94.2978" fill="#EB17A4"/>
<path fill-rule="evenodd" clip-rule="evenodd" d="M95.8074 32.9259C95.546 31.6785 96.5888 31.2356 97.2274 31.1352C97.9277 31.0245 98.5508 31.7222 98.5971 32.3724C98.6164 32.6453 98.592 32.9337 98.5019 33.1937C98.4426 33.3662 98.3435 33.522 98.2224 33.6559C97.4384 34.5159 96.0159 33.9185 95.8074 32.9259Z" fill="#EB17A4"/>
<path fill-rule="evenodd" clip-rule="evenodd" d="M102.841 98.167C101.994 94.8788 100.251 93.6462 98.7554 93.0502C97.9336 92.7226 96.8774 92.8124 96.0557 93.0907C92.8552 94.1721 91.4692 97.5731 92.9604 100.655C94.1393 103.09 96.9377 104.847 99.6703 104.224C101.994 103.694 103.307 99.977 102.841 98.167Z" fill="#FB49BF"/>
<path fill-rule="evenodd" clip-rule="evenodd" d="M99.9031 99.8445C100.011 99.592 99.8773 99.0549 99.7652 98.8926C99.4432 98.4315 98.803 98.4431 98.3599 98.7187C97.9761 98.9583 97.721 99.4027 97.6501 99.8445C97.5432 100.514 98.4308 100.876 98.9769 100.74C99.4368 100.624 99.7717 100.151 99.9031 99.8445Z" fill="#EB17A4"/>
<path fill-rule="evenodd" clip-rule="evenodd" d="M97.3204 97.5663C97.3204 96.945 96.5599 96.438 96.0497 96.4255C95.3048 96.4067 94.6899 97.2017 95.0451 97.8825C95.5349 98.8261 97.3204 98.5632 97.3204 97.5663Z" fill="#EB17A4"/>
<path fill-rule="evenodd" clip-rule="evenodd" d="M93.389 95.2331C93.6029 94.5388 93.4264 93.8212 92.9009 93.306C92.6986 93.1076 92.3701 92.9801 92.2246 92.7276C92.0004 92.3386 92.5234 91.6945 92.9201 91.9869C93.3826 92.3283 93.4071 92.8861 93.6106 93.373C93.7845 93.7865 94.1361 94.0712 94.5509 94.227" fill="#FB49BF"/>
<path fill-rule="evenodd" clip-rule="evenodd" d="M102.258 96.7195C102.321 96.865 102.385 97.0196 102.487 97.1433C102.862 97.6031 103.239 97.5504 103.703 97.2721C103.948 97.1253 104.159 96.9011 104.453 97.0402C105.025 97.312 105.33 98.1455 104.524 98.2962C104.024 98.3902 103.225 98.1055 102.831 98.5074" fill="#FB49BF"/>
<path fill-rule="evenodd" clip-rule="evenodd" d="M94.998 102.994C95.0868 103.067 95.1757 103.143 95.2389 103.241C95.2801 103.307 95.3122 103.375 95.329 103.451C95.4835 104.178 94.2225 104.497 94.2276 105.19C94.2302 105.676 94.9567 106.044 95.329 105.711C95.5943 105.472 95.7361 104.683 95.7734 104.362C95.7902 104.213 95.861 103.969 96.004 103.889C96.0993 103.836 96.2294 103.822 96.3364 103.815" fill="#FB49BF"/>
<path fill-rule="evenodd" clip-rule="evenodd" d="M27.2482 101.189C27.348 101.292 27.4615 101.405 27.5246 101.535C27.5682 101.624 27.5957 101.719 27.6037 101.819C27.6794 102.74 26.3868 102.561 26.1872 103.321C26.0174 103.966 26.9362 104.288 27.3812 103.943C27.9215 103.526 27.551 102.528 28.3138 102.288C28.4078 102.258 28.5019 102.248 28.6005 102.252L27.2482 101.189Z" fill="#EB17A4"/>
<path fill-rule="evenodd" clip-rule="evenodd" d="M36.9601 96.8693C37.0002 96.9886 37.0427 97.1033 37.1195 97.2054C37.4132 97.5977 37.9007 97.5346 38.3079 97.343C38.5648 97.2226 38.7977 97.0437 39.089 97.1893C39.6086 97.4497 39.5341 98.3249 38.9101 98.38C38.3641 98.427 37.2227 97.319 36.9773 98.7023L36.9601 96.8693Z" fill="#EB17A4"/>
<path fill-rule="evenodd" clip-rule="evenodd" d="M27.8744 90.8784C28.0121 90.8073 28.1199 90.7305 28.214 90.5917C28.5007 90.1684 28.5064 89.7842 28.2266 89.354C28.0017 89.0111 27.6381 88.7484 27.7333 88.2885C27.848 87.7322 28.6831 87.7803 28.8242 88.2896C28.9297 88.6693 28.7473 89.0627 28.8035 89.4458C28.8655 89.8587 29.2818 90.1374 29.6064 90.3428L27.8744 90.8784Z" fill="#EB17A4"/>
<path fill-rule="evenodd" clip-rule="evenodd" d="M31.4233 90.119C31.9429 89.9103 32.2882 89.3964 32.2721 88.8171C32.2595 88.3641 31.8833 87.7401 32.1953 87.326C32.708 86.6447 33.8046 87.1115 33.6761 87.9489C33.6107 88.3675 33.2402 88.6864 32.9902 89.0018C32.677 89.3987 32.474 90.0273 32.6438 90.5343C32.6495 90.5377 32.6564 90.5423 32.6621 90.5457C35.0606 92.1034 36.9646 94.7668 37.1046 97.6241C37.1688 98.9374 36.4668 100.262 35.4081 101.283C34.8564 102.31 35.727 102.872 36.2845 103.297C36.6767 103.595 37.1447 103.815 37.4602 104.206C38.1576 105.072 37.0736 106.759 35.9977 106.145C35.7087 105.981 35.4574 105.718 35.3313 105.407C35.1856 105.052 35.2143 104.635 35.1431 104.261C34.9768 103.389 34.4561 102.523 33.5603 102.569C32.5096 103.071 31.3637 103.275 30.3337 103.022C27.4317 102.307 25.5069 100.087 25.0126 97.4233C24.5698 96.953 23.9321 96.8865 23.2932 97.0827C22.8803 97.21 22.3916 97.5633 21.942 97.3304C21.193 96.9416 21.8216 95.8312 22.4455 95.7223C22.8092 95.6592 23.1475 95.9138 23.4882 95.9987C24.0089 96.1295 24.6318 95.8932 24.9117 95.4321C24.9449 95.0111 25.0114 94.5879 25.1147 94.1623C25.4118 92.9361 25.8855 91.7834 26.9155 91.0068C27.7448 90.3817 29.837 89.8816 31.4233 90.119Z" fill="#FB49BF"/>
<path fill-rule="evenodd" clip-rule="evenodd" d="M32.7035 97.5748C32.3961 97.4246 31.8925 97.4074 31.5358 97.6299C30.8063 98.083 30.8258 99.0855 31.5519 99.5282C32.216 99.9331 33.4181 99.3951 33.3757 98.5314C33.3642 98.2975 33.3642 97.8994 32.7035 97.5748Z" fill="#EB17A4"/>
<path fill-rule="evenodd" clip-rule="evenodd" d="M30.4254 93.8985C29.6501 93.4167 28.4961 94.0637 28.1646 94.5408C27.5774 95.3816 28.0866 96.5929 29.0742 96.8189C29.7028 96.9623 30.539 96.7994 30.9703 96.2844C31.639 95.4872 31.2008 94.3803 30.4254 93.8985Z" fill="#EB17A4"/>
<path fill-rule="evenodd" clip-rule="evenodd" d="M16.0348 40.1388C15.9288 39.9907 15.7902 39.7431 15.5972 39.6936C15.4633 39.6598 15.295 39.7424 15.1665 39.7728C14.9342 39.8287 14.7033 39.8181 14.4996 39.6758C14.2245 39.4815 14.3277 38.9717 14.6774 38.9458C14.9681 38.9239 15.4205 39.3541 15.6763 39.1409" fill="#EB17A4"/>
<path fill-rule="evenodd" clip-rule="evenodd" d="M21.0335 43.4939C21.2765 43.5766 21.4646 43.7423 21.4703 44.0131C21.4731 44.1385 21.4011 44.373 21.4969 44.4717C21.7142 44.6951 22.1027 44.5662 22.002 44.2241C21.9212 43.9573 21.5207 43.6645 21.7617 43.365" fill="#EB17A4"/>
<path fill-rule="evenodd" clip-rule="evenodd" d="M25.2114 33.8405C25.3523 33.8402 25.4995 33.8143 25.609 33.7199C25.8844 33.4769 25.8635 33.0505 26.3037 32.9676C26.7164 32.8914 26.8545 33.3995 26.5496 33.6266C26.2189 33.8734 25.6989 33.7307 25.6279 34.2607" fill="#EB17A4"/>
<path fill-rule="evenodd" clip-rule="evenodd" d="M16.8312 41.9093C15.6957 40.48 15.0752 37.7937 16.0962 36.0065C17.7542 33.1008 23.4542 31.778 25.9321 34.2842C27.9469 36.3231 27.418 39.3605 25.6377 41.379C23.7996 43.4625 19.0573 44.7136 16.8312 41.9093Z" fill="#FB49BF"/>
<path fill-rule="evenodd" clip-rule="evenodd" d="M22.0981 37.679C21.6502 36.7236 22.3054 35.7331 22.9845 35.6737C23.6645 35.6158 24.2596 35.9572 24.4755 36.6127C24.6522 37.1449 24.5765 37.7294 24.1287 38.107C23.5047 38.6295 22.444 38.4143 22.0981 37.679Z" fill="#EB17A4"/>
<path fill-rule="evenodd" clip-rule="evenodd" d="M18.3784 39.1385C18.0078 37.9672 18.736 37.0575 19.5116 37.2057C19.6719 37.2373 19.8274 37.3036 19.9717 37.3808C20.653 37.7432 21.2471 38.5143 21.3664 39.2821C21.4982 40.1358 20.412 40.6594 19.7024 40.4989C19.069 40.3556 18.5446 39.6633 18.3784 39.1385Z" fill="#EB17A4"/>
<path fill-rule="evenodd" clip-rule="evenodd" d="M18.0942 34.2115C17.3922 34.547 16.9426 33.8926 16.616 33.372C16.4626 33.1296 16.2011 32.7682 15.8551 32.8951C15.5475 33.0067 15.5895 33.6149 15.7465 33.8273C16.1114 34.3226 17.2277 34.1981 17.0104 35.0494" fill="#FB49BF"/>
<path fill-rule="evenodd" clip-rule="evenodd" d="M27.1823 37.3524C27.194 37.4566 27.2028 37.5624 27.2436 37.6588C27.5273 38.3247 28.3764 37.7348 28.8203 38.1542C29.1344 38.4519 28.7507 39.0787 28.3563 39.0345C27.8701 38.9765 27.5117 38.2567 26.9852 38.6584" fill="#FB49BF"/>
<path fill-rule="evenodd" clip-rule="evenodd" d="M18.4716 43.0971C18.5524 43.1612 18.6303 43.237 18.6855 43.3246C19.0253 43.8669 18.3189 44.4139 18.5629 44.9588C18.6538 45.1638 19.0186 45.3293 19.2078 45.1666C19.3314 45.0596 19.3621 44.8423 19.3633 44.6906C19.3643 44.1794 18.9571 43.7515 19.4705 43.3479" fill="#FB49BF"/>
<path fill-rule="evenodd" clip-rule="evenodd" d="M114.958 54.4921C115.147 54.0527 114.914 53.118 114.718 52.8355C114.158 52.033 113.044 52.0531 112.273 52.5329C111.605 52.9499 111.161 53.7232 111.037 54.4921C110.851 55.6579 112.396 56.2878 113.346 56.0502C114.147 55.8484 114.73 55.0257 114.958 54.4921Z" fill="#EB17A4"/>
</svg>
