<svg width="128" height="128" viewBox="0 0 128 128" fill="none" xmlns="http://www.w3.org/2000/svg">
<path fill-rule="evenodd" clip-rule="evenodd" d="M85.4738 20.2448H42.5253V102.529C42.5253 114.389 52.1395 124.003 63.9995 124.003C75.8596 124.003 85.4738 114.389 85.4738 102.529C85.4738 72.1407 85.4738 20.2448 85.4738 20.2448Z" fill="#BDDEFF"/>
<path fill-rule="evenodd" clip-rule="evenodd" d="M85.4738 12.4684H42.5253V102.529C42.5253 114.389 52.1395 124.003 63.9995 124.003C75.8596 124.003 85.4738 114.389 85.4738 102.529C85.4738 70.1243 85.4738 12.4684 85.4738 12.4684Z" fill="#BDDEFF"/>
<path fill-rule="evenodd" clip-rule="evenodd" d="M81.4735 45.0706C81.4735 42.4552 68.6861 40.3099 63.0791 45.0706C59.2298 48.3393 46.5255 47.9958 46.5255 45.0706V102.529C46.5255 112.179 54.3483 120.003 63.9995 120.003C73.6499 120.003 81.4735 112.179 81.4735 102.529V45.0706Z" fill="#F64545"/>
<path fill-rule="evenodd" clip-rule="evenodd" d="M46.5265 45.0706C46.5265 42.4552 57.2691 39.3553 64.0005 45.0706C69.6411 49.8591 81.4745 47.9958 81.4745 45.0706V102.529C81.4745 112.179 73.6517 120.003 64.0005 120.003C54.3501 120.003 46.5265 112.179 46.5265 102.529V45.0706Z" fill="#FF6161"/>
<path d="M85.474 12.4659H42.526V18.9409H85.474V12.4659Z" fill="#8CC1FF"/>
<path fill-rule="evenodd" clip-rule="evenodd" d="M92.746 9.3499C92.746 7.93159 92.1823 6.57106 91.1792 5.56709C90.1753 4.56411 88.8142 4.00037 87.3961 4.00037C76.4394 4.00037 51.5619 4.00037 40.6061 4.00037C39.1871 4.00037 37.8261 4.56411 36.823 5.56709C35.82 6.57106 35.2563 7.93159 35.2563 9.3499C35.2563 9.3509 35.2563 9.35091 35.2563 9.35091C35.2563 10.7702 35.82 12.1308 36.823 13.1348C37.8261 14.1377 39.1871 14.7015 40.6061 14.7015C51.5619 14.7015 76.4394 14.7015 87.3961 14.7015C88.8142 14.7015 90.1753 14.1377 91.1792 13.1348C92.1823 12.1308 92.746 10.7702 92.746 9.35091C92.746 9.35091 92.746 9.3509 92.746 9.3499Z" fill="#BDDEFF"/>
<path d="M52.3188 97.5825C53.5441 97.5825 54.5374 96.5891 54.5374 95.3638C54.5374 94.1385 53.5441 93.1453 52.3188 93.1453C51.0935 93.1453 50.1002 94.1385 50.1002 95.3638C50.1002 96.5891 51.0935 97.5825 52.3188 97.5825Z" fill="#F64545"/>
<path d="M57.7732 91.4484C59.561 91.4484 61.0103 89.9991 61.0103 88.2113C61.0103 86.4236 59.561 84.9743 57.7732 84.9743C55.9854 84.9743 54.5362 86.4236 54.5362 88.2113C54.5362 89.9991 55.9854 91.4484 57.7732 91.4484Z" fill="#F64545"/>
<path d="M58.7167 105.941C61.0252 105.941 62.8966 104.069 62.8966 101.761C62.8966 99.4523 61.0252 97.5809 58.7167 97.5809C56.4082 97.5809 54.5368 99.4523 54.5368 101.761C54.5368 104.069 56.4082 105.941 58.7167 105.941Z" fill="#F64545"/>
<path d="M51.5127 83.7475C52.2933 83.7475 52.926 83.1147 52.926 82.3342C52.926 81.5537 52.2933 80.921 51.5127 80.921C50.7322 80.921 50.0995 81.5537 50.0995 82.3342C50.0995 83.1147 50.7322 83.7475 51.5127 83.7475Z" fill="#F64545"/>
<path fill-rule="evenodd" clip-rule="evenodd" d="M20.665 31.0864C19.843 31.1324 19.318 30.6784 19.172 29.8494C19.072 29.2864 19.207 28.7004 18.67 28.3274C17.914 27.8034 17.062 28.7594 17.503 29.5034C17.903 30.1764 18.745 30.2874 18.851 31.1994C18.866 31.3274 18.884 31.4754 18.846 31.6004L20.665 31.0864ZM29.65 36.8904C30.017 38.0534 31.192 38.3674 32.088 38.0844C32.544 37.9414 32.994 37.6004 33.485 37.6494C34.482 37.7474 35.115 39.5004 34.04 39.9844C33.22 40.3544 32.698 39.7014 31.963 39.3464C30.99 38.8754 30.161 39.0414 29.443 39.8844L29.65 36.8904ZM20.208 45.5304C19.572 45.6064 18.755 45.7814 18.802 46.6094C18.83 47.0864 19.243 47.8414 18.787 48.2264C18.066 48.8374 16.945 48.2784 17.262 47.3104C17.512 46.5474 18.511 45.9534 18.134 45.0774L20.208 45.5304ZM93.476 45.7274C93.565 45.5494 93.645 45.3734 93.673 45.1734C93.78 44.4064 93.163 43.9334 92.494 43.6944C92.071 43.5434 91.61 43.4854 91.446 42.9984C91.153 42.1254 92.211 41.2264 92.972 41.8604C93.638 42.4164 93.683 44.9294 95.5 43.6524L93.476 45.7274ZM112.848 47.7354C112.779 47.5194 112.696 47.2814 112.697 47.0524C112.698 46.8954 112.725 46.7414 112.783 46.5954C113.32 45.2354 115.027 46.3934 115.843 45.4554C116.534 44.6594 115.456 43.5604 114.584 43.7384C113.526 43.9534 113.354 45.6264 112.105 45.4334C111.951 45.4094 111.81 45.3594 111.674 45.2844L112.848 47.7354ZM102.903 61.1254C102.657 61.1294 102.452 61.1624 102.22 61.2944C101.517 61.6944 101.241 62.2344 101.338 63.0404C101.415 63.6834 101.749 64.3104 101.292 64.8964C100.739 65.6044 99.589 64.9524 99.746 64.1304C99.862 63.5204 100.395 63.0894 100.582 62.5074C100.784 61.8784 100.39 61.1914 100.072 60.6724L102.903 61.1254Z" fill="#EB17A4"/>
<path fill-rule="evenodd" clip-rule="evenodd" d="M27.523 32.3234C27.534 31.6924 27.688 31.1004 28.152 30.6164C28.63 30.1174 29.544 29.7924 29.671 28.9794C29.703 28.7744 29.701 28.5644 29.66 28.3634C29.434 27.2374 28.516 27.2334 27.899 28.0974C27.285 28.9584 27.817 30.8704 25.74 30.9464C24.531 30.2744 22.996 30.4994 21.62 30.5794C19.973 30.6744 15.573 32.5534 15.153 34.9804C15.02 35.7464 14.883 36.2254 14.831 37.2984C14.473 37.6964 13.968 37.9954 13.42 37.9134C12.74 37.8124 12.018 37.2884 11.331 37.6344C10.723 37.9404 10.804 38.6694 11.126 39.1574C11.26 39.3594 11.475 39.5914 11.736 39.5974C12.689 39.6184 13.75 38.1244 14.674 38.9764C14.725 39.0244 14.776 39.0744 14.823 39.1284C14.983 42.8354 16.016 44.4944 19.045 45.4624C20.421 45.9034 21.62 46.1854 23.198 45.8274C23.955 46.7664 22.865 48.2244 23.177 49.2954C23.468 50.2934 24.316 50.4704 25.132 49.9414C25.36 49.7934 25.566 49.5774 25.668 49.3224C26.247 47.8854 24.223 46.7504 25.291 45.2944C25.336 45.2314 25.386 45.1744 25.438 45.1214C26.92 44.5264 27.965 43.5174 28.885 42.3834C31.37 39.3154 29.66 34.4644 27.523 32.3234ZM108.421 59.7864C108.139 60.5044 109.24 61.3944 109.616 61.7674C110.073 62.2214 110.88 62.6154 110.89 63.3714C110.905 64.6294 109.003 64.5834 108.421 63.8384C108.082 63.4044 108.179 62.7794 108.052 62.2724C107.967 61.9314 107.623 60.9554 107.362 60.7364C107.182 60.5854 106.693 60.8534 106.484 60.9544C101.319 63.4344 94.652 60.0934 91.655 55.2994C91.326 54.7744 90.271 55.0214 89.553 55.6974C88.999 56.2184 88.089 56.2184 87.815 56.1754C86.558 55.9794 86.403 54.2074 87.596 53.7894C87.785 53.7234 88.487 53.5994 89.133 53.8434C90.072 54.1984 91.306 54.4424 91.262 53.8434C91.162 52.4684 90.907 51.1624 91.262 49.6774C93.034 42.2824 99.698 41.3874 103.368 41.0474C105.091 40.8884 106.986 41.5424 107.801 41.2964C108.369 41.1254 108.169 40.1064 108.256 39.5734C108.374 38.8474 108.333 38.0774 108.626 37.3884C109.275 35.8614 112.258 36.1034 112.206 37.9494C112.193 38.4454 112.022 38.9614 111.703 39.3464C111.338 39.7864 110.768 40.0414 110.326 40.3984C109.856 40.7784 109.105 41.3594 109.257 41.9324C109.55 43.0424 111.492 43.9444 112.625 46.0354C113.479 47.6104 113.692 50.2204 113.413 52.0724C113.142 53.8744 112.194 55.9854 110.89 57.5124C110.018 58.5334 108.53 59.5074 108.421 59.7864Z" fill="#FB49BF"/>
<path fill-rule="evenodd" clip-rule="evenodd" d="M18.0839 35.7245C17.2649 36.7885 18.0529 37.6865 18.6129 38.0745C19.2279 38.4995 20.1379 38.1225 20.4799 37.5265C20.6229 37.2765 20.731 36.9905 20.765 36.7025C20.787 36.5125 20.765 36.3195 20.71 36.1365C20.36 34.9615 18.7359 34.8775 18.0839 35.7245ZM22.276 39.3685C22.082 39.8315 22.075 40.6295 22.154 40.8705C22.369 41.5255 22.8239 41.9975 23.5189 42.1065C23.7749 42.1465 24.032 42.1445 24.291 42.1305C24.63 42.1135 25.0099 42.0855 25.3259 41.9475C25.9769 41.6615 26.4029 40.9805 26.5869 40.3135C26.8679 39.2985 26.407 38.2875 25.557 37.7165C25.214 37.4855 24.75 37.3245 24.332 37.3915C23.3 37.5575 22.669 38.4255 22.276 39.3685ZM105.675 47.5575C105.154 48.0365 104.742 48.9965 104.902 49.8525C105.228 51.6005 107.179 52.3185 108.579 51.2495C109.862 50.2705 109.727 47.5455 108.027 46.9785C107.566 46.8245 106.797 46.5245 105.675 47.5575ZM96.862 49.1915C95.349 50.3255 95.73 53.0395 96.402 54.0405C97.585 55.8055 100.306 55.7325 101.486 53.9955C102.236 52.8915 102.549 51.1525 101.88 49.9335C100.842 48.0425 98.376 48.0565 96.862 49.1915Z" fill="#EB17A4"/>
<path fill-rule="evenodd" clip-rule="evenodd" d="M10.2706 64.9363C11.0177 64.8681 12.6671 64.9917 13.4622 65.7868C15.2209 67.5455 14.3022 70.5425 12.0405 71.3466C9.7959 72.1432 6.6956 70.4646 7.02353 67.8726C7.17701 66.6575 8.97084 65.0561 10.2706 64.9363Z" fill="#EB17A4"/>
<path fill-rule="evenodd" clip-rule="evenodd" d="M115.585 81.1197C116.829 80.3243 118.248 80.1111 119.532 80.8565C121.063 81.7429 121.589 84.1632 120.177 85.3812C118.196 87.0893 113.901 85.6022 114.312 83.4138C114.438 82.7388 114.657 81.7125 115.585 81.1197Z" fill="#EB17A4"/>
<path fill-rule="evenodd" clip-rule="evenodd" d="M54.9531 33.4896C56.1975 32.6942 57.616 32.4809 58.9005 33.2264C60.4316 34.1128 60.9569 36.5331 59.5452 37.7511C57.5642 39.4592 53.2694 37.9722 53.6803 35.7837C53.8065 35.1087 54.0247 34.0824 54.9531 33.4896Z" fill="#EB17A4"/>
<path fill-rule="evenodd" clip-rule="evenodd" d="M42.3746 11.1988C43.0906 10.781 44.6723 10.8497 45.5701 11.5602C46.9789 12.6763 46.827 14.7933 45.1178 15.5138C43.7246 16.1013 42.0565 15.2422 41.274 14.0673C40.7442 13.2693 41.6586 11.6167 42.3746 11.1988Z" fill="#FB49BF"/>
<path fill-rule="evenodd" clip-rule="evenodd" d="M82.5498 20.2792C82.5669 19.6202 82.8464 18.193 83.6236 17.5817C85.3405 16.2295 87.8608 17.3431 88.3278 19.3997C88.7903 21.4416 87.0029 23.9732 84.7746 23.4176C83.7304 23.1574 82.518 21.4257 82.5498 20.2792Z" fill="#FB49BF"/>
</svg>
