<svg width="128" height="128" viewBox="0 0 128 128" fill="none" xmlns="http://www.w3.org/2000/svg">
<path fill-rule="evenodd" clip-rule="evenodd" d="M36.739 35.06C42.597 35.134 47.323 39.906 47.324 45.782C47.324 45.782 47.324 90.297 47.324 105.495C47.324 110.403 45.374 115.11 41.904 118.58C38.433 122.051 33.726 124 28.818 124C28.185 124 27.55 124 26.917 124C16.697 124 8.41199 115.715 8.41199 105.495V79.53C8.41199 63.53 19.925 47.53 26.375 39.809C28.916 36.796 32.657 35.058 36.599 35.059L36.739 35.06ZM80.6761 105.495C80.6761 90.286 80.6761 47.616 80.6761 45.782C80.6771 39.86 85.477 35.059 91.399 35.059C91.4 35.059 91.4011 35.059 91.4011 35.059C95.3431 35.058 99.0841 36.796 101.625 39.809C108.075 47.53 119.588 63.53 119.588 79.53V105.495C119.588 115.715 111.303 124 101.083 124C100.45 124 99.8151 124 99.1821 124C88.9621 124 80.6771 115.715 80.6761 105.495Z" fill="#FAC7A2"/>
<path fill-rule="evenodd" clip-rule="evenodd" d="M43.167 68.36C42.379 68.619 41.514 68.483 40.843 67.997C40.171 67.51 39.773 66.731 39.773 65.901C39.765 65.463 39.765 65.014 39.765 64.572C39.765 62.214 41.091 60.056 43.196 58.991C48.591 56.243 58.441 50.175 58.441 42.552V7C58.441 5.343 59.784 4 61.441 4C63.028 4 64.9721 4 66.5591 4C68.2161 4 69.5591 5.343 69.5591 7C69.5591 14.22 69.5591 32.693 69.5591 42.552C69.5591 50.175 79.4091 56.243 84.8021 58.995C86.9051 60.059 88.2311 62.215 88.2311 64.572C88.2351 65.014 88.235 65.463 88.235 65.901C88.235 66.733 87.8361 67.515 87.162 68.004C86.488 68.492 85.6211 68.628 84.8301 68.369C79.5241 66.552 69.329 63.3319 64 63.3319C58.671 63.3319 48.476 66.552 43.167 68.36Z" fill="#FF6161"/>
<path fill-rule="evenodd" clip-rule="evenodd" d="M39.893 63.314C40.057 63.838 40.387 64.303 40.843 64.634C41.514 65.12 42.379 65.256 43.167 64.997C48.476 63.189 58.671 59.969 64 59.969C69.329 59.969 79.5241 63.189 84.8301 65.006C85.6211 65.265 86.488 65.129 87.162 64.641C87.6131 64.314 87.941 63.856 88.108 63.339C88.189 63.741 88.2311 64.153 88.2311 64.572C88.2351 65.014 88.235 65.463 88.235 65.901C88.235 66.733 87.8361 67.5151 87.162 68.0041C86.488 68.4921 85.6211 68.6281 84.8301 68.3691C79.5241 66.552 69.329 63.332 64 63.332C58.671 63.332 48.476 66.552 43.167 68.36C42.379 68.619 41.514 68.483 40.843 67.997C40.171 67.51 39.773 66.731 39.773 65.901C39.765 65.463 39.765 65.014 39.765 64.572C39.765 64.144 39.808 63.723 39.893 63.314Z" fill="#F64545"/>
<path fill-rule="evenodd" clip-rule="evenodd" d="M86.6603 92.7427C86.1961 92.2947 84.9874 92.0545 84.1783 92.4263C82.9066 93.0106 82.631 94.6388 83.7896 95.4987C84.7349 96.2 86.1545 95.859 86.9621 95.1146C87.511 94.6095 87.1245 93.1908 86.6603 92.7427Z" fill="#EB17A4"/>
<path fill-rule="evenodd" clip-rule="evenodd" d="M22.999 66.4631C23.086 66.5531 23.185 66.6511 23.24 66.7651C23.278 66.8421 23.302 66.9251 23.309 67.0121C23.375 67.8151 22.248 67.6591 22.074 68.3221C21.9261 68.8841 22.727 69.1651 23.115 68.8641C23.586 68.5001 23.263 67.6301 23.928 67.4211C24.01 67.3951 24.092 67.3861 24.178 67.3901L22.999 66.4631Z" fill="#EB17A4"/>
<path fill-rule="evenodd" clip-rule="evenodd" d="M31.466 62.6971C31.501 62.8011 31.538 62.9011 31.605 62.9901C31.861 63.3321 32.286 63.2771 32.641 63.1101C32.865 63.0051 33.068 62.8491 33.322 62.9761C33.775 63.2031 33.71 63.9661 33.166 64.0141C32.69 64.0551 31.695 63.0891 31.481 64.2951L31.466 62.6971Z" fill="#EB17A4"/>
<path fill-rule="evenodd" clip-rule="evenodd" d="M23.545 57.4741C23.665 57.4121 23.759 57.3451 23.841 57.2241C24.091 56.8551 24.096 56.5201 23.852 56.1451C23.656 55.8461 23.339 55.6171 23.422 55.2161C23.522 54.7311 24.25 54.7731 24.373 55.2171C24.465 55.5481 24.3061 55.8911 24.3551 56.2251C24.4091 56.5851 24.772 56.8281 25.0551 57.0071L23.545 57.4741Z" fill="#EB17A4"/>
<path fill-rule="evenodd" clip-rule="evenodd" d="M104.919 82.3281C104.252 82.3671 103.87 82.781 103.828 83.464C103.799 83.927 103.962 84.387 103.562 84.737C103.001 85.229 102.226 84.537 102.514 83.896C102.774 83.316 103.444 83.149 103.445 82.404C103.445 82.299 103.447 82.1781 103.405 82.0811L104.919 82.3281Z" fill="#EB17A4"/>
<path fill-rule="evenodd" clip-rule="evenodd" d="M112.623 77.17C112.813 76.199 113.731 75.838 114.48 75.983C114.861 76.057 115.256 76.291 115.647 76.207C116.442 76.036 116.792 74.564 115.88 74.271C115.185 74.049 114.824 74.623 114.264 74.977C113.521 75.446 112.838 75.389 112.182 74.774L112.623 77.17Z" fill="#EB17A4"/>
<path fill-rule="evenodd" clip-rule="evenodd" d="M103.128 71.4121C102.628 71.5591 101.963 71.6901 101.733 71.057C101.601 70.692 101.667 69.997 101.204 69.856C100.47 69.631 99.813 70.407 100.36 71.028C100.791 71.5161 101.726 71.6401 101.725 72.4141L103.128 71.4121Z" fill="#EB17A4"/>
<path fill-rule="evenodd" clip-rule="evenodd" d="M10.155 78.915C9.50999 78.538 8.08199 78.6 7.27299 79.241C6.00098 80.249 6.13799 82.158 7.68 82.808C8.93701 83.338 10.442 82.564 11.148 81.503C11.627 80.784 10.801 79.292 10.155 78.915Z" fill="#EB17A4"/>
<path fill-rule="evenodd" clip-rule="evenodd" d="M45.303 36.2772C44.031 35.4642 42.581 35.2462 41.267 36.0072C39.702 36.9142 39.166 39.3882 40.609 40.6322C42.634 42.3782 47.024 40.8592 46.604 38.6222C46.474 37.9322 46.251 36.8832 45.303 36.2772Z" fill="#EB17A4"/>
<path fill-rule="evenodd" clip-rule="evenodd" d="M21.3388 107.327C21.3207 106.669 21.0419 105.246 20.268 104.637C18.5547 103.288 16.0414 104.399 15.5769 106.451C15.1157 108.487 16.8981 111.01 19.1201 110.457C20.1615 110.198 21.3694 108.47 21.3388 107.327Z" fill="#FB49BF"/>
<path fill-rule="evenodd" clip-rule="evenodd" d="M45.9534 114.3C46.1569 113.702 46.046 112.575 45.3982 111.874C44.3123 110.698 42.3575 110.914 41.7302 112.487C41.0831 114.109 42.641 115.399 44.1736 115.463C44.6623 115.484 45.749 114.899 45.9534 114.3Z" fill="#EB17A4"/>
<path fill-rule="evenodd" clip-rule="evenodd" d="M26.6391 56.8121C27.0921 56.6301 27.3931 56.1821 27.3791 55.6771C27.3681 55.2821 27.0401 54.7381 27.3121 54.3771C27.7591 53.7831 28.7151 54.1901 28.6031 54.9201C28.5461 55.2851 28.2231 55.5631 28.0051 55.8381C27.7321 56.1841 27.5551 56.7321 27.7031 57.1741C27.7081 57.1771 27.7141 57.1811 27.7191 57.1841C29.8101 58.5421 31.4701 60.8641 31.5921 63.3551C31.6481 64.5001 31.0361 65.6551 30.1131 66.5451C29.6321 67.4401 30.3911 67.9301 30.8771 68.3011C31.2191 68.5611 31.6271 68.7521 31.9021 69.0931C32.5101 69.8481 31.5651 71.3191 30.6271 70.7841C30.3751 70.6411 30.1561 70.4111 30.0461 70.1401C29.9191 69.8311 29.9441 69.4671 29.8821 69.1411C29.7371 68.3811 29.2831 67.6261 28.5021 67.6661C27.5861 68.1041 26.5871 68.2821 25.6891 68.0611C23.1591 67.4381 21.481 65.5021 21.05 63.1801C20.664 62.7701 20.108 62.7121 19.551 62.8831C19.191 62.9941 18.765 63.3021 18.373 63.0991C17.72 62.7601 18.2681 61.7921 18.8121 61.6971C19.1291 61.6421 19.4241 61.8641 19.7211 61.9381C20.1751 62.0521 20.7181 61.8461 20.9621 61.4441C20.9911 61.0771 21.0491 60.7081 21.1391 60.3371C21.3981 59.2681 21.8111 58.2631 22.7091 57.5861C23.4321 57.0411 25.2561 56.6051 26.6391 56.8121Z" fill="#FB49BF"/>
<path fill-rule="evenodd" clip-rule="evenodd" d="M110.793 71.657C110.801 71.145 110.926 70.663 111.303 70.271C111.691 69.866 112.433 69.602 112.536 68.942C112.562 68.775 112.56 68.605 112.527 68.441C112.344 67.528 111.598 67.524 111.097 68.226C110.599 68.925 111.031 70.477 109.345 70.539C108.364 69.993 107.117 70.175 106 70.24C104.663 70.318 101.091 71.843 100.75 73.814C100.642 74.436 100.53 74.825 100.488 75.696C100.197 76.019 99.7869 76.261 99.3429 76.195C98.7909 76.113 98.2039 75.687 97.6459 75.968C97.1529 76.217 97.219 76.809 97.48 77.205C97.589 77.369 97.7629 77.557 97.9759 77.562C98.7489 77.579 99.6099 76.366 100.361 77.058C100.402 77.096 100.444 77.138 100.482 77.181C100.612 80.191 101.451 81.537 103.91 82.324C105.026 82.681 106 82.911 107.281 82.62C107.895 83.383 107.011 84.566 107.264 85.436C107.5 86.246 108.188 86.389 108.851 85.96C109.036 85.84 109.203 85.664 109.287 85.458C109.757 84.291 108.113 83.369 108.98 82.187C109.017 82.136 109.057 82.09 109.1 82.047C110.303 81.563 111.152 80.744 111.898 79.823C113.916 77.333 112.527 73.395 110.793 71.657Z" fill="#FB49BF"/>
<path fill-rule="evenodd" clip-rule="evenodd" d="M89.751 44.1237C89.0906 44.0623 87.6337 44.1724 86.9319 44.8742C85.3776 46.4285 86.1895 49.0762 88.1876 49.7861C90.1704 50.4897 92.9092 49.0067 92.6196 46.7172C92.4843 45.6437 90.8993 44.2283 89.751 44.1237Z" fill="#FB49BF"/>
<path fill-rule="evenodd" clip-rule="evenodd" d="M27.755 63.3121C27.487 63.1811 27.048 63.1661 26.737 63.3601C26.1009 63.7551 26.118 64.6291 26.751 65.0151C27.33 65.3681 28.378 64.8991 28.341 64.1461C28.331 63.9421 28.331 63.5951 27.755 63.3121Z" fill="#EB17A4"/>
<path fill-rule="evenodd" clip-rule="evenodd" d="M25.769 60.1071C25.093 59.6871 24.087 60.2511 23.798 60.6671C23.286 61.4001 23.73 62.4561 24.591 62.6531C25.139 62.7781 25.8679 62.6361 26.2439 62.1871C26.8269 61.4921 26.445 60.5271 25.769 60.1071Z" fill="#EB17A4"/>
<path fill-rule="evenodd" clip-rule="evenodd" d="M106.433 76.018C106.453 75.648 106.704 75.116 106.833 74.982C107.185 74.615 107.639 74.448 108.135 74.598C108.318 74.653 108.488 74.737 108.655 74.828C108.875 74.949 109.119 75.088 109.284 75.282C109.624 75.68 109.69 76.268 109.599 76.77C109.46 77.534 108.831 78.058 108.084 78.165C107.782 78.209 107.422 78.167 107.166 77.988C106.534 77.548 106.392 76.77 106.433 76.018Z" fill="#EB17A4"/>
<path fill-rule="evenodd" clip-rule="evenodd" d="M29.737 92.339C29.695 92.242 29.649 92.136 29.585 92.052C29.513 91.958 29.406 91.92 29.292 91.905C29.107 91.88 28.909 91.909 28.74 91.991C28.572 92.072 28.4329 92.198 28.2339 92.18C27.8149 92.142 27.6059 91.53 28.0249 91.332C28.2569 91.221 28.5969 91.4881 28.809 91.5531C29.16 91.66 29.453 91.571 29.766 91.401" fill="#EB17A4"/>
<path fill-rule="evenodd" clip-rule="evenodd" d="M37.3539 94.653C37.5519 94.448 37.8129 94.545 38.0309 94.676C38.1389 94.742 38.2579 94.834 38.3929 94.811C38.5159 94.789 38.6469 94.699 38.6819 94.573C38.7209 94.432 38.647 94.285 38.491 94.291C38.165 94.305 37.84 94.509 37.541 94.272" fill="#EB17A4"/>
<path fill-rule="evenodd" clip-rule="evenodd" d="M36.45 89.598C36.424 89.381 36.429 89.216 36.621 89.086C36.736 89.008 36.942 88.973 36.984 88.815C37.053 88.552 36.714 88.42 36.546 88.583C36.333 88.791 36.371 89.101 36.012 89.132" fill="#EB17A4"/>
<path fill-rule="evenodd" clip-rule="evenodd" d="M102.484 77.0961C102.281 76.127 103.091 75.783 103.587 75.705C104.131 75.619 104.615 76.161 104.651 76.6661C104.666 76.8781 104.647 77.1021 104.577 77.3041C104.531 77.4381 104.454 77.5591 104.36 77.6631C103.751 78.3311 102.646 77.8671 102.484 77.0961Z" fill="#EB17A4"/>
<path fill-rule="evenodd" clip-rule="evenodd" d="M37.764 92.1366C37.1065 89.584 35.7532 88.6271 34.5921 88.1644C33.9542 87.9101 33.1342 87.9798 32.4963 88.1958C30.0117 89.0354 28.9357 91.6756 30.0934 94.0683C31.0086 95.9583 33.181 97.3227 35.3024 96.8387C37.1065 96.427 38.1255 93.5418 37.764 92.1366Z" fill="#FB49BF"/>
<path fill-rule="evenodd" clip-rule="evenodd" d="M117.937 104.153C116.163 104.791 115.572 105.817 115.319 106.674C115.181 107.145 115.285 107.724 115.481 108.164C116.243 109.877 118.194 110.468 119.82 109.485C121.105 108.708 121.932 107.071 121.447 105.593C121.034 104.337 118.913 103.803 117.937 104.153Z" fill="#FB49BF"/>
<path fill-rule="evenodd" clip-rule="evenodd" d="M35.483 93.438C35.567 93.242 35.463 92.8251 35.376 92.6991C35.126 92.3411 34.629 92.3501 34.285 92.5641C33.987 92.7501 33.789 93.095 33.734 93.438C33.651 93.958 34.34 94.239 34.764 94.133C35.121 94.043 35.381 93.676 35.483 93.438Z" fill="#EB17A4"/>
<path fill-rule="evenodd" clip-rule="evenodd" d="M113.722 57.1642C113.911 56.7248 113.678 55.7901 113.483 55.5076C112.922 54.7051 111.808 54.7252 111.037 55.205C110.369 55.6219 109.925 56.3953 109.801 57.1642C109.615 58.3299 111.16 58.9599 112.111 58.7223C112.911 58.5205 113.494 57.6978 113.722 57.1642Z" fill="#EB17A4"/>
<path fill-rule="evenodd" clip-rule="evenodd" d="M33.4801 91.6701C33.4801 91.1878 32.8897 90.7942 32.4936 90.7845C31.9154 90.7699 31.438 91.3871 31.7137 91.9156C32.094 92.6481 33.4801 92.444 33.4801 91.6701Z" fill="#EB17A4"/>
<path fill-rule="evenodd" clip-rule="evenodd" d="M30.426 89.8581C30.592 89.3191 30.455 88.762 30.047 88.362C29.89 88.208 29.635 88.1091 29.522 87.9131C29.348 87.6111 29.7539 87.111 30.0619 87.338C30.4209 87.603 30.44 88.036 30.598 88.414C30.733 88.735 31.0059 88.9561 31.3279 89.0771" fill="#FB49BF"/>
<path fill-rule="evenodd" clip-rule="evenodd" d="M37.311 91.012C37.36 91.125 37.41 91.245 37.4889 91.341C37.7799 91.698 38.073 91.657 38.433 91.441C38.623 91.327 38.7869 91.153 39.0149 91.261C39.4589 91.472 39.6959 92.119 39.0699 92.236C38.6819 92.309 38.062 92.088 37.756 92.4" fill="#FB49BF"/>
<path fill-rule="evenodd" clip-rule="evenodd" d="M31.675 95.883C31.744 95.94 31.813 95.999 31.862 96.075C31.894 96.126 31.919 96.179 31.932 96.238C32.052 96.802 31.073 97.05 31.077 97.588C31.079 97.965 31.643 98.251 31.932 97.992C32.138 97.807 32.248 97.194 32.277 96.945C32.29 96.829 32.345 96.64 32.456 96.578C32.53 96.537 32.631 96.526 32.7141 96.52" fill="#FB49BF"/>
<path fill-rule="evenodd" clip-rule="evenodd" d="M90.883 115.288C90.8075 115.182 90.7088 115.006 90.5713 114.971C90.4759 114.947 90.356 115.005 90.2645 115.027C90.099 115.067 89.9346 115.059 89.7894 114.958C89.5935 114.82 89.667 114.456 89.9161 114.438C90.1232 114.422 90.4454 114.729 90.6276 114.577" fill="#EB17A4"/>
<path fill-rule="evenodd" clip-rule="evenodd" d="M94.4436 117.678C94.6166 117.736 94.7507 117.855 94.7547 118.047C94.7567 118.137 94.7054 118.304 94.7736 118.374C94.9285 118.533 95.2052 118.441 95.1334 118.198C95.0759 118.008 94.7906 117.799 94.9623 117.586" fill="#EB17A4"/>
<path fill-rule="evenodd" clip-rule="evenodd" d="M97.4196 110.801C97.52 110.801 97.6248 110.783 97.7028 110.716C97.8989 110.542 97.884 110.239 98.1976 110.18C98.4915 110.125 98.5899 110.487 98.3727 110.649C98.1372 110.825 97.7669 110.723 97.7162 111.101" fill="#EB17A4"/>
<path fill-rule="evenodd" clip-rule="evenodd" d="M91.4504 116.549C90.6416 115.531 90.1997 113.617 90.9269 112.344C92.1079 110.275 96.168 109.332 97.933 111.117C99.3681 112.57 98.9914 114.733 97.7233 116.171C96.414 117.655 93.0361 118.546 91.4504 116.549Z" fill="#FB49BF"/>
<path fill-rule="evenodd" clip-rule="evenodd" d="M95.202 113.535C94.8829 112.855 95.3496 112.149 95.8334 112.107C96.3177 112.066 96.7416 112.309 96.8954 112.776C97.0212 113.155 96.9673 113.571 96.6483 113.84C96.2039 114.212 95.4484 114.059 95.202 113.535Z" fill="#EB17A4"/>
<path fill-rule="evenodd" clip-rule="evenodd" d="M92.5525 114.575C92.2885 113.741 92.8072 113.093 93.3596 113.198C93.4738 113.221 93.5846 113.268 93.6874 113.323C94.1727 113.581 94.5959 114.13 94.6809 114.677C94.7747 115.285 94.001 115.658 93.4956 115.544C93.0444 115.442 92.6708 114.949 92.5525 114.575Z" fill="#EB17A4"/>
<path fill-rule="evenodd" clip-rule="evenodd" d="M92.3498 111.066C91.8498 111.305 91.5296 110.838 91.297 110.468C91.1877 110.295 91.0014 110.038 90.755 110.128C90.5359 110.207 90.5658 110.641 90.6777 110.792C90.9375 111.145 91.7327 111.056 91.5779 111.662" fill="#FB49BF"/>
<path fill-rule="evenodd" clip-rule="evenodd" d="M98.8235 113.303C98.8318 113.377 98.838 113.452 98.8671 113.521C99.0692 113.995 99.674 113.575 99.9901 113.874C100.214 114.086 99.9406 114.532 99.6597 114.501C99.3133 114.46 99.0581 113.947 98.683 114.233" fill="#FB49BF"/>
<path fill-rule="evenodd" clip-rule="evenodd" d="M92.6187 117.395C92.6762 117.44 92.7317 117.494 92.7711 117.557C93.0131 117.943 92.5099 118.333 92.6837 118.721C92.7485 118.867 93.0084 118.985 93.1431 118.869C93.2312 118.793 93.2531 118.638 93.2539 118.53C93.2546 118.166 92.9645 117.861 93.3303 117.573" fill="#FB49BF"/>
</svg>
