<svg width="128" height="128" viewBox="0 0 128 128" fill="none" xmlns="http://www.w3.org/2000/svg">
<path d="M64.0003 114C91.6145 114 114 91.6143 114 64.0001C114 36.3859 91.6145 14.0001 64.0003 14.0001C36.3861 14.0001 14.0004 36.3859 14.0004 64.0001C14.0004 91.6143 36.3861 114 64.0003 114Z" fill="#56AAFF"/>
<path fill-rule="evenodd" clip-rule="evenodd" d="M95.277 25C106.69 34.168 114 48.237 114 64C114 91.6 91.596 114 64 114C48.237 114 34.168 106.69 25 95.28C33.566 102.16 44.444 106.28 56.277 106.28C83.873 106.28 106.277 83.873 106.277 56.277C106.277 44.444 102.158 33.566 95.277 25Z" fill="#2691FC"/>
<path fill-rule="evenodd" clip-rule="evenodd" d="M29.5195 27.8051C29.947 28.2184 30.3554 28.6526 30.7395 29.1126C31.2987 29.7809 31.9062 31.5059 33.0112 31.2859C36.0679 30.6767 37.3337 25.5043 40.4295 25.4409C41.6412 25.4168 43.0028 26.4934 44.0678 26.9284C45.0162 27.3159 46.0512 27.3559 47.0395 27.5926C48.5203 27.9476 50.3337 30.1109 48.667 31.4001C46.772 32.8668 42.0354 31.3867 40.627 33.5359C40.0054 34.4842 41.3679 36.8476 41.6387 37.6759C41.987 38.7409 40.912 39.9409 40.192 40.5717C36.7112 43.6217 31.4887 43.0267 27.5895 45.1442C24.6437 46.7434 23.8704 49.655 22.0254 52.1775C21.1329 53.3975 19.2479 54.4617 18.9629 56.0176C18.3629 59.2951 21.1104 62.2334 23.8854 63.4834C26.5229 64.6717 29.5404 64.4542 32.3537 64.7792C35.5637 65.1509 38.4854 66.1859 41.1829 67.9884C42.4854 68.8584 43.527 70.1184 44.027 71.6142C44.657 73.5025 44.437 75.3 46.2804 76.4567C49.1837 78.2775 55.6112 76.5558 55.7445 81.1242C55.7645 81.825 55.7028 82.51 55.5937 83.2016C55.2937 85.1166 54.2087 86.5666 53.4903 88.3083C52.6887 90.25 52.377 92.3333 51.0095 94.0083C49.6687 95.65 47.7312 96.575 46.4937 98.325C44.2345 101.525 43.217 105.217 41.2812 108.542C38.2587 107 35.4137 105.15 32.787 103.05C33.1095 100.917 33.5562 98.7916 33.7595 96.6C34.007 93.925 33.637 90.925 31.842 88.8167C29.272 85.8 24.5229 83.8125 23.3354 79.7675C22.1087 75.5884 27.2229 71.95 25.2004 68.1117C24.2479 66.3042 22.0729 65.4317 20.3787 64.4825C18.2604 63.2958 16.3462 61.6275 14.1104 60.6575C14.9637 47.7626 20.7137 36.1976 29.5195 27.8051ZM96.2678 102.183C92.842 98.0083 91.1194 91.55 91.0386 87.0083C90.9628 82.7233 91.8353 77.9833 88.967 74.3184C85.1203 69.4034 77.717 72.2175 72.7595 72.0992C69.3711 72.0183 65.832 70.3408 64.857 66.7917C64.4312 65.2425 65.077 63.7475 65.1387 62.1908C65.2087 60.4233 64.8953 58.5959 65.6745 56.9259C66.6295 54.8767 68.9328 53.4626 70.5736 52.0184C75.0195 48.1026 78.027 45.1517 84.4036 45.6784C87.6836 45.9492 90.3161 48.0692 93.5078 48.2909C95.7978 48.45 97.8686 47.0284 100.189 47.1409C104.369 47.3434 106.817 47.3851 110.634 45.9417C112.808 51.5434 114 57.6334 114 64C114 79.3017 107.112 93.0083 96.2678 102.183ZM91.0703 21.9651C98.9253 27.0376 105.27 34.2501 109.277 42.7734C108.15 42.5542 107.022 42.2809 105.879 41.9384C103.141 41.1184 100.565 39.6284 97.7719 39.0143C96.0578 38.6368 94.2953 39.5526 92.5653 39.5359C90.6536 39.5167 88.7328 38.6967 86.8461 38.7884C82.8536 38.9834 80.1678 42.6817 76.2003 43.3209C75.307 43.4642 72.892 43.8451 72.2645 43.0517C71.9828 42.6951 72.562 41.4351 72.8253 41.0617C74.0737 39.2934 76.3345 38.8526 77.6311 37.2068C78.5011 36.1018 78.7945 34.4876 79.757 33.5034C81.1236 32.1067 83.0961 31.6451 84.4378 30.1018C85.6195 28.7426 85.9211 26.9268 87.062 25.566C88.1795 24.2343 89.582 23.0501 91.0703 21.9651ZM55.1462 14.7835C58.0195 14.2685 60.9787 14.0001 64.0003 14.0001C67.0661 14.0001 70.0678 14.2768 72.9786 14.8059C71.6028 17.1168 70.0187 19.2218 67.6828 20.8001C66.6445 21.5018 65.4645 22.0509 64.2928 22.4959C63.2645 22.8868 62.2353 23.1443 61.4145 23.9293C60.3528 24.9426 59.9828 26.4643 58.7753 27.3751C58.5303 27.5601 57.7503 28.1384 57.3928 27.8451C56.632 27.2209 56.6212 26.0959 56.7495 25.2018C57.0295 23.2468 58.0887 21.5793 57.7887 19.5376C57.5087 17.631 56.267 16.251 55.1462 14.7835Z" fill="#86E94B"/>
<path fill-rule="evenodd" clip-rule="evenodd" d="M33.186 100.63C36.354 102.28 39.722 103.61 43.244 104.56C42.643 105.91 42.031 107.25 41.281 108.54C38.258 107 35.413 105.15 32.787 103.05C32.909 102.24 33.048 101.44 33.186 100.63ZM105.447 47.166C107.094 47.028 108.686 46.678 110.634 45.942C112.808 51.544 114 57.634 114 64C114 79.302 107.111 93.01 96.268 102.18C93.904 99.3 92.351 95.34 91.589 91.66C100.66 82.61 106.277 70.094 106.277 56.277C106.277 53.167 105.993 50.123 105.447 47.166ZM95.278 25.002C101.198 29.757 106.013 35.83 109.277 42.773C108.15 42.554 107.021 42.281 105.878 41.939C105.239 41.747 104.609 41.519 103.983 41.274C102.099 35.287 99.119 29.784 95.278 25.002Z" fill="#46D516"/>
<path d="M25.0001 17.2321C28.6544 17.2321 31.6167 14.2698 31.6167 10.6155C31.6167 6.96126 28.6544 3.9989 25.0001 3.9989C21.3459 3.9989 18.3835 6.96126 18.3835 10.6155C18.3835 14.2698 21.3459 17.2321 25.0001 17.2321Z" fill="#86E94B"/>
<path d="M117.001 34.5156C120.866 34.5156 124 31.3818 124 27.5161C124 23.6504 120.866 20.5166 117.001 20.5166C113.135 20.5166 110.001 23.6504 110.001 27.5161C110.001 31.3818 113.135 34.5156 117.001 34.5156Z" fill="#86E94B"/>
<path d="M12.9164 97.9738C17.841 97.9738 21.8331 93.9816 21.8331 89.0569C21.8331 84.1323 17.841 80.1401 12.9164 80.1401C7.99175 80.1401 3.99957 84.1323 3.99957 89.0569C3.99957 93.9816 7.99175 97.9738 12.9164 97.9738Z" fill="#86E94B"/>
<path d="M80.4284 124.001C86.3861 124.001 91.2158 119.171 91.2158 113.213C91.2158 107.256 86.3861 102.426 80.4284 102.426C74.4707 102.426 69.6411 107.256 69.6411 113.213C69.6411 119.171 74.4707 124.001 80.4284 124.001Z" fill="#86E94B"/>
<path fill-rule="evenodd" clip-rule="evenodd" d="M28.0104 4.72296C30.1503 5.81928 31.6167 8.0478 31.6167 10.6156C31.6167 14.2674 28.6519 17.2316 25.0001 17.2316C22.4323 17.2316 20.2044 15.7658 19.1075 13.6258C20.2688 15.1153 22.0807 16.0742 24.1141 16.0742C27.6156 16.0742 30.4587 13.2311 30.4587 9.72902C30.4587 7.69564 29.4998 5.88433 28.0104 4.72296Z" fill="#46D516"/>
<path fill-rule="evenodd" clip-rule="evenodd" d="M120.185 21.2825C122.449 22.4422 124 24.7997 124 27.5161C124 31.3792 120.864 34.515 117.001 34.515C114.284 34.515 111.927 32.9643 110.767 30.7005C111.996 32.2761 113.912 33.2906 116.063 33.2906C119.768 33.2906 122.775 30.2829 122.775 26.5782C122.775 24.4272 121.761 22.511 120.185 21.2825Z" fill="#46D516"/>
<path fill-rule="evenodd" clip-rule="evenodd" d="M16.9731 81.1157C19.8569 82.5932 21.8331 85.5964 21.8331 89.0569C21.8331 93.9782 17.8376 97.9729 12.9164 97.9729C9.4559 97.9729 6.45341 95.9974 4.97522 93.1136C6.54032 95.1208 8.98206 96.4131 11.7223 96.4131C16.441 96.4131 20.2726 92.5816 20.2726 87.8621C20.2726 85.1218 18.9803 82.6808 16.9731 81.1157Z" fill="#46D516"/>
<path fill-rule="evenodd" clip-rule="evenodd" d="M85.3361 103.606C88.8249 105.394 91.2157 109.027 91.2157 113.213C91.2157 119.167 86.382 124 80.4283 124C76.2419 124 72.6096 121.61 70.8213 118.121C72.7147 120.549 75.6687 122.113 78.9838 122.113C84.6924 122.113 89.3277 117.477 89.3277 111.768C89.3277 108.453 87.7644 105.5 85.3361 103.606Z" fill="#46D516"/>
<path fill-rule="evenodd" clip-rule="evenodd" d="M26.6553 8.96018H27.9716C28.0813 8.96018 28.1868 9.00403 28.2642 9.08141C28.342 9.1592 28.3854 9.26432 28.3854 9.37398C28.3854 10.01 28.3854 11.2208 28.3854 11.8568C28.3854 11.9665 28.342 12.072 28.2642 12.1494C28.1868 12.2272 28.0813 12.2706 27.9716 12.2706C27.4597 12.2706 26.6553 12.2706 26.6553 12.2706V13.5869C26.6553 13.6966 26.6119 13.8017 26.5345 13.8795C26.4567 13.9569 26.3516 14.0007 26.2415 14.0007C25.6055 14.0007 24.3947 14.0007 23.7586 14.0007C23.649 14.0007 23.5439 13.9569 23.4661 13.8795C23.3887 13.8017 23.3448 13.6966 23.3448 13.5869C23.3448 13.075 23.3448 12.2706 23.3448 12.2706H22.0289C21.9193 12.2706 21.8137 12.2272 21.7364 12.1494C21.6586 12.072 21.6151 11.9665 21.6151 11.8568C21.6151 11.2208 21.6151 10.01 21.6151 9.37398C21.6151 9.26432 21.6586 9.1592 21.7364 9.08141C21.8137 9.00403 21.9193 8.96018 22.0289 8.96018C22.5404 8.96018 23.3448 8.96018 23.3448 8.96018V7.64385C23.3448 7.53419 23.3887 7.42909 23.4661 7.3513C23.5439 7.27392 23.649 7.23004 23.7586 7.23004C24.3947 7.23004 25.6055 7.23004 26.2415 7.23004C26.3516 7.23004 26.4567 7.27392 26.5345 7.3513C26.6119 7.42909 26.6553 7.53419 26.6553 7.64385C26.6553 8.15573 26.6553 8.96018 26.6553 8.96018Z" fill="white"/>
<path fill-rule="evenodd" clip-rule="evenodd" d="M118.751 25.7649H120.144C120.26 25.7649 120.372 25.8112 120.453 25.8931C120.536 25.9754 120.582 26.0866 120.582 26.2026C120.582 26.8754 120.582 28.1563 120.582 28.8292C120.582 28.9452 120.536 29.0568 120.453 29.1386C120.372 29.2209 120.26 29.2669 120.144 29.2669C119.602 29.2669 118.751 29.2669 118.751 29.2669V30.6594C118.751 30.7754 118.705 30.8866 118.624 30.9689C118.541 31.0508 118.43 31.0972 118.314 31.0972C117.641 31.0972 116.36 31.0972 115.687 31.0972C115.571 31.0972 115.46 31.0508 115.378 30.9689C115.296 30.8866 115.249 30.7754 115.249 30.6594C115.249 30.1179 115.249 29.2669 115.249 29.2669H113.857C113.741 29.2669 113.63 29.2209 113.548 29.1386C113.466 29.0568 113.42 28.9452 113.42 28.8292C113.42 28.1563 113.42 26.8754 113.42 26.2026C113.42 26.0866 113.466 25.9754 113.548 25.8931C113.63 25.8112 113.741 25.7649 113.857 25.7649C114.398 25.7649 115.249 25.7649 115.249 25.7649V24.3723C115.249 24.2563 115.296 24.1451 115.378 24.0628C115.46 23.981 115.571 23.9346 115.687 23.9346C116.36 23.9346 117.641 23.9346 118.314 23.9346C118.43 23.9346 118.541 23.981 118.624 24.0628C118.705 24.1451 118.751 24.2563 118.751 24.3723C118.751 24.9138 118.751 25.7649 118.751 25.7649Z" fill="white"/>
<path fill-rule="evenodd" clip-rule="evenodd" d="M15.147 86.8279H16.9209C17.0687 86.8279 17.2109 86.887 17.3152 86.9913C17.42 87.0961 17.4786 87.2378 17.4786 87.3856C17.4786 88.2427 17.4786 89.8744 17.4786 90.7316C17.4786 90.8794 17.42 91.0216 17.3152 91.1258C17.2109 91.2307 17.0687 91.2893 16.9209 91.2893C16.2311 91.2893 15.147 91.2893 15.147 91.2893V93.0632C15.147 93.211 15.0884 93.3526 14.9841 93.4575C14.8793 93.5618 14.7376 93.6208 14.5893 93.6208C13.7322 93.6208 12.1004 93.6208 11.2433 93.6208C11.0955 93.6208 10.9538 93.5618 10.849 93.4575C10.7447 93.3526 10.6856 93.211 10.6856 93.0632C10.6856 92.3733 10.6856 91.2893 10.6856 91.2893H8.91222C8.76444 91.2893 8.62223 91.2307 8.51795 91.1258C8.41311 91.0216 8.35455 90.8794 8.35455 90.7316C8.35455 89.8744 8.35455 88.2427 8.35455 87.3856C8.35455 87.2378 8.41311 87.0961 8.51795 86.9913C8.62223 86.887 8.76444 86.8279 8.91222 86.8279C9.6015 86.8279 10.6856 86.8279 10.6856 86.8279V85.0539C10.6856 84.9062 10.7447 84.7645 10.849 84.6597C10.9538 84.5554 11.0955 84.4963 11.2433 84.4963C12.1004 84.4963 13.7322 84.4963 14.5893 84.4963C14.7376 84.4963 14.8793 84.5554 14.9841 84.6597C15.0884 84.7645 15.147 84.9062 15.147 85.0539C15.147 85.7438 15.147 86.8279 15.147 86.8279Z" fill="white"/>
<path fill-rule="evenodd" clip-rule="evenodd" d="M83.127 110.514H85.2731C85.4519 110.514 85.6239 110.586 85.7501 110.712C85.8769 110.839 85.9478 111.01 85.9478 111.189C85.9478 112.226 85.9478 114.2 85.9478 115.237C85.9478 115.416 85.8769 115.588 85.7501 115.714C85.6239 115.841 85.4519 115.912 85.2731 115.912C84.4386 115.912 83.127 115.912 83.127 115.912V118.058C83.127 118.236 83.0562 118.408 82.93 118.535C82.8032 118.661 82.6318 118.732 82.4524 118.732C81.4154 118.732 79.4414 118.732 78.4045 118.732C78.2257 118.732 78.0543 118.661 77.9275 118.535C77.8013 118.408 77.7298 118.236 77.7298 118.058C77.7298 117.223 77.7298 115.912 77.7298 115.912H75.5844C75.4057 115.912 75.2336 115.841 75.1075 115.714C74.9806 115.588 74.9098 115.416 74.9098 115.237C74.9098 114.2 74.9098 112.226 74.9098 111.189C74.9098 111.01 74.9806 110.839 75.1075 110.712C75.2336 110.586 75.4057 110.514 75.5844 110.514C76.4183 110.514 77.7298 110.514 77.7298 110.514V108.368C77.7298 108.19 77.8013 108.018 77.9275 107.891C78.0543 107.765 78.2257 107.694 78.4045 107.694C79.4414 107.694 81.4154 107.694 82.4524 107.694C82.6318 107.694 82.8032 107.765 82.93 107.891C83.0562 108.018 83.127 108.19 83.127 108.368C83.127 109.203 83.127 110.514 83.127 110.514Z" fill="white"/>
</svg>
