<svg width="128" height="128" viewBox="0 0 128 128" fill="none" xmlns="http://www.w3.org/2000/svg">
<path fill-rule="evenodd" clip-rule="evenodd" d="M22.5534 77.8972C21.6904 80.0882 21.7984 83.0382 21.8334 85.3322C21.8564 86.9072 21.8434 87.8352 20.4044 88.5132C19.9564 88.7252 19.5054 88.9872 19.0954 88.5132C18.2514 87.5372 18.0554 85.5782 18.2454 84.4462C18.7204 81.6052 18.6254 77.6292 22.1574 77.0832L22.5534 77.8972Z" fill="#FFA215"/>
<path fill-rule="evenodd" clip-rule="evenodd" d="M5.30297 78.3356C4.34825 85.0291 3.66427 92.0009 4.11551 98.7613C4.2485 100.771 3.21779 104.357 4.11551 106.2C5.30297 108.644 9.78681 109.272 13.1986 109.305C13.7192 109.309 17.7305 109.385 18.3551 108.473C19.8836 106.243 18.765 101.178 18.3551 98.7613C17.4388 93.3527 17.1852 85.0766 18.879 82.2727C20.8891 78.9459 25.2713 77.0555 28.8845 76.201C30.6139 75.792 33.4201 74.9684 34.7795 73.704C35.4407 73.0894 35.3163 70.5026 35.3163 69.3275C35.3163 65.9822 35.3163 64.3749 33.6928 62.7514C32.1139 61.173 29.8739 59.9067 27.7084 59.6492C25.0918 59.3386 22.2513 60.2244 19.6888 60.6828C17.0023 61.163 13.7905 61.6057 11.416 63.0288C7.60189 65.3129 6.24819 71.2783 5.36947 75.2691L5.30297 78.3356Z" fill="#FFCB49"/>
<path fill-rule="evenodd" clip-rule="evenodd" d="M19.4067 63.5494C17.4687 62.3438 11.2973 60.9108 8.57087 63.3736C7.46416 64.3763 6.92269 65.7785 6.49995 67.1768C5.50248 70.4927 4.21527 74.796 4.98 78.2596C5.28873 79.6651 5.99172 81.4486 7.33117 82.1564C8.65163 82.8517 10.3996 82.6152 11.7865 82.2599C13.0234 81.9422 14.2284 81.5465 15.3142 80.862C18.7089 78.7218 19.5748 74.2655 20.2004 70.6038C20.502 68.8369 21.3451 64.7544 19.4067 63.5494Z" fill="#262626"/>
<path fill-rule="evenodd" clip-rule="evenodd" d="M14.8611 65.0246C13.8385 64.3682 10.8081 63.4254 9.10286 64.4779C7.6874 65.3481 7.32641 67.3544 6.99392 68.8278C6.88467 69.3076 6.71845 70.0239 6.8372 70.5074C6.96069 71.0341 7.42141 71.426 7.86315 71.6996C8.25264 71.9433 8.68486 72.1119 9.1266 72.2425C10.5563 72.6648 12.8168 73.2129 13.9734 71.9466C14.8089 71.0322 14.9751 69.5778 15.2373 68.4179C15.4558 67.4494 15.8837 65.6815 14.8611 65.0246Z" fill="#BDDEFF"/>
<path fill-rule="evenodd" clip-rule="evenodd" d="M20.9115 79.9291C18.3185 86.0412 20.1477 92.5162 21.0578 98.7936C21.2055 99.8134 21.2953 100.841 21.4059 101.865C21.6173 103.827 21.6828 106.409 20.114 107.978C19.3022 108.79 16.6841 109.124 16.6841 109.124C17.3885 108.712 17.8806 107.368 17.9305 107.05C18.1528 105.62 18.1528 104.292 18.1309 102.805C18.0796 99.3175 17.3391 94.5482 17.0712 91.0523C16.7326 86.634 18.3185 81.4334 20.9115 79.9291Z" fill="#262626"/>
<path fill-rule="evenodd" clip-rule="evenodd" d="M23.7561 59.8663C26.2241 60.0777 27.8856 60.8144 30.0207 62.0247C30.6325 62.3709 31.3791 63.0748 31.9311 63.5156C32.834 64.2367 33.1532 65.4403 33.2748 66.5679C33.4577 68.2588 33.5802 69.7484 33.5802 71.4431C33.5802 72.205 33.2748 74.7029 33.2748 74.7029C33.2748 74.7029 34.0918 74.3377 34.277 74.2588C35.1619 73.8841 35.6559 73.7126 36.044 72.775C36.6619 71.2835 36.3627 66.2325 36.2073 65.293C35.8426 63.0843 34.2955 61.7686 32.397 60.812C30.2259 59.7186 27.6728 58.971 25.8779 59.2802C25.155 59.4046 23.7561 59.8663 23.7561 59.8663Z" fill="#262626"/>
<path fill-rule="evenodd" clip-rule="evenodd" d="M106.801 85.5311C106.763 91.1293 107.138 97.0485 108.145 102.561C108.376 103.844 109.516 109.127 108.875 110.344C105.535 116.793 97.1056 124.15 86.5877 123.995C76.2418 119.741 77.5853 103.872 80.9462 95.2933L106.801 85.5311Z" fill="#FAC7A2"/>
<path fill-rule="evenodd" clip-rule="evenodd" d="M91.2895 91.3821L106.799 85.5302C106.784 87.5502 106.825 89.6027 106.937 91.6648C106.525 92.2287 106.147 92.7228 105.81 93.0983C103.783 95.4382 101.401 98.6349 99.0002 100.489C95.161 103.437 88.2522 109.288 82.7551 110.843C81.4523 111.21 80.0825 111.544 78.6944 111.837C78.1323 107.145 78.8362 102.007 80.0707 97.8715L91.2895 91.3821Z" fill="#F59B67"/>
<path fill-rule="evenodd" clip-rule="evenodd" d="M48.8953 31.8962C46.6509 42.8816 48.9542 52.2724 48.6884 65.4136C48.5408 73.505 46.7984 85.3469 52.0549 92.3752C68.2968 114.08 98.4773 102.445 108.104 82.0689C114.601 68.3371 120.862 43.9447 112.623 30.3901C106.096 19.6705 94.0773 13.5871 81.822 12.7898C70.7775 12.0811 52.0551 16.4516 48.8953 31.8962Z" fill="#FAC7A2"/>
<path fill-rule="evenodd" clip-rule="evenodd" d="M48.199 50.478C47.827 44.121 47.592 38.278 48.895 31.895C52.048 16.437 70.778 12.091 81.833 12.801C94.068 13.587 106.099 19.676 112.616 30.402C114.05 32.763 102.155 43.256 97.705 45.041C89.779 48.22 75.032 52.355 64.138 52.355C57.75 52.355 52.497 51.775 48.199 50.478Z" fill="#F59B67"/>
<path fill-rule="evenodd" clip-rule="evenodd" d="M54.2106 9.48233C63.1289 10.2797 68.1198 3.98961 82.9737 3.98961C92.4827 3.98961 101.932 8.41923 109.64 19.0503C112.859 20.1134 117.318 24.0705 119.887 28.6478C125.35 38.3929 125.409 50.7959 119.887 61.0135C116.993 66.3586 109.374 71.2312 102.936 68.3371C96.2034 61.8994 96.2034 51.3274 97.5323 43.6199C89.6181 46.8092 75.2366 49.8509 64.3397 49.8509C51.0804 49.8509 42.6937 47.3407 37.6144 41.1393C34.307 37.0345 35.5177 33.2546 38.4708 34.0815C36.315 30.5673 34.3956 27.437 34.307 24.986C34.1593 21.1174 34.9271 15.7428 38.4708 12.7307C43.8158 8.18296 49.5152 9.0689 54.2106 9.48233Z" fill="#262626"/>
<path fill-rule="evenodd" clip-rule="evenodd" d="M123.993 44.024C124.108 49.823 122.746 55.706 119.879 61.002C116.983 66.353 109.366 71.216 102.923 68.332C101.696 67.153 100.694 65.838 99.8823 64.427C101.941 60.714 102.911 55.92 107.372 54.321C108.158 54.039 108.982 53.848 109.815 53.781C111.848 53.616 113.65 54.299 115.28 55.491C116.462 56.355 117.354 58.209 119.091 57.5C119.35 57.394 119.598 57.251 119.82 57.082C122.591 54.973 123.325 50.836 123.693 47.614C123.817 46.532 123.937 45.463 123.981 44.373C123.986 44.257 123.99 44.14 123.993 44.024Z" fill="#1A1A1A"/>
<path fill-rule="evenodd" clip-rule="evenodd" d="M88.7608 72.8394C90.8407 71.6931 93.0034 69.814 96.1234 66.9186C99.6569 63.6332 103.663 60.3242 108.839 60.8442C112.16 61.1869 112.16 65.6187 112.16 70.8304C112.16 75.1558 111.38 74.7658 109.974 78.843C109.147 81.242 106.133 88.4864 104.077 91.0982C102.54 93.06 100.059 95.9199 98.0024 97.2672C94.7288 99.418 88.8198 103.732 84.2345 104.689C76.0564 106.402 65.5031 106.615 58.1878 101.947C53.1769 98.7444 49.9743 93.3318 49.1943 91.0982C47.1498 85.3546 47.1025 80.6511 47.3861 76.113C47.4925 74.3167 47.3507 72.154 48.3906 71.5867C49.0288 71.244 50.1752 71.6931 51.2861 72.4376C51.7942 72.7803 53.1414 73.2767 54.6541 72.8394C56.4505 72.3076 58.3177 70.074 61.1659 69.235C64.9003 68.1359 69.2375 70.5586 72.3811 72.1304C74.201 73.0285 76.1156 73.5603 78.1246 73.7612C79.98 73.9385 81.8236 73.8794 83.6791 73.7494C84.1754 73.7022 88.3353 73.0758 88.7608 72.8394ZM98.6878 91.9609C101.276 90.7082 106.949 82.2347 108.107 78.843C109.194 75.7112 110.908 72.5085 110.908 69.1877C110.908 65.6187 110.908 62.4396 108.839 62.2387C104.869 61.8251 102.044 64.4014 99.326 66.9186C97.0215 69.0695 93.9961 73.3949 91.1361 76.6212C91.538 77.6021 91.6916 78.7011 91.9043 79.7411C92.2943 81.6438 92.8498 83.582 93.6652 85.3546C94.5752 87.3046 97.3169 90.4718 98.6878 91.9609Z" fill="#BDDEFF"/>
<path fill-rule="evenodd" clip-rule="evenodd" d="M99.6709 66.558C100.301 64.1068 102.007 60.8538 103.593 58.7774C106.924 54.4259 112.819 54.7908 115.36 59.3877C119.204 66.2404 115.337 78.0751 110.774 79.9674C108.81 80.7822 106.832 80.7092 104.947 79.9905C102.946 79.2362 101.376 77.5875 100.294 75.6389C99.1594 73.5692 99.0349 69.1272 99.6709 66.558Z" fill="#FAC7A2"/>
<path fill-rule="evenodd" clip-rule="evenodd" d="M110.633 59.4388C109.64 59.4624 108.565 59.6161 107.655 60.0888C105.433 61.2351 104.086 64.1542 103.223 66.3405C102.927 67.0969 103.306 67.9596 104.062 68.255C104.818 68.5505 105.681 68.1723 105.976 67.416C106.319 66.5414 106.733 65.4896 107.288 64.556C107.749 63.7878 108.281 63.0906 109.014 62.7124C109.522 62.4406 110.148 62.4051 110.727 62.3933C111.543 62.3697 112.181 61.6842 112.157 60.8688C112.134 60.0533 111.448 59.4152 110.633 59.4388Z" fill="#F59B67"/>
<path fill-rule="evenodd" clip-rule="evenodd" d="M83.7751 92.16C78.3411 95.265 71.4171 96.758 65.1971 96.893C62.1991 96.958 58.767 96.574 56.914 95.554C56.2 95.161 55.301 95.422 54.908 96.136C54.515 96.851 54.776 97.75 55.49 98.143C57.681 99.348 61.717 99.923 65.261 99.847C71.953 99.702 79.3951 98.066 85.2411 94.725C85.9491 94.32 86.1951 93.417 85.7911 92.709C85.3861 92.001 84.4831 91.755 83.7751 92.16ZM82.4181 81.235C77.0681 83.108 68.212 85.746 59.769 85.129C56.956 84.923 53.684 84.018 50.884 82.716C50.145 82.372 49.265 82.693 48.922 83.433C48.578 84.172 48.899 85.051 49.638 85.395C52.762 86.848 56.416 87.846 59.553 88.075C68.437 88.725 77.765 85.994 83.394 84.024C84.163 83.755 84.5701 82.911 84.3001 82.142C84.0311 81.372 83.1871 80.966 82.4181 81.235Z" fill="#8CC1FF"/>
<path fill-rule="evenodd" clip-rule="evenodd" d="M74.5642 61.5898V64.1431C74.5642 64.9587 75.2309 65.6207 76.0458 65.6207C76.8606 65.6207 77.518 64.9587 77.518 64.1431V61.5898C77.518 60.7742 76.8606 60.1122 76.0458 60.1122C75.2309 60.1122 74.5642 60.7742 74.5642 61.5898Z" fill="#F59B67"/>
<path fill-rule="evenodd" clip-rule="evenodd" d="M52.9922 61.5898V64.1431C52.9922 64.9587 53.6589 65.6207 54.4738 65.6207C55.2886 65.6207 55.946 64.9587 55.946 64.1431V61.5898C55.946 60.7742 55.2886 60.1122 54.4738 60.1122C53.6589 60.1122 52.9922 60.7742 52.9922 61.5898Z" fill="#F59B67"/>
<path fill-rule="evenodd" clip-rule="evenodd" d="M51.8913 48.833L51.7643 48.691C57.4493 49.341 63.1713 48.912 68.8043 48.028C78.8763 46.448 88.8513 45.397 96.2763 38.16C101.007 33.549 105.652 25.89 108.22 20.957C108.22 20.957 105.652 27.019 104.846 28.709C102.397 33.844 100.443 38.725 97.5293 43.633C89.6043 46.812 75.2213 49.85 64.3273 49.85C59.5803 49.85 55.4593 49.53 51.8913 48.833Z" fill="#1A1A1A"/>
</svg>
