<svg width="128" height="128" viewBox="0 0 128 128" fill="none" xmlns="http://www.w3.org/2000/svg">
<path fill-rule="evenodd" clip-rule="evenodd" d="M34.7289 101.356C35.5092 100.576 35.5086 99.3098 34.7276 98.5288C33.2512 97.0524 30.9496 94.7508 29.4732 93.2744C28.6922 92.4934 27.4263 92.4928 26.646 93.2731C23.2333 96.6858 14.5799 105.339 11.1673 108.752C10.3869 109.532 10.3875 110.798 11.1685 111.579C12.6449 113.055 14.9465 115.357 16.4229 116.833C17.2039 117.614 18.4698 117.615 19.2502 116.835C22.6628 113.422 31.3162 104.769 34.7289 101.356Z" fill="#8CC1FF"/>
<path fill-rule="evenodd" clip-rule="evenodd" d="M123.662 5.96016C124.111 5.51143 124.109 4.78633 123.661 4.33802C123.66 4.33773 123.66 4.33744 123.66 4.33715C123.211 3.88883 122.486 3.88705 122.038 4.33578C117.589 8.78476 96.2029 30.1705 91.754 34.6194C91.3052 35.0682 91.3068 35.7935 91.7551 36.2418C91.7554 36.2421 91.7557 36.2424 91.756 36.2427C92.2043 36.691 92.9296 36.6925 93.3783 36.2438C97.8273 31.7948 119.213 10.4091 123.662 5.96016Z" fill="#8CC1FF"/>
<path fill-rule="evenodd" clip-rule="evenodd" d="M95.3671 54.5604C98.1012 51.8264 98.0989 47.3959 95.3656 44.6627C91.7717 41.0688 86.9296 36.2267 83.3356 32.6327C80.6024 29.8995 76.172 29.8972 73.4379 32.6312C61.7538 44.3153 32.9291 73.14 26.2166 79.8525C25.4338 80.6353 25.4362 81.8996 26.2173 82.6808C30.1792 86.6426 41.3557 97.8192 45.3176 101.781C46.0987 102.562 47.363 102.565 48.1459 101.782C54.8584 95.0692 83.683 66.2445 95.3671 54.5604Z" fill="#BDDEFF"/>
<path fill-rule="evenodd" clip-rule="evenodd" d="M22.3612 120.793C23.1425 120.012 23.1418 118.746 22.3607 117.965C19.4724 115.077 12.9235 108.528 10.0347 105.639C9.25409 104.858 7.98801 104.857 7.20669 105.639C6.40019 106.445 5.39228 107.453 4.58578 108.26C3.80446 109.041 3.80437 110.308 4.58501 111.089C7.47378 113.977 14.0227 120.526 16.9109 123.415C17.6921 124.196 18.959 124.196 19.7403 123.414C20.5468 122.608 21.5547 121.6 22.3612 120.793Z" fill="#2691FC"/>
<path fill-rule="evenodd" clip-rule="evenodd" d="M52.1427 106.396C52.5179 106.021 52.7288 105.512 52.7284 104.983C52.7281 104.451 52.5172 103.943 52.1421 103.568C47.0304 98.4561 29.5446 80.9703 24.4329 75.8586C24.0578 75.4835 23.5497 75.2727 23.0182 75.2723C22.4883 75.272 21.9796 75.4828 21.6043 75.858C20.2789 77.1835 18.3085 79.1539 16.983 80.4793C16.6078 80.8546 16.3969 81.3633 16.3973 81.8932C16.3976 82.4247 16.6085 82.9329 16.9836 83.308C22.0953 88.4197 39.5811 105.905 44.6928 111.017C45.0679 111.392 45.576 111.603 46.1075 111.603C46.6374 111.604 47.1461 111.393 47.5214 111.018C48.8469 109.692 50.8172 107.722 52.1427 106.396Z" fill="#2691FC"/>
<path fill-rule="evenodd" clip-rule="evenodd" d="M98.325 41.1953C99.0754 40.4449 99.4969 39.4273 99.4968 38.3666C99.4967 37.3058 99.0748 36.2885 98.3249 35.5386C96.5406 33.7543 94.245 31.4587 92.4607 29.6744C91.7108 28.9245 90.6935 28.5026 89.6327 28.5025C88.572 28.5024 87.5544 28.9239 86.8039 29.6743C85.238 31.2403 83.6049 32.8734 83.6049 32.8734L95.1259 44.3943L98.325 41.1953Z" fill="#2691FC"/>
<path fill-rule="evenodd" clip-rule="evenodd" d="M77.7291 54.6324C78.3016 54.0599 78.3016 53.1315 77.7288 52.5592C75.5403 50.3707 70.4698 45.3002 68.2813 43.1117C67.709 42.5389 66.7806 42.5389 66.208 43.1114C66.2078 43.1117 66.2074 43.1121 66.2072 43.1123C65.6346 43.6849 65.6349 44.6131 66.2074 45.1856C68.3959 47.3741 73.4664 52.4446 75.6549 54.6331C76.2274 55.2056 77.1556 55.2059 77.7282 54.6333C77.7284 54.6331 77.7288 54.6327 77.7291 54.6324Z" fill="#8CC1FF"/>
<path fill-rule="evenodd" clip-rule="evenodd" d="M80.4262 45.0591C80.9987 44.4866 80.9985 43.5584 80.4259 42.9858C78.875 41.4349 75.9674 38.5274 74.4165 36.9765C73.844 36.4039 72.9158 36.4037 72.3433 36.9762C72.343 36.9764 72.3426 36.9769 72.3424 36.9771C71.7698 37.5496 71.77 38.4778 72.3426 39.0504C73.8935 40.6013 76.8011 43.5089 78.352 45.0598C78.9246 45.6323 79.8528 45.6325 80.4253 45.06C80.4255 45.0598 80.4259 45.0593 80.4262 45.0591Z" fill="#8CC1FF"/>
<path fill-rule="evenodd" clip-rule="evenodd" d="M68.1562 57.3292C68.7287 56.7566 68.7285 55.8284 68.1559 55.2559C66.605 53.705 63.6974 50.7974 62.1465 49.2465C61.574 48.6739 60.6458 48.6737 60.0733 49.2462C60.073 49.2465 60.0726 49.2469 60.0724 49.2471C59.4998 49.8197 59.5 50.7479 60.0726 51.3204C61.6235 52.8713 64.5311 55.7789 66.082 57.3298C66.6545 57.9024 67.5827 57.9026 68.1553 57.3301C68.1555 57.3298 68.1559 57.3294 68.1562 57.3292Z" fill="#8CC1FF"/>
<path fill-rule="evenodd" clip-rule="evenodd" d="M65.4591 66.9025C66.0316 66.3299 66.0316 65.4015 65.4588 64.8292C63.2703 62.6407 58.1998 57.5702 56.0113 55.3817C55.439 54.809 54.5106 54.8089 53.938 55.3815C53.9378 55.3817 53.9374 55.3821 53.9372 55.3823C53.3646 55.9549 53.3649 56.8831 53.9374 57.4556C56.1259 59.6441 61.1964 64.7146 63.3849 66.9031C63.9574 67.4756 64.8856 67.4759 65.4582 66.9034C65.4584 66.9031 65.4588 66.9027 65.4591 66.9025Z" fill="#8CC1FF"/>
<path fill-rule="evenodd" clip-rule="evenodd" d="M55.8862 69.5995C56.4587 69.027 56.4585 68.0988 55.8859 67.5263C54.335 65.9754 51.4274 63.0678 49.8765 61.5169C49.304 60.9443 48.3758 60.9441 47.8033 61.5166C47.803 61.5168 47.8026 61.5173 47.8024 61.5175C47.2298 62.09 47.23 63.0182 47.8026 63.5908C49.3535 65.1417 52.2611 68.0493 53.812 69.6002C54.3846 70.1728 55.3128 70.173 55.8853 69.6004C55.8855 69.6002 55.886 69.5998 55.8862 69.5995Z" fill="#8CC1FF"/>
<path fill-rule="evenodd" clip-rule="evenodd" d="M53.1891 79.1725C53.7616 78.6 53.7615 77.6715 53.1888 77.0992C51.0003 74.9107 45.9298 69.8402 43.7413 67.6517C43.169 67.0789 42.2406 67.0789 41.668 67.6514C41.6678 67.6517 41.6674 67.6521 41.6671 67.6523C41.0946 68.2249 41.0949 69.1531 41.6674 69.7256C43.8559 71.9141 48.9264 76.9846 51.1149 79.1732C51.6874 79.7457 52.6156 79.7459 53.1882 79.1734C53.1884 79.1731 53.1888 79.1727 53.1891 79.1725Z" fill="#8CC1FF"/>
<path fill-rule="evenodd" clip-rule="evenodd" d="M43.6162 81.8696C44.1887 81.297 44.1885 80.3688 43.6159 79.7963C42.065 78.2454 39.1574 75.3378 37.6065 73.7869C37.034 73.2143 36.1058 73.2141 35.5333 73.7866C35.533 73.7869 35.5326 73.7873 35.5324 73.7875C34.9598 74.3601 34.96 75.2883 35.5326 75.8608C37.0835 77.4117 39.9911 80.3193 41.542 81.8702C42.1145 82.4428 43.0427 82.443 43.6153 81.8705C43.6155 81.8702 43.6159 81.8698 43.6162 81.8696Z" fill="#8CC1FF"/>
<path d="M28.9678 80.6366C34.8257 80.6366 39.5744 75.8879 39.5744 70.03C39.5744 64.1721 34.8257 59.4234 28.9678 59.4234C23.11 59.4234 18.3612 64.1721 18.3612 70.03C18.3612 75.8879 23.11 80.6366 28.9678 80.6366Z" fill="#86E94B"/>
<path d="M100.326 55.0639C104.685 55.0639 108.219 51.53 108.219 47.1707C108.219 42.8114 104.685 39.2775 100.326 39.2775C95.9663 39.2775 92.4324 42.8114 92.4324 47.1707C92.4324 51.53 95.9663 55.0639 100.326 55.0639Z" fill="#86E94B"/>
<path d="M78.0592 108.214C83.2915 108.214 87.5332 103.972 87.5332 98.7397C87.5332 93.5073 83.2915 89.2656 78.0592 89.2656C72.8268 89.2656 68.5851 93.5073 68.5851 98.7397C68.5851 103.972 72.8268 108.214 78.0592 108.214Z" fill="#86E94B"/>
<path fill-rule="evenodd" clip-rule="evenodd" d="M33.7933 60.5839C37.2237 62.3413 39.5744 65.9137 39.5744 70.03C39.5744 75.8839 34.8217 80.6356 28.9678 80.6356C24.8516 80.6356 21.2801 78.2858 19.5218 74.8555C21.3835 77.243 24.2879 78.7802 27.5475 78.7802C33.1605 78.7802 37.7181 74.2226 37.7181 68.6087C37.7181 65.3492 36.1809 62.4456 33.7933 60.5839Z" fill="#46D516"/>
<path fill-rule="evenodd" clip-rule="evenodd" d="M103.917 40.1412C106.469 41.449 108.219 44.1075 108.219 47.1708C108.219 51.5271 104.682 55.0633 100.326 55.0633C97.2624 55.0633 94.6046 53.3146 93.2961 50.7618C94.6815 52.5386 96.843 53.6826 99.2687 53.6826C103.446 53.6826 106.837 50.2909 106.837 46.1131C106.837 43.6874 105.693 41.5266 103.917 40.1412Z" fill="#46D516"/>
<path fill-rule="evenodd" clip-rule="evenodd" d="M82.3694 90.3022C85.4335 91.872 87.5332 95.0629 87.5332 98.7396C87.5332 103.968 83.288 108.213 78.0592 108.213C74.3824 108.213 71.1923 106.114 69.6217 103.05C71.2847 105.183 73.879 106.556 76.7905 106.556C81.8041 106.556 85.8751 102.485 85.8751 97.4702C85.8751 94.5587 84.502 91.9652 82.3694 90.3022Z" fill="#46D516"/>
<path fill-rule="evenodd" clip-rule="evenodd" d="M31.6211 67.3759H33.7312C33.907 67.3759 34.0761 67.4462 34.2002 67.5702C34.3249 67.6949 34.3946 67.8635 34.3946 68.0392C34.3946 69.0588 34.3946 70.9998 34.3946 72.0193C34.3946 72.1951 34.3249 72.3643 34.2002 72.4883C34.0761 72.613 33.907 72.6827 33.7312 72.6827C32.9106 72.6827 31.6211 72.6827 31.6211 72.6827V74.7928C31.6211 74.9686 31.5514 75.1371 31.4274 75.2618C31.3027 75.3858 31.1342 75.4561 30.9577 75.4561C29.9382 75.4561 27.9972 75.4561 26.9777 75.4561C26.8019 75.4561 26.6334 75.3858 26.5087 75.2618C26.3846 75.1371 26.3143 74.9686 26.3143 74.7928C26.3143 73.9722 26.3143 72.6827 26.3143 72.6827H24.2049C24.0291 72.6827 23.8599 72.613 23.7359 72.4883C23.6112 72.3643 23.5415 72.1951 23.5415 72.0193C23.5415 70.9998 23.5415 69.0588 23.5415 68.0392C23.5415 67.8635 23.6112 67.6949 23.7359 67.5702C23.8599 67.4462 24.0291 67.3759 24.2049 67.3759C25.0248 67.3759 26.3143 67.3759 26.3143 67.3759V65.2658C26.3143 65.09 26.3846 64.9215 26.5087 64.7968C26.6334 64.6728 26.8019 64.6024 26.9777 64.6024C27.9972 64.6024 29.9382 64.6024 30.9577 64.6024C31.1342 64.6024 31.3027 64.6728 31.4274 64.7968C31.5514 64.9215 31.6211 65.09 31.6211 65.2658C31.6211 66.0863 31.6211 67.3759 31.6211 67.3759Z" fill="white"/>
<path fill-rule="evenodd" clip-rule="evenodd" d="M102.3 45.1952H103.871C104.001 45.1952 104.127 45.2476 104.22 45.3399C104.312 45.4327 104.364 45.5581 104.364 45.6889C104.364 46.4476 104.364 47.892 104.364 48.6508C104.364 48.7816 104.312 48.9075 104.22 48.9998C104.127 49.0926 104.001 49.1444 103.871 49.1444C103.26 49.1444 102.3 49.1444 102.3 49.1444V50.7147C102.3 50.8455 102.248 50.9709 102.156 51.0637C102.063 51.156 101.938 51.2083 101.807 51.2083C101.048 51.2083 99.6034 51.2083 98.8447 51.2083C98.7139 51.2083 98.5885 51.156 98.4957 51.0637C98.4034 50.9709 98.351 50.8455 98.351 50.7147C98.351 50.1041 98.351 49.1444 98.351 49.1444H96.7812C96.6504 49.1444 96.5245 49.0926 96.4322 48.9998C96.3394 48.9075 96.2876 48.7816 96.2876 48.6508C96.2876 47.892 96.2876 46.4476 96.2876 45.6889C96.2876 45.5581 96.3394 45.4327 96.4322 45.3399C96.5245 45.2476 96.6504 45.1952 96.7812 45.1952C97.3914 45.1952 98.351 45.1952 98.351 45.1952V43.6249C98.351 43.4941 98.4034 43.3687 98.4957 43.2759C98.5885 43.1836 98.7139 43.1313 98.8447 43.1313C99.6034 43.1313 101.048 43.1313 101.807 43.1313C101.938 43.1313 102.063 43.1836 102.156 43.2759C102.248 43.3687 102.3 43.4941 102.3 43.6249C102.3 44.2356 102.3 45.1952 102.3 45.1952Z" fill="white"/>
<path fill-rule="evenodd" clip-rule="evenodd" d="M80.4289 96.3701H82.3137C82.4707 96.3701 82.6218 96.4329 82.7326 96.5437C82.844 96.6551 82.9062 96.8056 82.9062 96.9626C82.9062 97.8733 82.9062 99.607 82.9062 100.518C82.9062 100.675 82.844 100.826 82.7326 100.937C82.6218 101.048 82.4707 101.11 82.3137 101.11C81.5808 101.11 80.4289 101.11 80.4289 101.11V102.995C80.4289 103.152 80.3667 103.302 80.2559 103.414C80.1445 103.525 79.994 103.587 79.8364 103.587C78.9257 103.587 77.192 103.587 76.2813 103.587C76.1243 103.587 75.9738 103.525 75.8624 103.414C75.7516 103.302 75.6888 103.152 75.6888 102.995C75.6888 102.262 75.6888 101.11 75.6888 101.11H73.8046C73.6476 101.11 73.4965 101.048 73.3857 100.937C73.2743 100.826 73.2121 100.675 73.2121 100.518C73.2121 99.607 73.2121 97.8733 73.2121 96.9626C73.2121 96.8056 73.2743 96.6551 73.3857 96.5437C73.4965 96.4329 73.6476 96.3701 73.8046 96.3701C74.537 96.3701 75.6888 96.3701 75.6888 96.3701V94.4853C75.6888 94.3283 75.7516 94.1778 75.8624 94.0664C75.9738 93.9556 76.1243 93.8928 76.2813 93.8928C77.192 93.8928 78.9257 93.8928 79.8364 93.8928C79.994 93.8928 80.1445 93.9556 80.2559 94.0664C80.3667 94.1778 80.4289 94.3283 80.4289 94.4853C80.4289 95.2182 80.4289 96.3701 80.4289 96.3701Z" fill="white"/>
</svg>
