<svg width="128" height="128" viewBox="0 0 128 128" fill="none" xmlns="http://www.w3.org/2000/svg">
<path fill-rule="evenodd" clip-rule="evenodd" d="M97.1197 49.7553C94.9243 46.3139 91.3216 40.0765 87.9696 34.1814C86.3749 31.3766 85.239 26.2609 81.9383 24.9169C78.4839 23.5107 76.2688 25.8511 75.2812 28.7518C74.3132 27.2616 73.2112 25.85 72.2323 25.0837C70.885 24.0307 69.0939 24.5495 67.8087 25.4205C65.1163 27.2431 64.798 28.2623 64.6868 31.3756C64.6378 32.7523 64.798 34.1389 65.1174 35.5222C65.0847 35.5037 65.0531 35.4851 65.0204 35.4677C64.2944 35.0687 63.3013 35.3151 62.596 35.6388C60.5652 36.573 59.6397 38.763 59.4348 40.8941C59.2473 42.8442 59.8927 44.7747 60.7124 46.5908C60.2753 46.1831 59.8152 45.879 59.3694 45.8048C58.6674 45.6871 58.0287 46.2267 57.5392 46.6453C56.0523 47.9218 55.4026 49.9624 55.4626 51.8689C55.5367 54.1995 56.8568 56.445 57.9916 58.4017C59.6212 61.213 69.4428 78.4449 72.4666 83.9148C75.4709 89.3489 78.8773 93.5413 83.5494 97.7402C87.8585 101.612 88.1092 101.104 92.1163 105.249C94.6572 107.878 98.0692 111.718 99.4645 115.186C101.86 121.141 126.661 103.804 123.761 100.272C120.409 96.188 117.682 91.6424 116.58 86.4198C115.647 81.9996 115.407 76.897 115.407 72.4647C115.407 64.2412 115.509 56.6892 115.407 51.3969C115.303 46.1057 117.346 39.0399 114.502 36.9153C112.957 35.762 108.109 37.0014 106.523 41.3475C104.183 47.7572 103.078 55.9905 103.078 55.9905C101.613 55.6122 98.9423 52.6123 97.1197 49.7553Z" fill="#FAC7A2"/>
<path fill-rule="evenodd" clip-rule="evenodd" d="M101.395 54.932C101.256 54.811 97.348 61.12 96.765 64.585C96.419 66.642 96.514 68.883 96.804 70.941C97.384 75.054 100.234 78.029 100.234 78.029C100.234 78.029 99.311 75.748 99.155 75.054C98.702 73.034 98.509 71.141 98.531 69.071C98.558 66.573 98.558 64.223 100.234 61.173C100.916 59.931 102.85 57.388 103.079 55.99C102.616 55.869 102.033 55.487 101.395 54.932Z" fill="#F59B67"/>
<path fill-rule="evenodd" clip-rule="evenodd" d="M89.8191 52.191C88.6041 51.254 86.3611 47.725 85.5021 46.516C83.8111 44.137 78.4301 34.085 77.6581 31.568C76.8801 29.032 76.3991 26.753 78.2891 24.87C76.8651 25.544 75.8651 27.052 75.2861 28.751C75.5181 29.18 75.9371 30.62 76.3261 31.731C78.2111 37.123 80.5821 42.006 83.5921 46.806C84.3421 48.002 87.3101 51.757 87.7321 53.361C88.0801 54.683 87.5331 55.145 86.1251 56.428C85.4691 57.025 83.1011 59.217 81.4091 58.156C80.0781 57.321 78.1171 53.83 77.4171 52.818C73.6411 47.357 70.535 42.449 67.868 36.354C66.529 33.295 64.757 29.975 66.071 26.817C64.959 27.972 64.7711 29.128 64.6911 31.375C64.6421 32.752 64.8021 34.139 65.1211 35.523C65.6251 35.913 66.0631 36.913 66.4451 37.655C67.3631 39.438 68.3581 41.612 69.3791 43.339C70.9881 46.057 72.6251 48.93 74.1711 51.687C75.2271 53.569 78.3901 58.296 79.2591 59.762C79.3831 59.972 79.4261 60.241 79.3851 60.483C79.2031 61.564 78.6701 61.867 78.0111 62.711C77.2731 63.654 75.1901 64.598 74.3781 64.082C74.0491 63.873 71.7581 60.661 70.8361 59.298C68.9191 56.462 67.0221 53.951 65.1211 51.106C62.6901 47.466 59.964 43.441 59.732 39.312C59.586 39.829 59.4901 40.364 59.4391 40.894C59.2521 42.844 59.8971 44.775 60.7171 46.591C60.7171 46.591 62.3151 49.629 63.2681 51.106C64.8931 53.626 66.3751 56.236 68.0251 58.741C69.5151 61.003 71.1501 63.268 72.8281 65.39C72.9421 65.535 73.1711 66.193 72.8281 67.11C72.3271 68.446 70.7611 69.807 70.8381 69.77C71.5041 69.448 73.6301 68.33 74.1711 67.862C75.3851 66.813 77.1961 65.856 78.4211 64.818C80.2231 63.293 85.1961 59.724 86.1251 58.985C87.6041 57.808 88.5541 56.428 90.3451 54.783C90.8081 54.357 92.8941 52.127 92.7941 52.137C91.7911 52.23 90.6051 52.796 89.8191 52.191Z" fill="#F59B67"/>
<path fill-rule="evenodd" clip-rule="evenodd" d="M72.47 83.9145C75.474 89.3485 78.881 93.5415 83.553 97.7405C87.862 101.612 88.1129 101.104 92.1199 105.248C94.6609 107.877 98.0729 111.717 99.4689 115.185C100.367 117.418 104.416 116.376 108.973 114.014C102.403 114.014 99.875 107.663 94.996 103.264C88.118 97.0635 81.218 95.5365 72.47 83.9145Z" fill="#F59B67"/>
<path fill-rule="evenodd" clip-rule="evenodd" d="M71.034 60.427C67.991 65.954 67.44 69.424 67.172 70.88C66.896 72.371 67.269 73.956 67.686 75.406C63.77 68.49 59.077 60.268 57.995 58.401C56.861 56.445 55.541 54.2 55.466 51.869C55.406 49.962 56.056 47.922 57.543 46.645C58.032 46.226 58.67 45.687 59.373 45.804C59.818 45.879 60.278 46.183 60.716 46.591C59.896 44.775 59.251 42.844 59.438 40.894C59.643 38.763 60.568 36.573 62.599 35.639C63.305 35.315 64.297 35.069 65.024 35.467C65.056 35.485 65.089 35.504 65.12 35.523C64.978 34.907 64.867 34.29 64.793 33.674C65.484 33.485 66.196 33.44 66.875 33.617C67.984 33.906 69.059 34.474 69.592 35.358C70.269 36.48 70.619 37.888 70.619 39.198C70.619 40.149 70.388 41.786 70.619 42.71C70.939 43.991 73.287 46.273 73.711 46.948C76.804 51.869 73.147 56.59 71.034 60.427Z" fill="#F59B67"/>
<path fill-rule="evenodd" clip-rule="evenodd" d="M30.8767 49.7553C33.0721 46.3139 36.6747 40.0765 40.0267 34.1814C41.6226 31.3766 42.7584 26.2609 46.0592 24.9169C49.5125 23.5107 51.7276 25.8511 52.7152 28.7518C53.6842 27.2616 54.7863 25.85 55.7652 25.0837C57.1114 24.0307 58.9035 24.5495 60.1887 25.4205C62.8812 27.2431 63.1995 28.2623 63.3106 31.3756C63.3597 32.7523 63.1995 34.1389 62.8801 35.5222C62.9117 35.5037 62.9444 35.4851 62.976 35.4677C63.7031 35.0687 64.695 35.3151 65.4003 35.6388C67.4322 36.573 68.3577 38.763 68.5626 40.8941C68.749 42.8442 68.1037 44.7747 67.284 46.5908C67.7222 46.1831 68.1822 45.879 68.6269 45.8048C69.33 45.6871 69.9688 46.2267 70.4572 46.6453C71.944 47.9218 72.5948 49.9624 72.5337 51.8689C72.4596 54.1995 71.1396 56.445 70.0048 58.4017C68.3752 61.213 58.5536 78.4449 55.5297 83.9148C52.5266 89.3489 49.1201 93.5413 44.4469 97.7402C40.139 101.612 39.8872 101.104 35.8812 105.249C33.3391 107.878 29.9272 111.718 28.5319 115.186C26.1359 121.141 1.33679 103.804 4.23529 100.272C7.58727 96.188 10.3146 91.6424 11.4178 86.4198C12.3509 81.9996 12.5907 76.897 12.5907 72.4647C12.5907 64.2412 12.4882 56.6892 12.5907 51.3969C12.6931 46.1057 10.6504 39.0399 13.4955 36.9153C15.039 35.762 19.8876 37.0014 21.4737 41.3475C23.813 47.7572 24.9183 55.9905 24.9183 55.9905C26.3834 55.6122 29.0552 52.6123 30.8767 49.7553Z" fill="#FAC7A2"/>
<path fill-rule="evenodd" clip-rule="evenodd" d="M26.606 54.932C26.745 54.811 30.653 61.12 31.236 64.585C31.582 66.642 31.486 68.883 31.197 70.941C30.617 75.054 27.767 78.029 27.767 78.029C27.767 78.029 28.69 75.748 28.846 75.054C29.299 73.034 29.492 71.141 29.47 69.071C29.443 66.573 29.443 64.223 27.767 61.173C27.085 59.931 25.151 57.388 24.922 55.99C25.384 55.869 25.967 55.487 26.606 54.932Z" fill="#F59B67"/>
<path fill-rule="evenodd" clip-rule="evenodd" d="M121.856 64.731C121.253 64.149 119.683 63.837 118.632 64.32C116.98 65.079 116.622 67.193 118.127 68.311C119.355 69.221 121.199 68.778 122.248 67.812C122.961 67.156 122.459 65.313 121.856 64.731ZM92.803 49.669C91.847 49.724 91.299 50.318 91.239 51.296C91.198 51.961 91.431 52.62 90.858 53.122C90.054 53.827 88.943 52.834 89.355 51.916C89.728 51.085 90.688 50.846 90.69 49.777C90.69 49.627 90.693 49.454 90.632 49.314L92.803 49.669ZM15.231 38.763C15.388 38.927 15.568 39.103 15.668 39.31C15.736 39.451 15.78 39.601 15.793 39.758C15.913 41.215 13.869 40.931 13.553 42.133C13.285 43.153 14.738 43.662 15.441 43.117C16.295 42.456 15.71 40.879 16.915 40.5C17.064 40.454 17.212 40.436 17.368 40.443L15.231 38.763ZM103.848 42.274C104.119 40.882 105.436 40.364 106.51 40.573C107.055 40.679 107.621 41.013 108.182 40.893C109.322 40.648 109.824 38.537 108.516 38.119C107.52 37.8 107.002 38.623 106.199 39.13C105.135 39.803 104.155 39.72 103.215 38.84L103.848 42.274ZM90.235 34.019C89.519 34.23 88.566 34.418 88.236 33.511C88.047 32.987 88.141 31.992 87.478 31.788C86.425 31.466 85.483 32.58 86.267 33.468C86.885 34.169 88.226 34.347 88.225 35.456L90.235 34.019ZM30.584 31.933C30.647 32.122 30.714 32.303 30.835 32.465C31.299 33.085 32.071 32.986 32.714 32.684C33.121 32.493 33.488 32.209 33.948 32.44C34.771 32.852 34.653 34.236 33.667 34.322C32.803 34.397 31 32.645 30.611 34.832L30.584 31.933ZM16.22 22.463C16.439 22.351 16.608 22.23 16.758 22.01C17.211 21.34 17.22 20.734 16.777 20.054C16.423 19.511 15.847 19.096 15.998 18.369C16.18 17.49 17.5 17.565 17.723 18.372C17.888 18.971 17.601 19.593 17.69 20.198C17.788 20.851 18.445 21.293 18.96 21.617L16.22 22.463ZM44.602 12.319C43.33 11.506 41.88 11.288 40.567 12.05C39.002 12.956 38.465 15.43 39.908 16.675C41.933 18.421 46.323 16.901 45.903 14.664C45.774 13.974 45.551 12.925 44.602 12.319ZM94.281 12.591C93.635 12.214 92.207 12.275 91.398 12.917C90.126 13.924 90.264 15.834 91.805 16.484C93.062 17.014 94.567 16.239 95.273 15.179C95.752 14.459 94.926 12.968 94.281 12.591Z" fill="#EB17A4"/>
<path fill-rule="evenodd" clip-rule="evenodd" d="M101.223 34.371C101.235 33.636 101.414 32.947 101.955 32.383C102.512 31.803 103.575 31.424 103.723 30.479C103.76 30.239 103.757 29.996 103.71 29.761C103.448 28.451 102.378 28.446 101.66 29.452C100.946 30.454 101.566 32.679 99.148 32.767C97.741 31.986 95.954 32.247 94.353 32.34C92.435 32.451 87.315 34.638 86.826 37.463C86.672 38.354 86.512 38.912 86.451 40.161C86.034 40.624 85.447 40.971 84.809 40.876C84.018 40.759 83.177 40.148 82.377 40.551C81.671 40.907 81.764 41.756 82.139 42.324C82.295 42.559 82.545 42.829 82.85 42.835C83.959 42.861 85.193 41.121 86.268 42.113C86.328 42.169 86.387 42.228 86.443 42.29C86.629 46.604 87.831 48.535 91.356 49.663C92.957 50.175 94.353 50.504 96.189 50.087C97.07 51.18 95.802 52.877 96.165 54.123C96.504 55.284 97.49 55.49 98.441 54.874C98.705 54.703 98.945 54.451 99.064 54.155C99.738 52.482 97.382 51.161 98.625 49.466C98.678 49.393 98.736 49.327 98.797 49.265C100.521 48.572 101.738 47.398 102.808 46.078C105.701 42.507 103.71 36.862 101.223 34.371ZM10.549 47.043C10.534 46.463 10.288 45.207 9.60402 44.669C8.09302 43.479 5.875 44.459 5.464 46.269C5.057 48.066 6.63002 50.294 8.59102 49.805C9.51002 49.576 10.577 48.052 10.549 47.043ZM21.832 21.264C22.652 20.933 23.197 20.121 23.172 19.205C23.153 18.489 22.558 17.503 23.052 16.847C23.863 15.77 25.596 16.509 25.392 17.833C25.289 18.495 24.703 18.998 24.309 19.496C23.813 20.123 23.491 21.117 23.76 21.919C23.77 21.925 23.78 21.931 23.789 21.938C27.582 24.4 30.591 28.611 30.812 33.127C30.913 35.203 29.803 37.298 28.13 38.912C27.258 40.535 28.634 41.422 29.516 42.095C30.135 42.568 30.876 42.914 31.374 43.531C32.477 44.9 30.763 47.568 29.063 46.599C28.606 46.338 28.209 45.921 28.008 45.431C27.779 44.869 27.825 44.21 27.712 43.618C27.449 42.24 26.626 40.872 25.21 40.945C23.547 41.738 21.737 42.062 20.109 41.661C15.52 40.531 12.479 37.021 11.698 32.81C10.996 32.067 9.98901 31.961 8.97801 32.272C8.32501 32.473 7.554 33.03 6.843 32.662C5.659 32.049 6.65202 30.293 7.63902 30.121C8.21402 30.021 8.74903 30.424 9.28603 30.558C10.11 30.765 11.096 30.391 11.537 29.663C11.589 28.997 11.695 28.327 11.858 27.655C12.329 25.717 13.076 23.894 14.705 22.667C16.016 21.679 19.323 20.888 21.832 21.264ZM69.493 17.329C68.495 17.238 66.292 17.403 65.23 18.465C62.881 20.814 64.108 24.817 67.129 25.89C70.127 26.955 74.268 24.713 73.83 21.251C73.625 19.628 71.229 17.488 69.493 17.329Z" fill="#FB49BF"/>
<path fill-rule="evenodd" clip-rule="evenodd" d="M94.974 40.623C95.002 40.093 95.361 39.33 95.547 39.137C96.052 38.612 96.702 38.372 97.413 38.587C97.676 38.666 97.919 38.786 98.159 38.917C98.474 39.09 98.823 39.29 99.06 39.567C99.549 40.138 99.642 40.981 99.512 41.701C99.314 42.795 98.411 43.547 97.34 43.701C96.907 43.763 96.392 43.703 96.024 43.447C95.118 42.816 94.915 41.701 94.974 40.623ZM89.312 42.168C89.021 40.779 90.182 40.286 90.894 40.174C91.674 40.051 92.368 40.827 92.419 41.552C92.441 41.856 92.413 42.177 92.313 42.467C92.246 42.658 92.137 42.831 92.001 42.98C91.128 43.939 89.544 43.274 89.312 42.168ZM23.854 33.05C23.369 32.812 22.573 32.785 22.008 33.136C20.856 33.852 20.886 35.437 22.033 36.136C23.085 36.777 24.983 35.927 24.917 34.562C24.899 34.192 24.899 33.562 23.854 33.05ZM20.253 27.238C19.028 26.477 17.204 27.499 16.679 28.253C15.752 29.583 16.557 31.497 18.118 31.854C19.11 32.082 20.433 31.823 21.115 31.01C22.171 29.75 21.479 28 20.253 27.238Z" fill="#EB17A4"/>
<path fill-rule="evenodd" clip-rule="evenodd" d="M55.462 83.9145C52.458 89.3485 49.051 93.5415 44.379 97.7405C40.07 101.612 39.819 101.104 35.812 105.248C33.271 107.877 29.859 111.717 28.463 115.185C27.565 117.418 23.516 116.376 18.959 114.014C25.529 114.014 28.057 107.663 32.936 103.264C39.814 97.0635 46.714 95.5365 55.462 83.9145Z" fill="#F59B67"/>
<path fill-rule="evenodd" clip-rule="evenodd" d="M38.182 52.191C39.397 51.254 41.639 47.725 42.499 46.516C44.19 44.137 49.571 34.085 50.343 31.568C51.121 29.032 51.602 26.753 49.712 24.87C51.136 25.544 52.136 27.052 52.715 28.751C52.483 29.18 52.064 30.62 51.675 31.731C49.79 37.123 47.419 42.006 44.409 46.806C43.659 48.002 40.691 51.757 40.269 53.361C39.921 54.683 40.468 55.145 41.876 56.428C42.532 57.025 44.9 59.217 46.592 58.156C47.923 57.321 49.884 53.83 50.584 52.818C54.36 47.357 57.465 42.449 60.133 36.354C61.472 33.295 63.244 29.975 61.93 26.817C63.042 27.972 63.23 29.128 63.31 31.375C63.359 32.752 63.199 34.139 62.88 35.523C62.375 35.913 61.937 36.913 61.556 37.655C60.637 39.438 59.643 41.612 58.622 43.339C57.013 46.057 55.376 48.93 53.83 51.687C52.774 53.569 49.611 58.296 48.742 59.762C48.618 59.972 48.575 60.241 48.616 60.483C48.798 61.564 49.331 61.867 49.99 62.711C50.727 63.654 52.811 64.598 53.623 64.082C53.952 63.873 56.243 60.661 57.165 59.298C59.082 56.462 60.979 53.951 62.88 51.106C65.311 47.466 68.037 43.441 68.269 39.312C68.415 39.829 68.511 40.364 68.562 40.894C68.749 42.844 68.104 44.775 67.284 46.591C67.284 46.591 65.686 49.629 64.733 51.106C63.108 53.626 61.626 56.236 59.976 58.741C58.486 61.003 56.851 63.268 55.173 65.39C55.059 65.535 54.83 66.193 55.173 67.11C55.673 68.446 57.24 69.807 57.163 69.77C56.497 69.448 54.371 68.33 53.83 67.862C52.616 66.813 50.805 65.856 49.579 64.818C47.777 63.293 42.804 59.724 41.876 58.985C40.397 57.808 39.447 56.428 37.656 54.783C37.193 54.357 35.107 52.127 35.206 52.137C36.21 52.23 37.396 52.796 38.182 52.191Z" fill="#F59B67"/>
</svg>
