<svg width="128" height="128" viewBox="0 0 128 128" fill="none" xmlns="http://www.w3.org/2000/svg">
<g clip-path="url(#clip0)">
<path fill-rule="evenodd" clip-rule="evenodd" d="M44.4011 49.8998C46.5218 46.5756 50.0018 40.5505 53.2397 34.8561C54.7812 32.1468 55.8784 27.2052 59.0668 25.9069C62.4026 24.5486 64.5423 26.8093 65.4963 29.6112C66.4324 28.1718 67.4969 26.8082 68.4424 26.068C69.7429 25.0508 71.474 25.5521 72.7154 26.3934C75.3163 28.1539 75.6237 29.1385 75.7311 32.1457C75.7785 33.4756 75.6237 34.815 75.3152 36.1512C75.3457 36.1333 75.3773 36.1154 75.4078 36.0986C76.1102 35.7132 77.0684 35.9512 77.7496 36.2639C79.7124 37.1663 80.6063 39.2817 80.8043 41.3403C80.9843 43.224 80.361 45.0888 79.5692 46.8431C79.9925 46.4493 80.4368 46.1555 80.8664 46.0839C81.5456 45.9702 82.1627 46.4914 82.6344 46.8957C84.0706 48.1287 84.6992 50.0999 84.6403 51.9415C84.5687 54.1928 83.2936 56.3619 82.1974 58.252C80.6232 60.9676 71.1359 77.6129 68.215 82.8967C65.3141 88.1457 62.0236 92.1954 57.5095 96.2515C53.3482 99.9916 53.1049 99.5009 49.2353 103.504C46.7798 106.044 43.484 109.754 42.1362 113.103C39.8217 118.856 15.8667 102.109 18.6666 98.6975C21.9044 94.7521 24.539 90.3612 25.6046 85.3164C26.5059 81.0466 26.7375 76.1177 26.7375 71.8363C26.7375 63.8927 26.6386 56.5978 26.7375 51.4856C26.8365 46.3745 24.8633 39.5492 27.6115 37.4969C29.1025 36.3829 33.7861 37.5801 35.3182 41.7783C37.5778 47.9697 38.6456 55.9228 38.6456 55.9228C40.0608 55.5574 42.6416 52.6597 44.4011 49.8998Z" fill="#FAC7A2"/>
<path fill-rule="evenodd" clip-rule="evenodd" d="M40.2741 54.9003C40.4083 54.7834 44.1833 60.8776 44.7465 64.2247C45.0807 66.2117 44.988 68.3764 44.7088 70.3643C44.1486 74.3373 41.3956 77.211 41.3956 77.211C41.3956 77.211 42.2872 75.0077 42.4379 74.3373C42.8754 72.3861 43.0619 70.5575 43.0406 68.558C43.0145 66.145 43.0145 63.875 41.3956 60.9288C40.7368 59.7291 38.8686 57.2727 38.6474 55.9222C39.0937 55.8054 39.6568 55.4364 40.2741 54.9003Z" fill="#F59B67"/>
<path fill-rule="evenodd" clip-rule="evenodd" d="M51.456 52.2526C52.6297 51.3475 54.7953 47.9386 55.6261 46.7707C57.2595 44.4727 62.4573 34.7629 63.2031 32.3316C63.9546 29.8819 64.4192 27.6805 62.5936 25.8616C63.9691 26.5126 64.935 27.9693 65.4943 29.6105C65.2702 30.0249 64.8655 31.4158 64.4897 32.489C62.6689 37.6975 60.3786 42.4143 57.4711 47.0509C56.7466 48.2062 53.8796 51.8333 53.472 53.3827C53.1358 54.6597 53.6642 55.106 55.0243 56.3453C55.658 56.922 57.9454 59.0394 59.5798 58.0145C60.8655 57.2079 62.7597 53.8358 63.4359 52.8582C67.0833 47.5831 70.0826 42.8422 72.6598 36.9547C73.9532 33.9998 75.6649 30.7928 74.3956 27.7423C75.4698 28.858 75.6514 29.9746 75.7287 32.1451C75.776 33.4753 75.6215 34.8151 75.3133 36.1519C74.8255 36.5287 74.4024 37.4946 74.0344 38.2114C73.1467 39.9337 72.1865 42.0337 71.2003 43.7019C69.646 46.3274 68.0647 49.1026 66.5714 51.7657C65.5513 53.5837 62.496 58.1498 61.6566 59.5658C61.5368 59.7687 61.4952 60.0285 61.5349 60.2623C61.7107 61.3065 62.2255 61.5992 62.8621 62.4145C63.574 63.3254 65.587 64.2372 66.3714 63.7388C66.6892 63.5369 68.9022 60.4343 69.7928 59.1176C71.6446 56.3782 73.477 53.9527 75.3133 51.2045C77.6616 47.6884 80.2947 43.8004 80.5188 39.812C80.6599 40.3114 80.7526 40.8282 80.8019 41.3401C80.9825 43.2237 80.3595 45.089 79.5674 46.8432C79.5674 46.8432 78.0238 49.7778 77.1032 51.2045C75.5335 53.6387 74.102 56.1599 72.5082 58.5796C71.0689 60.7646 69.4895 62.9525 67.8687 65.0023C67.7585 65.1423 67.5373 65.7779 67.8687 66.6637C68.3516 67.9542 69.8653 69.2689 69.7909 69.2332C69.1476 68.9221 67.0939 67.8422 66.5714 67.3901C65.3987 66.3768 63.6493 65.4524 62.4651 64.4497C60.7244 62.9767 55.9207 59.5291 55.0243 58.8153C53.5956 57.6784 52.678 56.3453 50.9479 54.7563C50.5007 54.3448 48.4857 52.1907 48.5813 52.2004C49.5512 52.2902 50.6968 52.837 51.456 52.2526Z" fill="#F59B67"/>
<path fill-rule="evenodd" clip-rule="evenodd" d="M37.906 79.4845C39.737 78.3695 56.513 97.1325 56.449 97.1875C53.272 99.9395 52.747 99.8715 49.236 103.504C46.78 106.044 43.485 109.753 42.137 113.103C41.324 115.124 37.838 114.367 33.78 112.387C40.89 114.367 50.692 97.5555 46.935 94.5275C42.889 91.2665 36.041 91.8175 34.481 86.1665C34.155 84.9865 33.977 83.3175 35.356 81.6455C36.052 80.8025 36.929 80.0785 37.906 79.4845Z" fill="#F59B67"/>
<path fill-rule="evenodd" clip-rule="evenodd" d="M62.5301 41.2242C64.8949 38.9345 68.1162 37.5256 71.6634 37.5256C77.2156 37.5256 81.9665 40.9765 83.8888 45.847C85.2205 43.6653 87.6224 42.2076 90.3631 42.2076C94.5444 42.2076 97.9392 45.6025 97.9392 49.7849C97.9392 52.1635 96.8415 54.288 95.1245 55.6768C96.887 57.9136 97.9392 60.7357 97.9392 63.8014C97.9392 71.0525 92.0525 76.9392 84.8013 76.9392H84.7854C84.398 85.4702 77.3501 92.2779 68.7238 92.2779C63.3177 92.2779 58.5319 89.605 55.6166 85.5094C53.4688 86.587 51.0436 87.1936 48.4787 87.1936C39.6735 87.1936 32.525 80.0451 32.525 71.2389C32.525 70.4481 32.5822 69.669 32.6944 68.9079C29.759 67.0829 27.8038 63.8289 27.8038 60.1228C27.8038 54.4172 32.4361 49.7849 38.1418 49.7849C39.4999 49.7849 40.7978 50.0474 41.9855 50.5248C42.9625 44.0612 48.5465 39.1007 55.2789 39.1007C57.9487 39.1007 60.4363 39.8798 62.5301 41.2242Z" fill="#BDDEFF"/>
<path fill-rule="evenodd" clip-rule="evenodd" d="M77.519 42.952C79.307 44.24 87.358 59.392 88.078 60.682C88.724 61.842 88.558 67.466 90.51 68.789C91.422 69.407 93.868 68.394 95.125 66.56C96.363 64.752 97.434 62.545 97.434 60.179C97.764 61.33 97.94 62.545 97.94 63.802C97.94 71.053 92.054 76.939 84.802 76.939H84.786C84.399 85.47 77.351 92.278 68.725 92.278C63.319 92.278 58.532 89.605 55.617 85.509C53.469 86.587 51.045 87.193 48.48 87.193C43.371 87.193 38.82 84.787 35.899 81.047C37.949 78.986 41.119 77.768 43.894 77.555C45.032 77.468 47.542 77.122 48.924 75.842C51.148 73.782 50.215 68.933 49.069 67.013C47.999 65.219 46.102 64.917 45.303 65.893C43.894 67.613 42.654 68.464 40.907 68.789C40.368 68.889 39.478 69.165 38.942 69.008C38.807 68.968 39.203 68.901 39.33 68.839C39.589 68.712 39.838 68.564 40.071 68.394C40.799 67.865 41.483 67.159 41.904 66.358C42.722 64.799 43.078 63.08 43.078 61.419C43.078 60.14 42.574 58.302 42.182 57.334C40.907 54.191 38.259 51.914 36.225 51.073C35.656 50.838 35.072 50.628 34.481 50.453C35.619 50.021 36.8531 49.785 38.1421 49.785C40.2821 49.785 41.651 50.39 41.987 50.525C42.963 44.061 48.5471 39.101 55.28 39.101C57.949 39.101 60.437 39.88 62.53 41.224C63.204 40.572 63.947 39.992 64.747 39.494C66.348 39.996 68.424 40.978 69.867 41.103C71.103 41.211 70.929 41.201 72.419 41.224C74.4 41.254 75.439 41.454 77.519 42.952ZM84.517 51.529C84.748 51.688 85.002 51.848 85.286 52.013C85.774 52.297 87.423 52.9 87.968 53.044C89.62 53.482 91.385 53.198 92.88 52.384C93.373 52.115 93.819 51.747 94.225 51.36C94.585 51.017 94.906 50.644 95.159 50.215C96.445 48.04 95.682 45.709 94.731 43.594C96.672 44.967 97.94 47.229 97.94 49.785C97.94 52.164 96.842 54.288 95.125 55.677C94.225 56.406 92.064 56.472 90.51 56.148C89.811 56.002 89.1 55.808 88.461 55.48C85.957 54.191 84.517 51.529 84.517 51.529Z" fill="#8CC1FF"/>
<path fill-rule="evenodd" clip-rule="evenodd" d="M55.5801 76.4831C53.7616 72.9844 50.2837 66.9581 46.9711 61.3068C45.3956 58.6171 41.6647 55.1961 42.1345 51.7858C42.6261 48.2177 45.6537 47.4951 48.5573 48.0699C47.7788 46.5395 47.1301 44.9358 46.9618 43.7468C46.7311 42.112 48.0308 40.8634 49.3801 40.209C52.2052 38.8369 53.2115 39.0629 55.8696 40.4735C57.045 41.0974 58.1276 41.9011 59.1305 42.8364C59.1303 42.801 59.1306 42.7648 59.1312 42.7299C59.1487 41.929 59.8338 41.2181 60.4453 40.7845C62.2082 39.5359 64.4872 39.8194 66.3689 40.6773C68.0903 41.4632 69.3936 42.9354 70.5169 44.4983C70.3875 43.9348 70.3553 43.4031 70.5081 42.9953C70.7492 42.3502 71.5091 42.0765 72.0951 41.8701C73.8811 41.2428 75.9024 41.684 77.4678 42.6559C79.3817 43.8435 80.6226 46.0323 81.7114 47.9266C83.2761 50.6477 92.9477 67.1866 96.0631 72.3581C99.1585 77.4949 101.02 82.3694 102.276 88.3067C103.434 93.7806 102.888 93.7459 104.42 99.0988C105.392 102.495 106.956 107.204 109.183 110.046C113.008 114.927 86.5275 127.299 84.9728 123.169C83.1749 118.392 80.6896 113.915 76.8535 110.47C73.6064 107.554 67.7077 105.847 64.0009 103.707C57.1206 99.7347 52.4994 95.2149 48.1216 92.5731C43.7448 89.9318 36.8472 88.228 36.4441 84.8218C36.2248 82.9736 39.6034 79.5161 44.0052 80.2884C52.2546 81.7355 59.8311 88.0041 57.8863 82.3024C57.5966 81.4542 56.2111 77.6961 55.5801 76.4831Z" fill="#FAC7A2"/>
<path fill-rule="evenodd" clip-rule="evenodd" d="M59.336 100.736C61.864 102.492 65.647 103.344 68.533 104.142C71.995 105.099 75.473 106.58 78.341 108.762C80.877 110.692 83.19 113.38 84.626 116.197C85.595 118.1 86.536 119.624 87.793 120.881C88.761 121.85 90.111 122.432 91.912 122.24C92.46 122.181 95.185 121.692 96.062 121.404C90.694 123.724 85.626 124.908 84.972 123.17C83.175 118.393 80.689 113.916 76.853 110.471C73.606 107.556 67.707 105.848 64 103.708C62.321 102.738 60.776 101.736 59.336 100.736Z" fill="#F59B67"/>
<path fill-rule="evenodd" clip-rule="evenodd" d="M60.998 45.009C60.624 44.503 59.13 42.838 59.13 42.838C59.13 42.802 59.13 42.766 59.131 42.731C59.148 41.93 59.833 41.219 60.445 40.785C61.303 40.178 62.283 39.933 63.28 39.941C59.673 41.485 61.475 43.042 62.424 44.751C63.791 47.212 65.563 49.465 67.06 51.863C68.753 54.574 69.889 56.463 71.686 60.137C72.734 62.28 73.538 64.086 74.269 67.275C74.294 67.384 70.872 61.526 69.867 59.733C68.369 57.062 66.35 53.413 64.707 50.832C63.35 48.701 62.26 46.718 60.998 45.009Z" fill="#F59B67"/>
<path fill-rule="evenodd" clip-rule="evenodd" d="M49.99 39.927C49.651 40.271 49.3591 40.65 49.1061 41.068C47.3501 43.964 50.723 47.043 52.44 49.328C53.914 51.289 55.201 52.855 56.669 54.899C59.083 58.26 60.678 61.155 62.255 64.902C62.746 66.067 64.2101 70.868 64.2541 71.489C64.2631 71.621 60.5761 64.566 59.3221 62.522C57.8501 60.122 56.65 57.8 55.107 55.754C53.339 53.409 52.5851 52.576 50.864 50.194C50.253 49.349 49.319 48.351 48.557 48.071C48.512 48.019 48.446 47.851 48.446 47.851C47.717 46.389 47.121 44.881 46.961 43.748C46.731 42.113 48.0301 40.865 49.3791 40.21C49.5931 40.107 49.795 40.012 49.99 39.927Z" fill="#F59B67"/>
<path fill-rule="evenodd" clip-rule="evenodd" d="M39.43 4.19036C38.8692 4.03756 37.4475 3.85245 36.6923 4.19036C35.1092 4.8985 34.5568 7.58262 35.3013 9.20147C35.6563 9.97248 36.4069 10.5339 37.1063 10.8369C38.2861 11.3468 39.5441 11.139 40.6956 10.6387C41.3858 10.3383 42.1823 8.77625 42.1823 7.67693C42.1823 6.05982 40.5862 4.50383 39.43 4.19036Z" fill="#BDDEFF"/>
<path fill-rule="evenodd" clip-rule="evenodd" d="M39.3777 4.17647C39.3961 4.18106 39.4137 4.18565 39.4313 4.19024C40.5867 4.50395 42.1828 6.06026 42.1828 7.67779C42.1828 8.77654 41.387 10.3382 40.6961 10.6389C39.5445 11.1393 38.2866 11.3467 37.1076 10.8371C36.5115 10.5792 35.8787 10.1339 35.4846 9.53098C35.731 9.71308 35.9942 9.86075 36.2505 9.97093C37.3631 10.4522 38.5491 10.2563 39.6356 9.78424C40.2867 9.50114 41.0381 8.02822 41.0381 6.99145C41.0381 5.87816 40.2355 4.79471 39.3777 4.17647Z" fill="#8CC1FF"/>
<path fill-rule="evenodd" clip-rule="evenodd" d="M106.31 20.1117C105.903 17.6557 103.887 16.2927 102.595 16.1897C99.76 15.9637 97.21 20.1527 98.133 22.6337C99.105 25.2467 102.865 26.5017 105.038 24.5477C106.259 23.4507 106.547 21.5437 106.31 20.1117Z" fill="#BDDEFF"/>
<path fill-rule="evenodd" clip-rule="evenodd" d="M102.712 16.202C104.006 16.374 105.915 17.728 106.31 20.112C106.547 21.543 106.259 23.451 105.038 24.548C102.865 26.502 99.105 25.247 98.133 22.634C98.11 22.574 98.09 22.514 98.072 22.452C99.306 24.278 102.17 24.994 103.908 23.431C105.008 22.443 105.267 20.724 105.053 19.435C104.782 17.798 103.718 16.7 102.712 16.202Z" fill="#8CC1FF"/>
<path fill-rule="evenodd" clip-rule="evenodd" d="M15.9561 43.3486C13.2419 42.4883 10.0723 43.6303 9.03481 46.263C7.99733 48.8947 8.87198 52.2338 11.771 53.521C15.1453 55.0205 18.7572 52.7707 19.4239 49.4635C19.6571 48.3072 19.4239 44.4488 15.9561 43.3486Z" fill="#BDDEFF"/>
<path fill-rule="evenodd" clip-rule="evenodd" d="M116.194 60.7208C113.417 59.8408 110.175 61.0089 109.114 63.702C108.053 66.3939 108.947 69.8094 111.913 71.1261C115.364 72.66 119.059 70.3586 119.741 66.9757C119.979 65.7929 119.741 61.8462 116.194 60.7208Z" fill="#BDDEFF"/>
<path fill-rule="evenodd" clip-rule="evenodd" d="M15.8308 43.3112C15.8726 43.3233 15.9144 43.3365 15.9563 43.3487C19.424 44.4488 19.6573 48.3072 19.424 49.4635C18.7573 52.7707 15.1454 55.0205 11.7711 53.521C10.9064 53.137 10.221 52.5704 9.71378 51.8949C10.0141 52.1215 10.3486 52.3207 10.7171 52.4846C13.9341 53.9127 17.3755 51.7684 18.0114 48.6174C18.205 47.6559 18.0609 44.7382 15.8308 43.3112Z" fill="#8CC1FF"/>
<path fill-rule="evenodd" clip-rule="evenodd" d="M116.067 60.6826C116.11 60.6949 116.153 60.7084 116.196 60.7208C119.743 61.8462 119.981 65.7929 119.743 66.9757C119.061 70.3586 115.366 72.66 111.915 71.1261C111.03 70.7334 110.329 70.1538 109.81 69.4628C110.117 69.6946 110.459 69.8983 110.836 70.066C114.127 71.5268 117.647 69.3334 118.298 66.1103C118.496 65.1267 118.348 62.1422 116.067 60.6826Z" fill="#8CC1FF"/>
<path fill-rule="evenodd" clip-rule="evenodd" d="M57.713 25.8101C58.8007 27.1025 59.2422 29.6139 57.5133 31.0649C56.8771 31.5993 55.9404 31.7997 55.1364 31.8731C54.5841 31.9215 54.0184 31.9533 53.483 31.7813C51.5207 31.1551 50.9248 27.9074 52.2609 26.4112C53.2496 25.3041 53.958 25.1255 55.1364 25.0036C55.9925 24.9134 57.1608 25.1539 57.713 25.8101Z" fill="#BDDEFF"/>
<path fill-rule="evenodd" clip-rule="evenodd" d="M56.769 25.2C57.146 25.336 57.483 25.537 57.714 25.811C58.8 27.102 59.213 29.816 57.484 31.267C56.848 31.801 55.912 32.002 55.107 32.075C54.556 32.124 54.018 31.953 53.483 31.782C52.76 31.551 52.222 30.964 51.899 30.24C52.131 30.452 52.401 30.616 52.705 30.714C53.209 30.875 53.715 31.048 54.235 31.001C54.994 30.933 55.877 30.743 56.477 30.24C58.062 28.91 57.719 26.456 56.769 25.2Z" fill="#8CC1FF"/>
<path fill-rule="evenodd" clip-rule="evenodd" d="M60.246 78.246C59.212 81.777 55.24 84.064 51.517 82.41C48.16 80.92 47.148 77.053 48.35 74.006C49.551 70.959 53.22 69.636 56.362 70.633C57.755 71.074 58.697 71.899 59.322 72.846C60.101 72.347 61.132 72.211 62.064 72.507C63.964 73.109 64.092 75.223 63.964 75.857C63.63 77.514 61.946 78.686 60.246 78.246Z" fill="#BDDEFF"/>
<path fill-rule="evenodd" clip-rule="evenodd" d="M50.297 81.21C52.04 81.983 54.834 81.702 56.45 80.527C58.143 79.296 58.617 77.149 58.613 77.144C60.084 77.671 61.603 76.677 61.892 75.241C61.998 74.719 61.892 72.976 60.326 72.48C60.297 72.47 60.267 72.462 60.238 72.453C60.825 72.305 61.465 72.317 62.064 72.507C63.964 73.109 64.092 75.223 63.964 75.857C63.63 77.514 61.946 78.686 60.246 78.245V78.246C59.212 81.777 55.24 84.064 51.5171 82.41C50.5161 81.966 49.723 81.31 49.136 80.527C49.483 80.79 49.87 81.02 50.297 81.21ZM58.481 73.689C58.128 72.552 57.447 71.375 56.218 70.589C56.267 70.603 56.315 70.617 56.362 70.633C57.755 71.074 58.697 71.899 59.322 72.846C58.985 73.061 58.696 73.344 58.481 73.689Z" fill="#8CC1FF"/>
<path fill-rule="evenodd" clip-rule="evenodd" d="M73.783 41.58C72.926 41.834 71.896 42.609 72.095 43.594C72.216 44.194 72.501 44.941 72.814 45.455C73.492 46.569 74.173 47.685 74.831 48.811C76.446 51.575 78.063 54.232 79.116 57.248C79.626 58.708 81.352 63.593 81.309 63.52C80.787 62.635 78.342 57.453 77.441 55.923C76.452 54.242 75.773 52.879 74.831 51.172C73.563 48.875 71.816 46.773 70.517 44.499C70.49 44.392 70.466 44.274 70.446 44.135C70.381 43.709 70.388 43.315 70.507 42.996C70.748 42.351 71.508 42.078 72.095 41.871C72.642 41.679 73.212 41.587 73.783 41.58Z" fill="#F59B67"/>
</g>
<defs>
<clipPath id="clip0">
<rect width="128" height="128" fill="white"/>
</clipPath>
</defs>
</svg>
