<svg width="128" height="128" viewBox="0 0 128 128" fill="none" xmlns="http://www.w3.org/2000/svg">
<path fill-rule="evenodd" clip-rule="evenodd" d="M90.6598 94.1837C90.6598 93.6314 91.1071 93.1843 91.6596 93.1843C94.2891 93.1843 101.377 93.1843 104.006 93.1843C104.559 93.1843 105.006 93.6314 105.006 94.1837C105.006 98.838 105.006 118.345 105.006 122.999C105.006 123.55 104.559 123.998 104.006 123.998C101.377 123.998 94.2891 123.998 91.6596 123.998C91.1071 123.998 90.6598 123.55 90.6598 122.999C90.6598 118.345 90.6598 98.838 90.6598 94.1837Z" fill="#46D516"/>
<path fill-rule="evenodd" clip-rule="evenodd" d="M56.8266 77.4822C56.8266 76.9303 57.2739 76.4824 57.8264 76.4824C60.4559 76.4824 67.5434 76.4824 70.1729 76.4824C70.7254 76.4824 71.1727 76.9303 71.1727 77.4822C71.1727 83.6808 71.1727 116.802 71.1727 123.001C71.1727 123.553 70.7254 124 70.1729 124C67.5434 124 60.4559 124 57.8264 124C57.2739 124 56.8266 123.553 56.8266 123.001C56.8266 116.802 56.8266 83.6808 56.8266 77.4822Z" fill="#64E738"/>
<path fill-rule="evenodd" clip-rule="evenodd" d="M22.9938 51.7207C22.9938 51.1686 23.4411 50.7226 23.9936 50.7226C26.6231 50.7226 33.7106 50.7226 36.3401 50.7226C36.8926 50.7226 37.3399 51.1686 37.3399 51.7207C37.3399 59.8435 37.3399 114.879 37.3399 122.999C37.3399 123.551 36.8926 123.999 36.3401 123.999C33.7106 123.999 26.6231 123.999 23.9936 123.999C23.4411 123.999 22.9938 123.551 22.9938 122.999C22.9938 114.879 22.9938 59.8435 22.9938 51.7207Z" fill="#86E94B"/>
<path fill-rule="evenodd" clip-rule="evenodd" d="M96.5619 78.8769L93.6449 83.6859L116.209 85.5319L104.147 66.3729L101.23 71.182L16.4589 19.7589L11.7909 27.4539L96.5619 78.8769Z" fill="#46D516"/>
<path fill-rule="evenodd" clip-rule="evenodd" d="M98.5527 39.0938C98.4236 39.2716 98.318 39.453 98.2548 39.6642C98.1104 40.1427 98.2106 40.6969 98.5391 41.0779C98.7495 41.3225 99.0329 41.4814 99.2703 41.6953C99.663 42.0474 99.9537 42.6477 99.8462 43.1821C99.7569 43.6235 99.3182 43.8907 98.8948 43.9439C98.2376 44.027 97.6058 43.7526 97.2988 43.145C96.7942 42.144 97.9912 40.6003 96.7283 39.9305C96.5803 39.852 96.425 39.7951 96.2598 39.7663L98.5527 39.0938Z" fill="#EB17A4"/>
<path fill-rule="evenodd" clip-rule="evenodd" d="M107.426 28.1269C107.716 27.8002 108.003 27.4878 108.372 27.282C109.378 26.7205 110.326 27.4246 111.202 27.9545C111.675 28.2407 112.282 28.6108 112.841 28.4763C114.041 28.1874 114.557 26.4272 113.178 26.0489C111.695 25.6418 109.826 26.67 108.66 25.1508L107.426 28.1269Z" fill="#EB17A4"/>
<path fill-rule="evenodd" clip-rule="evenodd" d="M77.2347 23.1008C77.1535 23.4077 77.0352 23.702 76.8655 23.971C76.6164 24.3645 76.2553 24.7247 75.7895 24.8366C74.718 25.093 73.2502 24.2905 72.3177 25.1508C71.295 26.0941 72.111 28.0764 73.5418 27.8562C74.9699 27.6359 76.2634 25.5408 77.7836 26.6872L77.2347 23.1008Z" fill="#EB17A4"/>
<path fill-rule="evenodd" clip-rule="evenodd" d="M90.795 9.40062C90.9891 9.16502 91.1714 8.90505 91.3059 8.63063C92.0542 7.10507 90.1252 6.43618 90.2399 5.02617C90.2931 4.36178 91.0974 3.92849 91.7058 4.00973C92.2357 4.08105 92.7376 4.45747 93.0029 4.91333C93.4931 5.75825 93.0896 6.64922 92.9596 7.52483C92.8594 8.20365 93.0418 8.90234 93.4109 9.47284L90.795 9.40062Z" fill="#EB17A4"/>
<path fill-rule="evenodd" clip-rule="evenodd" d="M102.982 13.6153C102.683 12.5266 102.82 11.4271 103.813 10.5903C104.653 9.88353 106.096 9.42045 106.246 8.16029C106.29 7.78928 106.262 7.31537 106.04 7.00033C105.485 6.21319 104.092 5.93606 103.443 6.73855C102.938 7.36321 102.956 8.26771 102.674 8.98987C102.174 10.2744 100.989 11.2159 99.6631 11.5499C93.3722 8.22799 86.3375 7.85247 80.4014 13.645C80.1387 13.9014 79.8661 14.248 79.5944 14.6615C79.5123 14.7156 79.4292 14.7644 79.3435 14.8059C78.5491 15.1914 77.6825 14.7915 77.0885 14.221C76.3537 13.5151 75.9502 12.5392 75.3418 11.7322C74.9654 11.2322 74.4924 10.7835 73.8307 10.7537C73.1293 10.7221 72.5805 11.3694 72.4442 12.0121C72.2546 12.9057 72.6401 13.8996 73.3848 14.4322C73.9959 14.8682 74.6838 14.9106 75.396 15.0469C76.4819 15.2527 77.6545 15.6337 78.216 16.6655C78.2747 16.7738 78.3189 16.892 78.3514 17.0148C77.6654 18.5855 77.1012 20.3882 76.8719 21.9137C76.0008 27.6945 80.507 34.6453 86.1155 38.1865C86.0062 39.1253 85.0936 39.9287 84.2153 40.4713C83.4047 40.9722 82.2501 41.1997 82.2285 42.3714C82.2077 43.4971 83.6646 44.5279 84.7262 44.3276C85.3455 44.2102 85.814 43.6541 86.1155 43.1423C86.815 41.9517 86.8358 40.1688 87.818 39.1885C87.9407 39.2445 88.0644 39.2996 88.1881 39.3537C93.1935 41.5066 98.0734 40.2754 101.92 37.2333C102.975 37.4238 103.716 38.0557 104.266 39.1299C104.651 39.8836 104.808 40.6843 105.457 41.281C105.846 41.6375 106.343 41.9192 106.887 41.8722C107.912 41.7838 108.741 40.5678 108.56 39.5938C108.37 38.5666 107.218 38.2461 106.428 37.7939C105.506 37.2667 104.467 36.3532 104.521 35.1869C104.531 34.9748 104.581 34.7717 104.651 34.574C105.816 33.1937 106.821 31.6321 107.621 29.963C108.679 27.7595 109.746 25.1291 109.592 22.6891C109.328 18.5349 106.196 15.9343 103.05 13.664L102.982 13.6153Z" fill="#FB49BF"/>
<path fill-rule="evenodd" clip-rule="evenodd" d="M88.1807 30.103C88.9182 29.1759 90.5828 29.1759 91.3745 29.4494C92.7321 29.9179 93.985 32.1178 93.1329 33.4664C92.2636 34.843 89.9157 34.7951 88.9182 33.6162C88.252 32.8282 87.2365 31.29 88.1807 30.103Z" fill="#EB17A4"/>
<path fill-rule="evenodd" clip-rule="evenodd" d="M96.0414 25.1571C96.2454 24.1885 96.9107 23.2325 97.6645 22.4887C98.3424 21.8216 99.4157 21.6853 99.9419 21.7973C101.88 22.2098 103.033 24.3419 102.859 26.188C102.61 28.8328 99.6233 31.484 97.1969 29.323C96.8755 29.0368 96.6354 28.6803 96.4431 28.2984C96.148 27.7099 95.8383 26.1248 96.0414 25.1571Z" fill="#EB17A4"/>
<path fill-rule="evenodd" clip-rule="evenodd" d="M92.8657 14.5839C93.5075 14.9793 94.0672 15.7998 94.3985 16.5761C95.4907 19.1353 93.605 22.0988 91.0351 22.7063C90.2046 22.9022 89.0925 23.0484 88.2214 22.7361C86.4277 22.0916 86.2977 19.7888 86.6525 18.4284C86.8673 17.6016 87.2501 16.8885 87.7791 16.2268C88.4796 15.3512 89.6964 14.4765 90.544 14.202C91.2562 13.9727 92.223 14.1885 92.8657 14.5839Z" fill="#EB17A4"/>
</svg>
