<svg width="128" height="128" viewBox="0 0 128 128" fill="none" xmlns="http://www.w3.org/2000/svg">
<path fill-rule="evenodd" clip-rule="evenodd" d="M97.1196 52.3613C94.9242 48.9199 91.3214 42.6826 87.9695 36.7874C86.3747 33.9827 85.2389 28.867 81.9382 27.5229C78.4837 26.1167 76.2687 28.4571 75.2811 31.3578C74.3131 29.8677 73.211 28.456 72.2322 27.6897C70.8848 26.6367 69.0938 27.1556 67.8086 28.0265C65.1161 29.8491 64.7979 30.8684 64.6867 33.9816C64.6376 35.3584 64.7978 36.7449 65.1172 38.1282C65.0845 38.1097 65.0529 38.0912 65.0202 38.0737C64.2942 37.6748 63.3012 37.9211 62.5959 38.2449C60.5651 39.1791 59.6396 41.369 59.4347 43.5001C59.2472 45.4502 59.8926 47.3808 60.7123 49.1968C60.2752 48.7891 59.8151 48.485 59.3693 48.4109C58.6673 48.2932 58.0285 48.8327 57.5391 49.2513C56.0522 50.5278 55.4025 52.5684 55.4625 54.475C55.5366 56.8055 56.8567 59.0511 57.9914 61.0078C59.6211 63.8191 69.4426 81.0509 72.4665 86.5209C75.4707 91.9549 78.8772 96.1473 83.5492 100.346C87.8583 104.218 88.109 103.71 92.1161 107.855C94.6571 110.484 98.069 114.324 99.4643 117.792C101.86 123.747 126.661 106.41 123.761 102.879C120.409 98.794 117.682 94.2484 116.58 89.0259C115.646 84.6056 115.407 79.503 115.407 75.0708C115.407 66.8473 115.509 59.2952 115.407 54.003C115.303 48.7117 117.346 41.6459 114.502 39.5213C112.957 38.368 108.109 39.6075 106.523 43.9536C104.183 50.3632 103.078 58.5965 103.078 58.5965C101.613 58.2183 98.9422 55.2184 97.1196 52.3613Z" fill="#FAC7A2"/>
<path fill-rule="evenodd" clip-rule="evenodd" d="M101.395 57.538C101.256 57.417 97.3479 63.726 96.7649 67.191C96.4189 69.248 96.5139 71.489 96.8039 73.547C97.3839 77.66 100.234 80.635 100.234 80.635C100.234 80.635 99.3109 78.354 99.1549 77.66C98.7019 75.64 98.5089 73.747 98.5309 71.677C98.5579 69.179 98.5579 66.829 100.234 63.779C100.916 62.537 102.85 59.994 103.079 58.596C102.616 58.475 102.033 58.093 101.395 57.538Z" fill="#F59B67"/>
<path fill-rule="evenodd" clip-rule="evenodd" d="M89.8189 54.797C88.6039 53.86 86.361 50.331 85.502 49.122C83.811 46.743 78.43 36.691 77.658 34.174C76.88 31.638 76.3989 29.359 78.2889 27.476C76.8649 28.15 75.8649 29.658 75.2859 31.357C75.5179 31.786 75.937 33.226 76.326 34.337C78.211 39.729 80.5819 44.612 83.5919 49.412C84.3419 50.608 87.31 54.363 87.732 55.967C88.08 57.289 87.5329 57.751 86.1249 59.034C85.4689 59.631 83.1009 61.823 81.4089 60.762C80.0779 59.927 78.117 56.436 77.417 55.424C73.641 49.963 70.5349 45.055 67.8679 38.96C66.5289 35.901 64.7569 32.581 66.0709 29.423C64.9589 30.578 64.771 31.734 64.691 33.981C64.642 35.358 64.802 36.745 65.121 38.129C65.625 38.519 66.0629 39.519 66.4449 40.261C67.3629 42.044 68.358 44.218 69.379 45.945C70.988 48.663 72.625 51.536 74.171 54.293C75.227 56.175 78.3899 60.902 79.2589 62.368C79.3829 62.578 79.4259 62.847 79.3849 63.089C79.2029 64.17 78.67 64.473 78.011 65.317C77.273 66.26 75.19 67.204 74.378 66.688C74.049 66.479 71.7579 63.267 70.8359 61.904C68.9189 59.068 67.022 56.557 65.121 53.712C62.69 50.072 59.9639 46.047 59.7319 41.918C59.5859 42.435 59.49 42.97 59.439 43.5C59.252 45.45 59.897 47.381 60.717 49.197C60.717 49.197 62.3149 52.235 63.2679 53.712C64.8929 56.232 66.375 58.842 68.025 61.347C69.515 63.609 71.1499 65.874 72.8279 67.996C72.9419 68.141 73.1709 68.799 72.8279 69.716C72.3269 71.052 70.7609 72.413 70.8379 72.376C71.5039 72.054 73.63 70.936 74.171 70.468C75.385 69.419 77.196 68.462 78.421 67.424C80.223 65.899 85.1959 62.33 86.1249 61.591C87.6039 60.414 88.5539 59.034 90.3449 57.389C90.8079 56.963 92.8939 54.733 92.7939 54.743C91.7909 54.836 90.6049 55.402 89.8189 54.797Z" fill="#F59B67"/>
<path fill-rule="evenodd" clip-rule="evenodd" d="M72.4701 86.5205C75.4741 91.9545 78.8811 96.1475 83.5531 100.347C87.8621 104.219 88.1131 103.711 92.1201 107.855C94.6611 110.484 98.0731 114.324 99.4691 117.792C100.367 120.025 104.416 118.983 108.973 116.621C102.403 116.621 99.8751 110.27 94.9961 105.871C88.1181 99.6695 81.2181 98.1425 72.4701 86.5205Z" fill="#F59B67"/>
<path fill-rule="evenodd" clip-rule="evenodd" d="M71.034 63.033C67.991 68.56 67.44 72.03 67.172 73.486C66.896 74.977 67.269 76.562 67.686 78.012C63.77 71.096 59.077 62.874 57.995 61.007C56.861 59.051 55.541 56.806 55.466 54.475C55.406 52.568 56.056 50.528 57.543 49.251C58.032 48.832 58.67 48.293 59.373 48.41C59.818 48.485 60.278 48.789 60.716 49.197C59.896 47.381 59.251 45.45 59.438 43.5C59.643 41.369 60.568 39.179 62.599 38.245C63.305 37.921 64.297 37.675 65.024 38.073C65.056 38.091 65.089 38.11 65.12 38.129C64.978 37.513 64.867 36.896 64.793 36.28C65.484 36.091 66.196 36.046 66.875 36.223C67.984 36.512 69.059 37.08 69.592 37.964C70.269 39.086 70.619 40.494 70.619 41.804C70.619 42.755 70.388 44.392 70.619 45.316C70.939 46.597 73.287 48.879 73.711 49.554C76.804 54.475 73.147 59.196 71.034 63.033Z" fill="#F59B67"/>
<path fill-rule="evenodd" clip-rule="evenodd" d="M30.8767 52.3613C33.0721 48.9199 36.6747 42.6826 40.0267 36.7874C41.6226 33.9827 42.7584 28.867 46.0592 27.5229C49.5125 26.1167 51.7276 28.4571 52.7152 31.3578C53.6842 29.8677 54.7863 28.456 55.7652 27.6897C57.1114 26.6367 58.9035 27.1556 60.1887 28.0265C62.8812 29.8491 63.1995 30.8684 63.3106 33.9816C63.3597 35.3584 63.1995 36.7449 62.8801 38.1282C62.9117 38.1097 62.9444 38.0912 62.976 38.0737C63.7031 37.6748 64.695 37.9211 65.4003 38.2449C67.4322 39.1791 68.3577 41.369 68.5626 43.5001C68.749 45.4502 68.1037 47.3808 67.284 49.1968C67.7222 48.7891 68.1822 48.485 68.6269 48.4109C69.33 48.2932 69.9688 48.8327 70.4572 49.2513C71.944 50.5278 72.5948 52.5684 72.5337 54.475C72.4596 56.8055 71.1396 59.0511 70.0048 61.0078C68.3752 63.8191 58.5536 81.0509 55.5297 86.5209C52.5266 91.9549 49.1201 96.1473 44.4469 100.346C40.139 104.218 39.8872 103.71 35.8812 107.855C33.3391 110.484 29.9272 114.324 28.5319 117.792C26.1359 123.747 1.33679 106.41 4.23529 102.879C7.58727 98.794 10.3146 94.2484 11.4178 89.0259C12.3509 84.6056 12.5907 79.503 12.5907 75.0708C12.5907 66.8473 12.4882 59.2952 12.5907 54.003C12.6931 48.7117 10.6504 41.6459 13.4955 39.5213C15.039 38.368 19.8876 39.6075 21.4737 43.9536C23.813 50.3632 24.9183 58.5965 24.9183 58.5965C26.3834 58.2183 29.0552 55.2184 30.8767 52.3613Z" fill="#FAC7A2"/>
<path fill-rule="evenodd" clip-rule="evenodd" d="M26.606 57.538C26.745 57.417 30.653 63.726 31.236 67.191C31.582 69.248 31.486 71.489 31.197 73.547C30.617 77.66 27.767 80.635 27.767 80.635C27.767 80.635 28.69 78.354 28.846 77.66C29.299 75.64 29.492 73.747 29.47 71.677C29.443 69.179 29.443 66.829 27.767 63.779C27.085 62.537 25.151 59.994 24.922 58.596C25.384 58.475 25.967 58.093 26.606 57.538Z" fill="#F59B67"/>
<path fill-rule="evenodd" clip-rule="evenodd" d="M55.462 86.5205C52.458 91.9545 49.051 96.1475 44.379 100.347C40.07 104.219 39.819 103.711 35.812 107.855C33.271 110.484 29.859 114.324 28.463 117.792C27.565 120.025 23.516 118.983 18.959 116.621C25.529 116.621 28.057 110.27 32.936 105.871C39.814 99.6695 46.714 98.1425 55.462 86.5205Z" fill="#F59B67"/>
<path fill-rule="evenodd" clip-rule="evenodd" d="M38.182 54.797C39.397 53.86 41.639 50.331 42.499 49.122C44.19 46.743 49.571 36.691 50.343 34.174C51.121 31.638 51.602 29.359 49.712 27.476C51.136 28.15 52.136 29.658 52.715 31.357C52.483 31.786 52.064 33.226 51.675 34.337C49.79 39.729 47.419 44.612 44.409 49.412C43.659 50.608 40.691 54.363 40.269 55.967C39.921 57.289 40.468 57.751 41.876 59.034C42.532 59.631 44.9 61.823 46.592 60.762C47.923 59.927 49.884 56.436 50.584 55.424C54.36 49.963 57.465 45.055 60.133 38.96C61.472 35.901 63.244 32.581 61.93 29.423C63.042 30.578 63.23 31.734 63.31 33.981C63.359 35.358 63.199 36.745 62.88 38.129C62.375 38.519 61.937 39.519 61.556 40.261C60.637 42.044 59.643 44.218 58.622 45.945C57.013 48.663 55.376 51.536 53.83 54.293C52.774 56.175 49.611 60.902 48.742 62.368C48.618 62.578 48.575 62.847 48.616 63.089C48.798 64.17 49.331 64.473 49.99 65.317C50.727 66.26 52.811 67.204 53.623 66.688C53.952 66.479 56.243 63.267 57.165 61.904C59.082 59.068 60.979 56.557 62.88 53.712C65.311 50.072 68.037 46.047 68.269 41.918C68.415 42.435 68.511 42.97 68.562 43.5C68.749 45.45 68.104 47.381 67.284 49.197C67.284 49.197 65.686 52.235 64.733 53.712C63.108 56.232 61.626 58.842 59.976 61.347C58.486 63.609 56.851 65.874 55.173 67.996C55.059 68.141 54.83 68.799 55.173 69.716C55.673 71.052 57.24 72.413 57.163 72.376C56.497 72.054 54.371 70.936 53.83 70.468C52.616 69.419 50.805 68.462 49.579 67.424C47.777 65.899 42.804 62.33 41.876 61.591C40.397 60.414 39.447 59.034 37.656 57.389C37.193 56.963 35.107 54.733 35.206 54.743C36.21 54.836 37.396 55.402 38.182 54.797Z" fill="#F59B67"/>
<path d="M81.1007 26.2346C85.8674 26.2346 89.7315 22.3704 89.7315 17.6037C89.7315 12.837 85.8674 8.97288 81.1007 8.97288C76.334 8.97288 72.4698 12.837 72.4698 17.6037C72.4698 22.3704 76.334 26.2346 81.1007 26.2346Z" fill="#86E94B"/>
<path d="M36.32 48.2517C40.6229 48.2517 44.111 44.7635 44.111 40.4607C44.111 36.1579 40.6229 32.6697 36.32 32.6697C32.0172 32.6697 28.5291 36.1579 28.5291 40.4607C28.5291 44.7635 32.0172 48.2517 36.32 48.2517Z" fill="#86E94B"/>
<path d="M98.6251 57.5373C101.844 57.5373 104.453 54.9279 104.453 51.709C104.453 48.4901 101.844 45.8807 98.6251 45.8807C95.4062 45.8807 92.7968 48.4901 92.7968 51.709C92.7968 54.9279 95.4062 57.5373 98.6251 57.5373Z" fill="#86E94B"/>
<path fill-rule="evenodd" clip-rule="evenodd" d="M85.0273 9.91722C87.8187 11.3473 89.7315 14.2542 89.7315 17.6037C89.7315 22.3671 85.8641 26.2338 81.1007 26.2338C77.7512 26.2338 74.845 24.3217 73.4142 21.5303C74.9291 23.4731 77.2925 24.724 79.9449 24.724C84.5123 24.724 88.221 21.0154 88.221 16.4472C88.221 13.7948 86.9701 11.4321 85.0273 9.91722Z" fill="#46D516"/>
<path fill-rule="evenodd" clip-rule="evenodd" d="M39.8646 33.5222C42.3843 34.8131 44.111 37.4372 44.111 40.4607C44.111 44.7606 40.62 48.251 36.32 48.251C33.2965 48.251 30.6731 46.525 29.3815 44.0052C30.749 45.759 32.8825 46.8882 35.2768 46.8882C39.3997 46.8882 42.7475 43.5404 42.7475 39.4168C42.7475 37.0225 41.6184 34.8897 39.8646 33.5222Z" fill="#46D516"/>
<path fill-rule="evenodd" clip-rule="evenodd" d="M101.277 46.5184C103.162 47.4841 104.453 49.4471 104.453 51.709C104.453 54.9257 101.842 57.5368 98.625 57.5368C96.3632 57.5368 94.4006 56.2456 93.4344 54.3606C94.4574 55.6726 96.0534 56.5173 97.8446 56.5173C100.929 56.5173 103.433 54.0129 103.433 50.928C103.433 49.1369 102.589 47.5414 101.277 46.5184Z" fill="#46D516"/>
<path fill-rule="evenodd" clip-rule="evenodd" d="M83.2596 15.4466H84.9767C85.1197 15.4466 85.2574 15.5038 85.3583 15.6047C85.4598 15.7062 85.5165 15.8433 85.5165 15.9864C85.5165 16.816 85.5165 18.3954 85.5165 19.2251C85.5165 19.3681 85.4598 19.5057 85.3583 19.6067C85.2574 19.7082 85.1197 19.7649 84.9767 19.7649C84.309 19.7649 83.2596 19.7649 83.2596 19.7649V21.4819C83.2596 21.6249 83.2029 21.7621 83.102 21.8635C83.0005 21.9645 82.8634 22.0217 82.7198 22.0217C81.8902 22.0217 80.3108 22.0217 79.4811 22.0217C79.3381 22.0217 79.201 21.9645 79.0995 21.8635C78.9985 21.7621 78.9413 21.6249 78.9413 21.4819C78.9413 20.8142 78.9413 19.7649 78.9413 19.7649H77.2248C77.0817 19.7649 76.9441 19.7082 76.8432 19.6067C76.7417 19.5057 76.685 19.3681 76.685 19.2251C76.685 18.3954 76.685 16.816 76.685 15.9864C76.685 15.8433 76.7417 15.7062 76.8432 15.6047C76.9441 15.5038 77.0817 15.4466 77.2248 15.4466C77.892 15.4466 78.9413 15.4466 78.9413 15.4466V13.7295C78.9413 13.5865 78.9985 13.4494 79.0995 13.3479C79.201 13.247 79.3381 13.1897 79.4811 13.1897C80.3108 13.1897 81.8902 13.1897 82.7198 13.1897C82.8634 13.1897 83.0005 13.247 83.102 13.3479C83.2029 13.4494 83.2596 13.5865 83.2596 13.7295C83.2596 14.3972 83.2596 15.4466 83.2596 15.4466Z" fill="white"/>
<path fill-rule="evenodd" clip-rule="evenodd" d="M38.2689 38.5117H39.8189C39.948 38.5117 40.0723 38.5633 40.1634 38.6544C40.255 38.746 40.3062 38.8698 40.3062 38.9989C40.3062 39.7478 40.3062 41.1735 40.3062 41.9225C40.3062 42.0516 40.255 42.1758 40.1634 42.2669C40.0723 42.3585 39.948 42.4097 39.8189 42.4097C39.2162 42.4097 38.2689 42.4097 38.2689 42.4097V43.9597C38.2689 44.0888 38.2178 44.2126 38.1266 44.3042C38.035 44.3953 37.9113 44.4469 37.7817 44.4469C37.0327 44.4469 35.607 44.4469 34.8581 44.4469C34.729 44.4469 34.6052 44.3953 34.5136 44.3042C34.4225 44.2126 34.3708 44.0888 34.3708 43.9597C34.3708 43.3569 34.3708 42.4097 34.3708 42.4097H32.8214C32.6922 42.4097 32.568 42.3585 32.4769 42.2669C32.3853 42.1758 32.3341 42.0516 32.3341 41.9225C32.3341 41.1735 32.3341 39.7478 32.3341 38.9989C32.3341 38.8698 32.3853 38.746 32.4769 38.6544C32.568 38.5633 32.6922 38.5117 32.8214 38.5117C33.4236 38.5117 34.3708 38.5117 34.3708 38.5117V36.9617C34.3708 36.8326 34.4225 36.7088 34.5136 36.6172C34.6052 36.5261 34.729 36.4744 34.8581 36.4744C35.607 36.4744 37.0327 36.4744 37.7817 36.4744C37.9113 36.4744 38.035 36.5261 38.1266 36.6172C38.2178 36.7088 38.2689 36.8326 38.2689 36.9617C38.2689 37.5644 38.2689 38.5117 38.2689 38.5117Z" fill="white"/>
<path fill-rule="evenodd" clip-rule="evenodd" d="M100.083 50.2497H101.242C101.339 50.2497 101.432 50.2883 101.5 50.3565C101.569 50.425 101.607 50.5176 101.607 50.6142C101.607 51.1745 101.607 52.241 101.607 52.8013C101.607 52.8979 101.569 52.9908 101.5 53.059C101.432 53.1275 101.339 53.1658 101.242 53.1658C100.791 53.1658 100.083 53.1658 100.083 53.1658V54.3252C100.083 54.4218 100.045 54.5144 99.9764 54.583C99.9079 54.6511 99.8153 54.6898 99.7184 54.6898C99.1581 54.6898 98.0916 54.6898 97.5313 54.6898C97.4347 54.6898 97.3422 54.6511 97.2736 54.583C97.2055 54.5144 97.1668 54.4218 97.1668 54.3252C97.1668 53.8744 97.1668 53.1658 97.1668 53.1658H96.0077C95.9111 53.1658 95.8182 53.1275 95.75 53.059C95.6815 52.9908 95.6432 52.8979 95.6432 52.8013C95.6432 52.241 95.6432 51.1745 95.6432 50.6142C95.6432 50.5176 95.6815 50.425 95.75 50.3565C95.8182 50.2883 95.9111 50.2497 96.0077 50.2497C96.4582 50.2497 97.1668 50.2497 97.1668 50.2497V49.0902C97.1668 48.9936 97.2055 48.9011 97.2736 48.8325C97.3422 48.7644 97.4347 48.7257 97.5313 48.7257C98.0916 48.7257 99.1581 48.7257 99.7184 48.7257C99.8153 48.7257 99.9079 48.7644 99.9764 48.8325C100.045 48.9011 100.083 48.9936 100.083 49.0902C100.083 49.5411 100.083 50.2497 100.083 50.2497Z" fill="white"/>
</svg>
