<svg width="128" height="128" viewBox="0 0 128 128" fill="none" xmlns="http://www.w3.org/2000/svg">
<path fill-rule="evenodd" clip-rule="evenodd" d="M84.7937 50.8978C89.904 52.5518 95.1674 53.6686 100.405 51.9308C103.073 51.046 108.347 48.4988 110.935 47.4318C112.155 46.9274 113.51 46.3733 114.761 47.0392C116.926 48.1925 118.119 50.7471 119.015 52.9079C121.339 58.5103 122.924 65.0692 123.519 71.0909C123.728 73.2067 124.557 76.8258 123.385 78.78C122.63 80.039 120.782 80.4814 119.469 80.8192C116.604 81.5545 111.016 83.2778 108.323 84.5453C105.299 85.9672 102.543 87.6844 99.7575 89.5182C98.1011 90.6071 96.2684 92.1092 94.324 92.6257C92.1547 93.2018 89.2344 92.3025 87.2462 91.4627C80.8283 88.7514 76.2746 81.6639 72.444 76.1149C69.0631 71.2173 65.173 65.6258 64.5289 59.5323L84.7937 50.8978Z" fill="#FAC7A2"/>
<path fill-rule="evenodd" clip-rule="evenodd" d="M90.3841 92.5029C89.7035 90.8818 88.9415 89.3238 87.9122 87.8156C86.2825 85.4276 84.1229 83.3908 81.9658 81.4925C78.2738 78.2428 75.0483 74.9336 72.619 70.6327C72.0709 69.6617 71.5982 68.6604 71.3466 67.5715C71.3186 67.4524 71.106 66.6794 71.2761 66.5895C71.3284 66.5615 71.6225 66.7292 71.6808 66.7511C72.1123 66.9249 72.5425 67.1011 72.9873 67.2397C74.5611 67.727 76.0607 67.5885 77.6588 67.7513C77.8569 67.772 78.4499 68.6737 78.6006 68.856C79.4173 69.8452 80.3871 70.6911 81.3496 71.5333C84.6187 74.3928 87.838 76.9182 90.4338 80.4704C91.2821 81.6323 92.0708 82.8317 92.7842 84.0798C92.9835 84.4298 93.6811 85.5163 95.0556 85.5163C97.1447 85.5163 98.6747 85.1736 100.571 84.312C102.403 83.4807 104.047 82.2958 105.914 81.5205C109.08 80.2031 115.555 79.5031 118.673 78.0885C120.139 77.425 121.506 76.5816 122.228 75.0831C122.73 74.0441 122.837 72.8616 122.948 71.7277C123.074 70.4201 123.129 69.1392 123.109 67.8327C123.276 68.9301 123.413 70.019 123.519 71.0909C123.728 73.2067 124.557 76.8258 123.385 78.78C122.63 80.039 120.782 80.4814 119.469 80.8192C116.604 81.5545 111.016 83.2777 108.323 84.5453C105.299 85.9672 102.543 87.6844 99.7575 89.5182C98.1011 90.6071 96.2684 92.1092 94.3239 92.6257C93.1427 92.9393 91.7391 92.8153 90.3841 92.5029Z" fill="#F59B67"/>
<path fill-rule="evenodd" clip-rule="evenodd" d="M32.5875 90.6193C32.0747 90.5463 31.5873 90.4236 31.1438 90.2388C29.2856 89.4635 27.6729 87.7269 26.1805 86.4241C23.6686 84.2305 21.1699 82.156 18.3662 80.3379C15.8701 78.7179 10.648 75.9398 7.90875 74.823C6.65336 74.3113 4.8827 73.6223 4.30544 72.2733C3.40735 70.1782 4.71986 66.7049 5.21205 64.6365C6.61691 58.7509 9.07542 52.4666 12.1355 47.23C13.3155 45.2102 14.8432 42.8404 17.1437 41.9921C18.4744 41.5011 19.742 42.2339 20.8831 42.8975C23.3027 44.3048 25.4149 46.1933 27.9366 47.4317C32.8913 49.8622 43.2492 51.1809 48.7727 51.1809C58.1717 51.1809 64.5689 58.7824 67.8867 61.0927C71.9044 63.8915 84.5737 77.16 87.1708 80.293C90.6137 84.4468 93.9496 90.0845 93.664 95.7004C93.534 98.2427 91.3343 100.681 88.7749 100.997C87.6228 101.14 86.5838 100.762 85.4718 100.774C85.3831 100.775 84.8398 102.313 84.7657 102.48C84.2735 103.596 83.5261 104.673 82.5539 105.421C81.2013 106.464 79.4938 106.784 77.8119 106.733C77.3148 106.717 76.1032 106.33 75.6329 106.499C75.5588 106.526 75.3084 108.24 75.2513 108.423C74.7834 109.924 73.9071 111.263 72.67 112.24C71.3247 113.304 69.5832 113.758 67.8867 113.537C67.5294 113.491 65.5168 112.706 65.4026 112.779C63.3913 114.056 62.2708 115.993 59.6167 116.265C55.0229 116.736 51.4645 112.317 48.7727 109.23C43.3416 103.003 37.5325 97.2085 32.5875 90.6193Z" fill="#FAC7A2"/>
<path fill-rule="evenodd" clip-rule="evenodd" d="M22.2855 83.1636C21.0265 82.1707 19.7334 81.224 18.3663 80.338C15.8701 78.718 10.648 75.9399 7.90875 74.8231C6.65337 74.3114 4.8827 73.6224 4.30544 72.2734C3.40735 70.1783 4.71986 66.705 5.21205 64.6366C5.52559 63.3241 5.89136 61.9933 6.30335 60.6577C5.96307 62.0857 5.57782 63.6352 5.4174 65.0959C5.29344 66.2274 5.15612 67.4074 5.43442 68.5279C5.83547 70.1406 7.00214 71.2465 8.30006 72.1956C11.0636 74.2167 17.2786 76.3507 20.109 78.2866C21.3073 79.1057 22.35 80.1083 23.4449 81.049C26.426 77.126 30.338 78.3 32.2813 80.2894C32.7467 80.7646 33.1587 81.2774 33.5197 81.8267C34.0738 81.3649 34.6827 80.9639 35.3207 80.6479C37.1218 79.7571 39.6581 79.4642 41.5916 80.2894C43.4911 81.1 45.0843 82.6155 45.7709 84.425C46.2109 85.5832 46.2364 86.8155 46.1878 88.0356L46.3069 88.0453C48.0933 88.2131 49.706 89.1427 50.8909 90.4589C52.7746 92.5504 53.3774 95.5984 53.5111 98.3096C53.5475 99.0607 53.5718 99.8117 53.5864 100.563C53.7347 100.634 53.8841 100.704 54.0288 100.779C54.7166 101.134 55.3583 101.565 55.9149 102.282C57.5349 104.37 57.9882 106.962 56.9576 110.981C56.8628 111.35 56.8337 111.737 56.8713 112.118C57.005 113.481 58.3017 114.291 59.5122 114.554C60.4832 114.765 61.5319 114.754 62.4969 114.507C62.8165 114.425 63.8787 113.948 63.8787 113.948C62.6488 115.005 61.532 116.069 59.6167 116.265C55.0229 116.736 51.4645 112.317 48.7727 109.23C43.3416 103.003 37.5325 97.2086 32.5875 90.6193C32.0747 90.5464 31.5873 90.4236 31.1438 90.2389C29.2856 89.4636 27.6729 87.727 26.1806 86.4242C24.8924 85.3 23.609 84.2063 22.2855 83.1636Z" fill="#F59B67"/>
<path fill-rule="evenodd" clip-rule="evenodd" d="M64.7103 64.1463C61.265 64.2484 57.7829 64.3467 54.4014 64.8559C49.8719 65.5366 45.4726 66.9193 40.8375 66.3029C39.5815 66.1365 38.2751 65.858 37.1884 65.1559C35.09 63.7997 34.0181 61.1036 34.8788 58.676L39.0412 58.6167C41.74 58.3167 44.2779 57.597 46.9092 56.9743C50.1433 56.208 53.4056 55.5488 56.6815 54.9942C60.4227 54.3615 64.1639 54.4068 67.9015 55.0156C71.2891 55.5677 75.4932 56.3 77.8728 59.102C78.6488 60.0158 79.243 61.6355 79.0159 62.9615C80.2265 63.4808 81.3979 64.0745 82.4341 64.8181C83.0898 65.2883 84.7892 65.5 84.8653 66.3937C84.8715 66.4681 82.7706 67.6907 82.277 67.8331C80.0288 68.486 78.289 68.7608 75.9549 68.4658C73.4133 68.1444 71.0595 67.489 68.7438 66.3937C67.3527 65.7357 66.0376 64.9265 64.7103 64.1463Z" fill="#F59B67"/>
<path fill-rule="evenodd" clip-rule="evenodd" d="M88.1139 51.8687C84.6272 50.7725 80.9389 49.5561 77.4498 48.472C74.1856 47.4573 70.886 46.1338 67.4103 46.4862C62.7387 46.959 58.0393 49.8283 53.6217 51.3522C50.908 52.288 48.1894 53.1861 45.5109 54.2228C42.9576 55.212 40.4881 56.3361 37.8364 57.0483C37.4414 57.154 35.1725 57.5077 35.023 57.8042C34.8018 58.238 34.9756 59.1459 35.0376 59.6308C35.4423 62.8051 38.3747 64.0848 41.2951 64.2622C45.2265 64.5004 48.983 63.0214 52.816 62.443C56.8629 61.8317 61.0337 62.1853 65.1146 61.6725C65.6554 61.6044 66.5414 62.336 66.9644 62.5936C68.402 63.4699 69.7813 64.4202 71.3017 65.1542C75.2173 67.044 79.1682 67.5095 83.4326 66.7596C89.091 65.7643 93.562 62.889 95.3704 57.2439L88.1139 51.8687Z" fill="#FAC7A2"/>
<path fill-rule="evenodd" clip-rule="evenodd" d="M23.0269 82.2132C21.8384 84.2524 20.7191 90.1235 23.5798 93.0171C24.5363 93.9844 25.7491 94.552 27.0543 94.8935C27.4736 95.0028 27.8917 95.0855 28.3243 95.1158C28.5358 95.1304 28.966 94.9214 28.9587 95.1329C28.9234 95.9981 28.7278 96.7006 28.9016 97.5914C29.3549 99.9004 31.5023 102.011 33.6886 102.697C34.4821 102.946 35.3304 103.109 36.1629 103.134C36.3853 103.142 37.112 102.961 37.2931 103.049C37.3235 103.064 37.2591 103.426 37.2518 103.483C37.1983 103.962 37.1473 104.442 37.1424 104.923C37.1327 106.128 37.5605 107.23 38.444 108.063C39.5511 109.109 41.0058 109.796 42.5504 109.692C43.0767 109.656 43.6235 109.511 44.1291 109.367C44.2943 109.32 44.4609 109.274 44.6237 109.218C44.7076 109.189 44.8801 109.037 44.8728 109.126C44.7914 110.142 44.1813 110.679 44.6577 111.748C46.0589 114.892 51.5508 115.213 53.4309 112.516C55.2222 109.946 55.921 105.623 53.8769 102.988C53.1258 102.02 51.7647 100.963 51.1862 101.21C51.1157 101.159 51.1741 100.562 51.1717 100.452C51.1583 99.6294 51.1328 98.8091 51.0927 97.9863C50.9784 95.6749 50.5458 93.0499 48.9392 91.267C48.0569 90.2875 46.8683 89.5729 45.5388 89.4477C45.0916 89.4052 44.7039 89.353 44.281 89.4951C44.0707 89.5656 43.8301 89.709 43.6758 89.8415C43.5008 89.534 43.7159 88.5703 43.7353 88.2276C43.7997 87.0342 43.9018 85.8007 43.4692 84.6595C42.4301 81.9191 38.5376 80.1715 35.8578 81.4974C35.0424 81.9008 34.2877 82.4781 33.6752 83.1526C33.4091 83.4467 33.1465 83.9863 32.8403 84.2196C32.7273 84.3059 32.7236 83.962 32.6641 83.8344C32.5353 83.55 32.4052 83.2656 32.2667 82.9849C31.862 82.1694 31.3443 81.4305 30.7063 80.7791C29.1641 79.1993 25.2156 78.4543 23.0269 82.2132Z" fill="#FAC7A2"/>
<path fill-rule="evenodd" clip-rule="evenodd" d="M6.32699 55.487C6.92999 54.905 8.49999 54.592 9.55099 55.075C11.203 55.834 11.561 57.949 10.055 59.066C8.82796 59.977 6.98396 59.534 5.93496 58.567C5.22196 57.911 5.72399 56.069 6.32699 55.487ZM27.499 49.997C28.456 50.051 29.004 50.646 29.064 51.624C29.104 52.288 28.8719 52.948 29.4439 53.45C30.2489 54.155 31.359 53.162 30.947 52.244C30.574 51.413 29.6139 51.174 29.6129 50.105C29.6119 49.955 29.6099 49.781 29.6699 49.641L27.499 49.997ZM105.424 42.576C105.267 42.739 105.087 42.916 104.987 43.122C104.918 43.263 104.874 43.414 104.862 43.57C104.742 45.027 106.785 44.743 107.102 45.945C107.37 46.965 105.917 47.474 105.214 46.929C104.36 46.268 104.945 44.692 103.74 44.313C103.591 44.266 103.442 44.248 103.287 44.255L105.424 42.576ZM16.455 42.602C16.183 41.209 14.866 40.692 13.792 40.9C13.247 41.006 12.681 41.341 12.12 41.221C10.98 40.976 10.478 38.865 11.786 38.446C12.782 38.127 13.3 38.951 14.103 39.458C15.167 40.13 16.147 40.048 17.088 39.168L16.455 42.602ZM90.07 35.746C90.007 35.935 89.9409 36.116 89.8189 36.278C89.3549 36.897 88.5839 36.798 87.9409 36.496C87.5339 36.305 87.1669 36.022 86.7069 36.252C85.8839 36.664 86.0019 38.048 86.9879 38.134C87.8519 38.209 89.655 36.457 90.044 38.644L90.07 35.746ZM30.067 34.347C30.783 34.557 31.7369 34.746 32.0659 33.839C32.2559 33.315 32.161 32.319 32.825 32.116C33.877 31.794 34.8189 32.907 34.0349 33.796C33.4179 34.497 32.077 34.674 32.077 35.784L30.067 34.347ZM104.435 26.276C104.216 26.163 104.047 26.043 103.897 25.822C103.444 25.153 103.435 24.546 103.878 23.866C104.232 23.324 104.808 22.909 104.657 22.181C104.475 21.302 103.155 21.378 102.932 22.184C102.766 22.783 103.054 23.406 102.964 24.01C102.867 24.663 102.21 25.105 101.695 25.43L104.435 26.276ZM83.395 12.438C84.667 11.625 86.117 11.407 87.431 12.169C88.996 13.076 89.532 15.549 88.089 16.794C86.065 18.54 81.675 17.02 82.094 14.783C82.224 14.093 82.447 13.044 83.395 12.438ZM33.7169 12.71C34.3629 12.333 35.7909 12.395 36.5999 13.036C37.8719 14.043 37.734 15.953 36.192 16.603C34.936 17.133 33.4299 16.359 32.7249 15.298C32.2459 14.579 33.0709 13.087 33.7169 12.71Z" fill="#EB17A4"/>
<path fill-rule="evenodd" clip-rule="evenodd" d="M19.079 34.698C19.067 33.964 18.888 33.274 18.348 32.711C17.791 32.13 16.727 31.752 16.58 30.806C16.543 30.567 16.545 30.323 16.592 30.089C16.855 28.779 17.9241 28.773 18.6421 29.78C19.3571 30.782 18.7371 33.007 21.1551 33.095C22.5611 32.314 24.349 32.574 25.949 32.668C27.867 32.779 32.988 34.966 33.476 37.79C33.631 38.682 33.791 39.239 33.851 40.488C34.268 40.951 34.856 41.299 35.493 41.204C36.284 41.086 37.125 40.476 37.925 40.879C38.632 41.235 38.538 42.084 38.163 42.651C38.007 42.887 37.757 43.156 37.453 43.163C36.344 43.188 35.109 41.449 34.034 42.441C33.974 42.496 33.915 42.555 33.86 42.618C33.674 46.932 32.471 48.863 28.946 49.99C27.345 50.502 25.949 50.832 24.114 50.415C23.232 51.508 24.5 53.204 24.137 54.451C23.799 55.612 22.812 55.818 21.862 55.202C21.597 55.03 21.357 54.778 21.238 54.482C20.564 52.809 22.92 51.489 21.678 49.794C21.624 49.721 21.567 49.655 21.506 49.593C19.781 48.9 18.564 47.726 17.495 46.406C14.602 42.835 16.592 37.189 19.079 34.698ZM98.823 25.076C98.003 24.746 97.457 23.933 97.482 23.018C97.502 22.302 98.096 21.315 97.603 20.66C96.792 19.583 95.059 20.322 95.263 21.646C95.365 22.307 95.951 22.81 96.346 23.309C96.842 23.936 97.163 24.93 96.894 25.731C96.885 25.738 96.875 25.744 96.865 25.75C93.073 28.213 90.064 32.423 89.843 36.939C89.741 39.015 90.852 41.11 92.525 42.725C93.396 44.347 92.02 45.235 91.139 45.907C90.52 46.38 89.778 46.726 89.281 47.344C88.178 48.712 89.892 51.38 91.592 50.411C92.049 50.15 92.446 49.733 92.647 49.243C92.876 48.682 92.83 48.022 92.943 47.43C93.206 46.052 94.029 44.685 95.445 44.757C97.107 45.551 98.918 45.874 100.546 45.473C105.135 44.343 108.176 40.833 108.957 36.623C109.659 35.88 110.666 35.773 111.677 36.084C112.33 36.285 113.101 36.843 113.812 36.475C114.996 35.861 114.003 34.106 113.016 33.934C112.441 33.833 111.906 34.236 111.368 34.371C110.545 34.577 109.559 34.203 109.118 33.475C109.066 32.81 108.959 32.139 108.796 31.467C108.326 29.53 107.579 27.707 105.95 26.479C104.639 25.492 101.332 24.7 98.823 25.076ZM117.448 47.162C117.464 46.582 117.71 45.326 118.393 44.788C119.905 43.598 122.123 44.578 122.533 46.389C122.94 48.185 121.367 50.413 119.406 49.924C118.487 49.695 117.421 48.171 117.448 47.162ZM58.505 17.448C59.503 17.357 61.706 17.522 62.768 18.584C65.117 20.933 63.89 24.936 60.868 26.009C57.871 27.074 53.7301 24.832 54.1681 21.37C54.3731 19.747 56.769 17.608 58.505 17.448Z" fill="#FB49BF"/>
<path fill-rule="evenodd" clip-rule="evenodd" d="M25.329 40.9501C25.3 40.4201 24.941 39.658 24.755 39.465C24.25 38.94 23.601 38.699 22.889 38.914C22.627 38.994 22.383 39.114 22.143 39.245C21.829 39.417 21.479 39.618 21.242 39.895C20.754 40.466 20.66 41.3091 20.791 42.0281C20.989 43.1231 21.892 43.8741 22.963 44.0281C23.395 44.0911 23.911 44.031 24.278 43.775C25.184 43.144 25.387 42.0281 25.329 40.9501ZM30.99 42.496C31.281 41.107 30.12 40.613 29.408 40.501C28.629 40.379 27.935 41.155 27.883 41.879C27.861 42.184 27.89 42.505 27.99 42.794C28.056 42.985 28.165 43.1591 28.301 43.3081C29.174 44.2661 30.758 43.601 30.99 42.496ZM96.801 36.862C97.286 36.625 98.082 36.597 98.647 36.948C99.799 37.664 99.769 39.249 98.621 39.949C97.57 40.59 95.671 39.739 95.738 38.374C95.756 38.004 95.756 37.375 96.801 36.862ZM100.401 31.051C101.627 30.289 103.45 31.311 103.976 32.066C104.903 33.395 104.098 35.309 102.537 35.667C101.544 35.894 100.222 35.636 99.54 34.822C98.484 33.562 99.176 31.812 100.401 31.051Z" fill="#EB17A4"/>
<path fill-rule="evenodd" clip-rule="evenodd" d="M54.747 109.678C54.451 110.727 54.154 111.745 53.59 112.554C53.371 112.868 52.944 113.105 52.639 113.338C51.457 114.239 49.722 114.53 48.142 114.227C48.829 114.183 49.518 114.075 50.158 113.841C51.373 113.396 52.606 112.59 53.438 111.6C53.934 111.01 54.335 110.338 54.747 109.678ZM50.05 92.977C51.106 94.444 51.106 95.942 51.188 97.593C51.228 98.415 51.253 99.236 51.267 100.059C51.269 100.167 51.117 101.16 51.188 101.211C50.984 101.32 50.774 101.451 50.523 101.612C49.854 102.044 49.337 102.722 48.776 103.284C47.202 104.858 46.396 106.957 45.094 108.713C44.961 108.893 44.816 109.056 44.662 109.201C44.649 109.209 44.636 109.214 44.625 109.218C44.461 109.274 44.296 109.321 44.13 109.368C43.624 109.511 43.078 109.657 42.552 109.693C41.537 109.762 40.56 109.488 39.696 108.996C40.088 109.045 40.487 109.071 40.881 109.05C41.725 109.005 42.512 108.384 43.151 107.885C44.296 106.994 45.0039 105.702 45.8969 104.586C47.1699 102.994 48.153 101.296 49.092 99.49C49.727 98.269 50.382 96.908 50.455 95.509C50.499 94.654 50.315 93.799 50.05 92.977ZM41.204 82.037C42.231 82.68 43.46 83.201 43.864 84.266C44.297 85.408 44.195 86.641 44.13 87.834C44.112 88.167 43.53 89.505 43.677 89.843C43.594 89.967 43.508 90.091 43.421 90.219C42.654 91.357 41.8059 92.456 41.0869 93.626C39.8579 95.626 38.7059 97.829 37.9619 100.059C37.6389 101.025 37.425 102.03 37.226 103.032C36.975 102.996 36.365 103.142 36.164 103.135C35.331 103.109 34.483 102.947 33.69 102.698C33.121 102.519 32.554 102.244 32.02 101.894C32.07 101.905 32.119 101.915 32.169 101.924C33.079 102.089 34.028 102.096 34.781 101.499C35.712 100.76 36.277 99.542 36.851 98.53C37.847 96.773 38.867 95.026 39.801 93.234C41.028 90.876 42.549 88.087 42.722 85.387C42.785 84.406 42.583 83.727 42.057 82.973C41.897 82.742 41.546 82.335 41.204 82.037ZM29.27 79.85C29.846 80.081 30.6579 80.093 31.0219 80.465C31.6599 81.117 32.1769 81.856 32.5819 82.672C32.7209 82.952 32.8699 84.198 32.8839 84.186C32.8209 84.285 32.755 84.381 32.702 84.472C32.461 84.889 32.283 85.337 32.093 85.778C31.356 87.494 30.651 89.215 30.066 90.989C29.731 92.005 29.436 93.01 29.213 94.057C29.153 94.339 29.074 94.614 28.99 94.89C28.981 94.922 28.965 95.005 28.943 95.073C28.864 94.97 28.51 95.13 28.326 95.116C27.893 95.086 27.475 95.003 27.056 94.894C26.099 94.644 25.1899 94.272 24.3969 93.71C24.6539 93.82 24.9219 93.908 25.1939 93.963C26.3299 94.19 27.488 93.737 28.111 92.741C28.84 91.575 29.065 90.02 29.521 88.73C29.789 87.971 30.053 87.208 30.327 86.451C30.943 84.751 31.734 82.855 30.659 81.139C30.311 80.582 29.792 80.218 29.27 79.85Z" fill="#F59B67"/>
<path fill-rule="evenodd" clip-rule="evenodd" d="M61.851 115.525C61.631 115.501 61.411 115.459 61.19 115.398C60.8 115.291 60.387 115.172 60.031 114.974C59.97 114.94 59.759 114.701 59.76 114.628C59.76 114.606 59.812 114.625 59.833 114.628C59.881 114.635 59.93 114.642 59.978 114.648C60.119 114.666 60.258 114.674 60.4 114.679C60.809 114.691 61.182 114.416 61.514 114.175C62.114 113.74 62.648 112.795 62.486 112.027C62.42 111.713 62.271 111.429 62.092 111.164C61.251 110.098 60.52 108.933 60.047 107.853C59.736 107.142 59.289 104.729 59.304 104.763C60.094 106.626 61.177 108.408 62.435 109.986C63.313 111.086 64.255 112.079 65.423 112.775C65.414 112.775 65.408 112.777 65.404 112.779C64.063 113.631 63.118 114.775 61.851 115.525ZM73.352 111.631C73.341 111.632 73.33 111.632 73.32 111.631C73.284 111.63 73.358 111.572 73.376 111.541C73.41 111.483 73.441 111.424 73.47 111.363C73.55 111.194 73.612 111.016 73.663 110.835C73.818 110.29 73.846 109.66 73.796 109.098C73.745 108.526 73.582 107.957 73.257 107.478C72.803 106.81 72.109 106.366 71.579 105.77C70.914 105.198 70.295 104.618 69.788 104.062C67.826 101.906 64.736 95.949 64.736 94.445C64.736 94.37 67.216 98.377 67.888 99.429C69.292 101.631 71.322 103.828 73.486 105.332C74.119 105.772 74.814 106.088 75.498 106.431L75.634 106.5C75.56 106.526 75.309 108.24 75.252 108.424C74.876 109.633 74.234 110.737 73.352 111.631ZM82.443 105.506C82.434 105.505 82.425 105.504 82.415 105.502C82.39 105.498 82.456 105.471 82.475 105.455C82.521 105.417 82.564 105.378 82.607 105.337C82.728 105.223 82.838 105.099 82.935 104.963C83.224 104.556 83.426 104.065 83.503 103.571C83.597 102.969 83.486 102.217 83.139 101.704C83.013 101.517 82.858 101.346 82.688 101.188C80.126 99.325 78.166 96.845 76.415 94.164C75.643 92.982 72.221 86.985 72.266 87.039C76.382 91.903 79.966 97.708 85.345 100.705L85.473 100.775C85.384 100.776 84.841 102.313 84.767 102.481C84.275 103.597 83.527 104.673 82.555 105.423C82.518 105.451 82.481 105.479 82.443 105.506Z" fill="#F59B67"/>
</svg>
