<svg width="128" height="128" viewBox="0 0 128 128" fill="none" xmlns="http://www.w3.org/2000/svg">
<path fill-rule="evenodd" clip-rule="evenodd" d="M106.801 85.5311C106.763 91.1294 107.138 97.0485 108.145 102.561C108.376 103.844 109.516 109.127 108.875 110.344C105.535 116.793 97.1056 124.15 86.5878 123.995C76.2419 119.741 77.5854 103.872 80.9463 95.2933L106.801 85.5311Z" fill="#FAC7A2"/>
<path fill-rule="evenodd" clip-rule="evenodd" d="M91.2895 91.3821L106.799 85.5302C106.784 87.5502 106.825 89.6027 106.937 91.6648C106.525 92.2287 106.147 92.7228 105.81 93.0983C103.783 95.4382 101.401 98.6349 99.0002 100.489C95.161 103.437 88.2522 109.288 82.7551 110.843C81.4523 111.21 80.0825 111.544 78.6944 111.837C78.1323 107.145 78.8362 102.007 80.0707 97.8715L91.2895 91.3821Z" fill="#F59B67"/>
<path fill-rule="evenodd" clip-rule="evenodd" d="M48.8956 31.8962C46.6512 42.8816 48.9545 52.2724 48.6887 65.4136C48.5411 73.505 46.7987 85.3469 52.0552 92.3752C68.2971 114.08 98.4776 102.445 108.105 82.0689C114.601 68.3371 120.862 43.9447 112.623 30.3901C106.097 19.6705 94.0775 13.5871 81.8223 12.7898C70.7778 12.0811 52.0553 16.4516 48.8956 31.8962Z" fill="#FAC7A2"/>
<path fill-rule="evenodd" clip-rule="evenodd" d="M48.1989 50.478C47.8269 44.121 47.592 38.278 48.895 31.895C52.048 16.437 70.778 12.091 81.833 12.801C94.068 13.587 106.099 19.676 112.616 30.402C114.05 32.763 102.155 43.256 97.705 45.041C89.779 48.22 75.032 52.355 64.138 52.355C57.7499 52.355 52.497 51.775 48.1989 50.478Z" fill="#F59B67"/>
<path fill-rule="evenodd" clip-rule="evenodd" d="M54.2108 9.48233C63.1291 10.2797 68.12 3.98961 82.974 3.98961C92.4829 3.98961 101.933 8.41923 109.64 19.0503C112.859 20.1134 117.318 24.0705 119.888 28.6478C125.351 38.3929 125.41 50.7959 119.888 61.0135C116.993 66.3586 109.374 71.2312 102.937 68.3371C96.2037 61.8994 96.2037 51.3274 97.5326 43.6199C89.6183 46.8092 75.2368 49.8509 64.34 49.8509C51.0806 49.8509 42.6939 47.3407 37.6146 41.1393C34.3072 37.0345 35.5179 33.2546 38.471 34.0815C36.3153 30.5673 34.3958 27.437 34.3072 24.986C34.1596 21.1174 34.9273 15.7428 38.471 12.7307C43.8161 8.18296 49.5154 9.0689 54.2108 9.48233Z" fill="#262626"/>
<path fill-rule="evenodd" clip-rule="evenodd" d="M123.993 44.024C124.108 49.823 122.746 55.706 119.879 61.002C116.983 66.353 109.366 71.216 102.923 68.332C101.696 67.153 100.694 65.838 99.8823 64.427C101.941 60.714 102.911 55.92 107.372 54.321C108.158 54.039 108.982 53.848 109.815 53.781C111.848 53.616 113.65 54.299 115.28 55.491C116.462 56.355 117.354 58.209 119.091 57.5C119.35 57.394 119.598 57.251 119.82 57.082C122.591 54.973 123.325 50.836 123.693 47.614C123.817 46.532 123.937 45.463 123.981 44.373C123.986 44.257 123.99 44.14 123.993 44.024Z" fill="#1A1A1A"/>
<path fill-rule="evenodd" clip-rule="evenodd" d="M88.7608 72.8394C90.8407 71.6931 93.0034 69.814 96.1234 66.9186C99.6569 63.6332 103.663 60.3242 108.839 60.8442C112.16 61.1869 112.16 65.6187 112.16 70.8304C112.16 75.1558 111.38 74.7658 109.974 78.843C109.147 81.242 106.133 88.4864 104.077 91.0982C102.54 93.06 100.059 95.9199 98.0024 97.2672C94.7288 99.418 88.8198 103.732 84.2345 104.689C76.0564 106.402 65.5031 106.615 58.1878 101.947C53.1769 98.7444 49.9743 93.3318 49.1943 91.0982C47.1498 85.3546 47.1025 80.6511 47.3861 76.113C47.4925 74.3167 47.3507 72.154 48.3906 71.5867C49.0288 71.244 50.1752 71.6931 51.2861 72.4376C51.7942 72.7803 53.1414 73.2767 54.6541 72.8394C56.4505 72.3076 58.3177 70.074 61.1659 69.235C64.9003 68.1359 69.2375 70.5586 72.3811 72.1304C74.201 73.0285 76.1156 73.5603 78.1246 73.7612C79.98 73.9385 81.8236 73.8794 83.6791 73.7494C84.1754 73.7022 88.3353 73.0758 88.7608 72.8394ZM98.6878 91.9609C101.276 90.7082 106.949 82.2347 108.107 78.843C109.194 75.7112 110.908 72.5085 110.908 69.1877C110.908 65.6187 110.908 62.4396 108.839 62.2387C104.869 61.8251 102.044 64.4014 99.326 66.9186C97.0215 69.0695 93.9961 73.3949 91.1361 76.6212C91.538 77.6021 91.6916 78.7011 91.9043 79.7411C92.2943 81.6438 92.8498 83.582 93.6652 85.3546C94.5752 87.3046 97.3169 90.4718 98.6878 91.9609Z" fill="#BDDEFF"/>
<path fill-rule="evenodd" clip-rule="evenodd" d="M99.6709 66.558C100.301 64.1068 102.007 60.8538 103.593 58.7775C106.924 54.4259 112.819 54.7908 115.36 59.3878C119.204 66.2405 115.337 78.0751 110.774 79.9675C108.81 80.7823 106.832 80.7093 104.947 79.9905C102.946 79.2362 101.376 77.5875 100.294 75.6389C99.1594 73.5693 99.0349 69.1272 99.6709 66.558Z" fill="#FAC7A2"/>
<path fill-rule="evenodd" clip-rule="evenodd" d="M110.633 59.4388C109.64 59.4624 108.565 59.6161 107.655 60.0888C105.433 61.2351 104.086 64.1542 103.223 66.3405C102.927 67.0969 103.306 67.9596 104.062 68.255C104.818 68.5505 105.681 68.1723 105.976 67.416C106.319 66.5414 106.733 65.4896 107.288 64.556C107.749 63.7878 108.281 63.0906 109.014 62.7124C109.522 62.4406 110.148 62.4051 110.727 62.3933C111.543 62.3697 112.181 61.6842 112.157 60.8688C112.134 60.0533 111.448 59.4152 110.633 59.4388Z" fill="#F59B67"/>
<path fill-rule="evenodd" clip-rule="evenodd" d="M83.775 92.16C78.341 95.265 71.417 96.758 65.197 96.893C62.199 96.958 58.767 96.574 56.914 95.554C56.2 95.161 55.301 95.422 54.908 96.136C54.515 96.851 54.776 97.75 55.49 98.143C57.681 99.348 61.717 99.923 65.261 99.847C71.953 99.702 79.395 98.066 85.241 94.725C85.949 94.32 86.195 93.417 85.791 92.709C85.386 92.001 84.483 91.755 83.775 92.16ZM82.418 81.235C77.068 83.108 68.212 85.746 59.769 85.129C56.956 84.923 53.684 84.018 50.884 82.716C50.145 82.372 49.265 82.693 48.922 83.433C48.578 84.172 48.899 85.051 49.638 85.395C52.762 86.848 56.416 87.846 59.553 88.075C68.437 88.725 77.765 85.994 83.394 84.024C84.163 83.755 84.57 82.911 84.3 82.142C84.031 81.372 83.187 80.966 82.418 81.235Z" fill="#8CC1FF"/>
<path fill-rule="evenodd" clip-rule="evenodd" d="M51.8913 48.833L51.7643 48.691C57.4493 49.341 63.1713 48.912 68.8043 48.028C78.8763 46.448 88.8513 45.397 96.2763 38.16C101.007 33.549 105.652 25.89 108.22 20.957C108.22 20.957 105.652 27.019 104.846 28.709C102.397 33.844 100.443 38.725 97.5293 43.633C89.6043 46.812 75.2213 49.85 64.3273 49.85C59.5803 49.85 55.4593 49.53 51.8913 48.833Z" fill="#1A1A1A"/>
<path fill-rule="evenodd" clip-rule="evenodd" d="M70.4219 64.5144C74.0629 65.9694 77.917 66.5934 82.27 65.8714C83.086 65.7364 83.6399 64.9634 83.5039 64.1464C83.3689 63.3294 82.5959 62.7764 81.7789 62.9124C78.0159 63.5364 74.684 62.9874 71.536 61.7284C70.767 61.4214 69.8929 61.7964 69.5859 62.5654C69.2789 63.3334 69.6529 64.2074 70.4219 64.5144ZM57.3199 61.8154C55.7169 62.7184 53.9979 63.3064 51.9559 62.9184C51.1429 62.7634 50.3569 63.2984 50.2019 64.1114C50.0479 64.9244 50.5819 65.7104 51.3959 65.8654C54.2049 66.4004 56.5869 65.6724 58.7929 64.4284C59.5149 64.0214 59.7699 63.1064 59.3629 62.3854C58.9569 61.6644 58.0409 61.4084 57.3199 61.8154Z" fill="#F59B67"/>
<path fill-rule="evenodd" clip-rule="evenodd" d="M40.92 113.8C41.742 113.753 42.267 114.208 42.413 115.037C42.513 115.6 42.378 116.186 42.915 116.559C43.671 117.082 44.523 116.127 44.082 115.383C43.683 114.71 42.84 114.599 42.734 113.687C42.72 113.559 42.701 113.411 42.739 113.285L40.92 113.8ZM31.935 107.995C31.568 106.833 30.393 106.519 29.497 106.801C29.041 106.945 28.591 107.286 28.101 107.237C27.103 107.139 26.47 105.386 27.546 104.901C28.365 104.532 28.887 105.185 29.622 105.54C30.596 106.011 31.425 105.845 32.142 105.002L31.935 107.995ZM41.377 99.356C42.013 99.28 42.83 99.105 42.783 98.277C42.755 97.799 42.343 97.045 42.798 96.66C43.519 96.048 44.64 96.608 44.323 97.576C44.073 98.338 43.075 98.933 43.451 99.809L41.377 99.356ZM28.168 81.208C28.079 81.387 27.999 81.562 27.971 81.762C27.864 82.529 28.481 83.002 29.15 83.241C29.573 83.392 30.034 83.45 30.198 83.938C30.492 84.81 29.433 85.709 28.672 85.075C28.006 84.519 27.961 82.006 26.144 83.283L28.168 81.208ZM8.79602 79.2C8.86502 79.416 8.94802 79.654 8.94702 79.883C8.94602 80.04 8.91902 80.194 8.86102 80.34C8.32402 81.7 6.61702 80.542 5.80102 81.48C5.11002 82.276 6.18799 83.375 7.05999 83.197C8.11799 82.982 8.29 81.309 9.539 81.502C9.693 81.526 9.83403 81.576 9.97003 81.651L8.79602 79.2ZM18.741 65.81C18.987 65.806 19.192 65.773 19.424 65.641C20.127 65.241 20.403 64.701 20.306 63.895C20.229 63.252 19.895 62.625 20.353 62.039C20.905 61.331 22.055 61.983 21.899 62.805C21.782 63.415 21.249 63.846 21.062 64.428C20.86 65.057 21.254 65.744 21.572 66.263L18.741 65.81Z" fill="#EB17A4"/>
<path fill-rule="evenodd" clip-rule="evenodd" d="M34.062 112.563C34.052 113.193 33.898 113.786 33.433 114.27C32.955 114.769 32.041 115.094 31.915 115.907C31.883 116.112 31.885 116.322 31.925 116.523C32.151 117.648 33.07 117.653 33.687 116.788C34.301 115.928 33.768 114.016 35.845 113.94C37.054 114.611 38.589 114.387 39.965 114.307C41.613 114.211 46.012 112.333 46.432 109.906C46.565 109.14 46.702 108.661 46.754 107.588C47.113 107.19 47.6169 106.891 48.1649 106.973C48.8449 107.074 49.567 107.598 50.255 107.252C50.862 106.946 50.7819 106.217 50.4589 105.729C50.3249 105.527 50.111 105.295 49.849 105.289C48.896 105.268 47.835 106.762 46.911 105.91C46.86 105.862 46.809 105.811 46.762 105.758C46.602 102.051 45.5689 100.392 42.5399 99.423C41.1639 98.983 39.965 98.7 38.388 99.059C37.63 98.119 38.72 96.662 38.408 95.59C38.117 94.593 37.269 94.416 36.453 94.945C36.225 95.093 36.019 95.309 35.917 95.564C35.338 97.001 37.362 98.136 36.295 99.592C36.249 99.655 36.1989 99.712 36.1469 99.765C34.6649 100.36 33.62 101.369 32.701 102.503C30.215 105.571 31.925 110.422 34.062 112.563ZM13.224 67.149C13.505 66.431 12.404 65.541 12.028 65.168C11.571 64.714 10.764 64.32 10.754 63.564C10.739 62.306 12.641 62.352 13.224 63.098C13.563 63.532 13.465 64.156 13.592 64.663C13.677 65.004 14.021 65.98 14.283 66.199C14.462 66.35 14.951 66.082 15.161 65.981C20.325 63.501 26.992 66.842 29.989 71.636C30.318 72.162 31.373 71.914 32.091 71.238C32.646 70.717 33.555 70.717 33.829 70.76C35.086 70.956 35.241 72.728 34.048 73.146C33.859 73.212 33.157 73.336 32.511 73.092C31.572 72.737 30.338 72.493 30.382 73.092C30.482 74.467 30.737 75.773 30.382 77.258C28.61 84.653 21.946 85.548 18.276 85.888C16.553 86.047 14.658 85.393 13.843 85.639C13.275 85.811 13.475 86.829 13.388 87.362C13.27 88.088 13.311 88.858 13.018 89.547C12.369 91.074 9.38598 90.832 9.43798 88.986C9.45198 88.49 9.62197 87.974 9.94097 87.589C10.306 87.149 10.876 86.894 11.318 86.537C11.788 86.157 12.539 85.576 12.387 85.003C12.094 83.893 10.152 82.991 9.01897 80.9C8.16498 79.326 7.95201 76.715 8.23101 74.863C8.68401 71.856 12.591 68.765 13.224 67.149Z" fill="#FB49BF"/>
<path fill-rule="evenodd" clip-rule="evenodd" d="M43.501 109.162C44.32 108.098 43.533 107.2 42.972 106.812C42.358 106.387 41.447 106.763 41.105 107.36C40.962 107.61 40.854 107.896 40.821 108.184C40.798 108.374 40.82 108.567 40.875 108.749C41.225 109.925 42.849 110.009 43.501 109.162ZM39.309 105.518C39.503 105.055 39.5101 104.257 39.4311 104.016C39.2161 103.361 38.761 102.889 38.066 102.78C37.81 102.74 37.553 102.742 37.294 102.756C36.955 102.773 36.575 102.8 36.259 102.939C35.609 103.225 35.182 103.906 34.998 104.573C34.717 105.587 35.178 106.599 36.028 107.17C36.371 107.401 36.835 107.562 37.253 107.495C38.285 107.329 38.916 106.461 39.309 105.518ZM15.969 79.378C16.49 78.899 16.902 77.939 16.742 77.083C16.416 75.335 14.465 74.617 13.065 75.686C11.782 76.665 11.917 79.39 13.617 79.957C14.078 80.111 14.847 80.411 15.969 79.378ZM24.782 77.744C26.295 76.61 25.914 73.896 25.242 72.895C24.059 71.13 21.338 71.203 20.158 72.94C19.409 74.044 19.095 75.783 19.764 77.003C20.802 78.893 23.268 78.879 24.782 77.744Z" fill="#EB17A4"/>
<path fill-rule="evenodd" clip-rule="evenodd" d="M14.9147 106.429C14.1675 106.361 12.5181 106.485 11.723 107.28C9.96437 109.038 10.883 112.035 13.1448 112.839C15.3894 113.636 18.4897 111.958 18.1618 109.366C18.0083 108.15 16.2144 106.548 14.9147 106.429Z" fill="#FB49BF"/>
<path fill-rule="evenodd" clip-rule="evenodd" d="M13.9772 41.3427C13.0433 40.7458 11.9788 40.5857 11.0148 41.1452C9.86581 41.8104 9.47156 43.6267 10.531 44.5408C12.0177 45.8227 15.2407 44.7067 14.9323 43.0644C14.8376 42.5578 14.6739 41.7876 13.9772 41.3427Z" fill="#EB17A4"/>
<path fill-rule="evenodd" clip-rule="evenodd" d="M62.1329 116.942C61.487 116.565 60.059 116.626 59.25 117.268C57.978 118.275 58.116 120.185 59.657 120.835C60.914 121.365 62.4189 120.59 63.1249 119.53C63.6039 118.81 62.7779 117.319 62.1329 116.942Z" fill="#EB17A4"/>
<path fill-rule="evenodd" clip-rule="evenodd" d="M38.3049 58.9064C38.2899 58.3264 38.0439 57.0704 37.3599 56.5324C35.8489 55.3424 33.6309 56.3224 33.2199 58.1324C32.8129 59.9294 34.3859 62.1574 36.3469 61.6684C37.2659 61.4394 38.3329 59.9154 38.3049 58.9064Z" fill="#FB49BF"/>
</svg>
