<svg width="128" height="128" viewBox="0 0 128 128" fill="none" xmlns="http://www.w3.org/2000/svg">
<path fill-rule="evenodd" clip-rule="evenodd" d="M91.6609 85.5311C91.6227 91.1294 91.9979 97.0485 93.005 102.561C93.2359 103.844 94.376 109.127 93.735 110.344C90.3946 116.793 81.9656 124.15 71.4478 123.995C61.1019 119.741 62.4454 103.872 65.8063 95.2933L91.6609 85.5311Z" fill="#FAC7A2"/>
<path fill-rule="evenodd" clip-rule="evenodd" d="M76.1536 91.3821L91.6629 85.5302C91.6486 87.5502 91.6895 89.6027 91.8007 91.6648C91.3894 92.2287 91.0116 92.7228 90.6739 93.0983C88.6476 95.4382 86.2654 98.6349 83.8642 100.489C80.0251 103.437 73.1163 109.288 67.6192 110.843C66.3164 111.21 64.9466 111.544 63.5585 111.837C62.9964 107.145 63.7003 102.007 64.9348 97.8715L76.1536 91.3821Z" fill="#F59B67"/>
<path fill-rule="evenodd" clip-rule="evenodd" d="M33.7551 31.8962C31.5108 42.8816 33.8141 52.2724 33.5483 65.4136C33.4006 73.505 31.6583 85.3469 36.9148 92.3752C53.1567 114.08 83.3372 102.445 92.9642 82.0689C99.461 68.3371 105.721 43.9447 97.4824 30.3901C90.9561 19.6705 78.9371 13.5871 66.6819 12.7898C55.6374 12.0811 36.9149 16.4516 33.7551 31.8962Z" fill="#FAC7A2"/>
<path fill-rule="evenodd" clip-rule="evenodd" d="M33.059 50.478C32.687 44.121 32.452 38.278 33.755 31.895C36.908 16.437 55.638 12.091 66.693 12.801C78.928 13.587 90.959 19.676 97.476 30.402C98.91 32.763 87.015 43.256 82.565 45.041C74.639 48.22 59.892 52.355 48.998 52.355C42.61 52.355 37.357 51.775 33.059 50.478Z" fill="#F59B67"/>
<path fill-rule="evenodd" clip-rule="evenodd" d="M39.0704 9.48233C47.9887 10.2797 52.9796 3.98961 67.8336 3.98961C77.3425 3.98961 86.7923 8.41923 94.4999 19.0503C97.7187 20.1134 102.178 24.0705 104.747 28.6478C110.21 38.3929 110.269 50.7959 104.747 61.0135C101.853 66.3586 94.2339 71.2312 87.7962 68.3371C81.0632 61.8994 81.0633 51.3274 82.3921 43.6199C74.4779 46.8092 60.0964 49.8509 49.1996 49.8509C35.9402 49.8509 27.5535 47.3407 22.4743 41.1393C19.1668 37.0345 20.3776 33.2546 23.3306 34.0815C21.1749 30.5673 19.2554 27.437 19.1668 24.986C19.0192 21.1174 19.7869 15.7428 23.3306 12.7307C28.6757 8.18296 34.375 9.0689 39.0704 9.48233Z" fill="#262626"/>
<path fill-rule="evenodd" clip-rule="evenodd" d="M108.854 44.024C108.969 49.823 107.607 55.706 104.74 61.002C101.844 66.353 94.227 71.216 87.784 68.332C86.557 67.153 85.555 65.838 84.743 64.427C86.802 60.714 87.772 55.92 92.233 54.321C93.019 54.039 93.843 53.848 94.676 53.781C96.709 53.616 98.511 54.299 100.141 55.491C101.323 56.355 102.215 58.209 103.952 57.5C104.211 57.394 104.459 57.251 104.681 57.082C107.452 54.973 108.186 50.836 108.554 47.614C108.678 46.532 108.798 45.463 108.842 44.373C108.847 44.257 108.851 44.14 108.854 44.024Z" fill="#1A1A1A"/>
<path fill-rule="evenodd" clip-rule="evenodd" d="M73.6208 72.8394C75.7007 71.6931 77.8634 69.814 80.9834 66.9186C84.5169 63.6332 88.5232 60.3242 93.6994 60.8442C97.0203 61.1869 97.0203 65.6187 97.0203 70.8304C97.0203 75.1558 96.2403 74.7658 94.834 78.843C94.0067 81.242 90.9931 88.4864 88.9368 91.0982C87.4005 93.06 84.9187 95.9199 82.8624 97.2672C79.5888 99.418 73.6798 103.732 69.0944 104.689C60.9164 106.402 50.363 106.615 43.0477 101.947C38.0369 98.7444 34.8342 93.3318 34.0542 91.0982C32.0097 85.3546 31.9625 80.6511 32.2461 76.113C32.3524 74.3167 32.2106 72.154 33.2506 71.5867C33.8888 71.244 35.0351 71.6931 36.146 72.4376C36.6542 72.7803 38.0014 73.2767 39.5141 72.8394C41.3104 72.3076 43.1777 70.074 46.0258 69.235C49.7603 68.1359 54.0975 70.5586 57.241 72.1304C59.061 73.0285 60.9755 73.5603 62.9846 73.7612C64.84 73.9385 66.6836 73.8794 68.539 73.7494C69.0354 73.7022 73.1953 73.0758 73.6208 72.8394ZM83.5478 91.9609C86.1359 90.7082 91.8086 82.2347 92.9668 78.843C94.054 75.7112 95.7676 72.5085 95.7676 69.1877C95.7676 65.6187 95.7676 62.4396 93.6994 62.2387C89.7286 61.8251 86.9041 64.4014 84.186 66.9186C81.8815 69.0695 78.8561 73.3949 75.9961 76.6212C76.3979 77.6021 76.5516 78.7011 76.7643 79.7411C77.1543 81.6438 77.7098 83.582 78.5252 85.3546C79.4352 87.3046 82.1769 90.4718 83.5478 91.9609Z" fill="#BDDEFF"/>
<path fill-rule="evenodd" clip-rule="evenodd" d="M84.5307 66.558C85.1606 64.1068 86.8671 60.8538 88.4533 58.7774C91.7839 54.4259 97.6789 54.7908 100.22 59.3877C104.064 66.2404 100.197 78.0751 95.6339 79.9674C93.6696 80.7822 91.6922 80.7092 89.8074 79.9905C87.8061 79.2362 86.2357 77.5875 85.1539 75.6389C84.0193 73.5692 83.8948 69.1272 84.5307 66.558Z" fill="#FAC7A2"/>
<path fill-rule="evenodd" clip-rule="evenodd" d="M95.4928 59.4388C94.5001 59.4624 93.4246 59.6161 92.5146 60.0888C90.2929 61.2351 88.9456 64.1542 88.0829 66.3405C87.7875 67.0969 88.1656 67.9596 88.922 68.255C89.6783 68.5505 90.5411 68.1723 90.8365 67.416C91.1792 66.5414 91.5929 65.4896 92.1483 64.556C92.6092 63.7878 93.141 63.0906 93.8737 62.7124C94.3819 62.4406 95.0083 62.4051 95.5873 62.3933C96.4028 62.3697 97.0409 61.6842 97.0173 60.8688C96.9936 60.0533 96.3082 59.4152 95.4928 59.4388Z" fill="#F59B67"/>
<path fill-rule="evenodd" clip-rule="evenodd" d="M68.636 92.16C63.202 95.265 56.278 96.758 50.057 96.893C47.06 96.958 43.628 96.574 41.775 95.554C41.061 95.161 40.162 95.422 39.769 96.136C39.376 96.851 39.636 97.75 40.351 98.143C42.541 99.348 46.577 99.923 50.121 99.847C56.814 99.702 64.256 98.066 70.102 94.725C70.81 94.32 71.056 93.417 70.652 92.709C70.247 92.001 69.344 91.755 68.636 92.16ZM67.279 81.235C61.929 83.108 53.072 85.746 44.63 85.129C41.817 84.923 38.545 84.018 35.745 82.716C35.005 82.372 34.126 82.693 33.782 83.433C33.438 84.172 33.76 85.051 34.499 85.395C37.623 86.848 41.277 87.846 44.414 88.075C53.298 88.725 62.626 85.994 68.255 84.024C69.024 83.755 69.43 82.911 69.161 82.142C68.892 81.372 68.048 80.966 67.279 81.235Z" fill="#8CC1FF"/>
<path fill-rule="evenodd" clip-rule="evenodd" d="M59.4242 61.5898V64.1431C59.4242 64.9587 60.0909 65.6207 60.9057 65.6207C61.7206 65.6207 62.378 64.9587 62.378 64.1431V61.5898C62.378 60.7742 61.7206 60.1122 60.9057 60.1122C60.0909 60.1122 59.4242 60.7742 59.4242 61.5898Z" fill="#F59B67"/>
<path fill-rule="evenodd" clip-rule="evenodd" d="M37.8522 61.5898V64.1431C37.8522 64.9587 38.5189 65.6207 39.3337 65.6207C40.1486 65.6207 40.806 64.9587 40.806 64.1431V61.5898C40.806 60.7742 40.1486 60.1122 39.3337 60.1122C38.5189 60.1122 37.8522 60.7742 37.8522 61.5898Z" fill="#F59B67"/>
<path fill-rule="evenodd" clip-rule="evenodd" d="M36.752 48.833L36.625 48.691C42.31 49.341 48.032 48.912 53.665 48.028C63.737 46.448 73.712 45.397 81.137 38.16C85.868 33.549 90.513 25.89 93.081 20.957C93.081 20.957 90.513 27.019 89.707 28.709C87.258 33.844 85.304 38.725 82.39 43.633C74.465 46.812 60.082 49.85 49.188 49.85C44.441 49.85 40.32 49.53 36.752 48.833Z" fill="#1A1A1A"/>
</svg>
