<svg width="128" height="128" viewBox="0 0 128 128" fill="none" xmlns="http://www.w3.org/2000/svg">
<path fill-rule="evenodd" clip-rule="evenodd" d="M36.739 35.06C42.597 35.134 47.323 39.906 47.324 45.782C47.324 45.782 47.324 90.297 47.324 105.495C47.324 110.403 45.374 115.11 41.904 118.58C38.433 122.051 33.726 124 28.818 124C28.185 124 27.55 124 26.917 124C16.697 124 8.41199 115.715 8.41199 105.495V79.53C8.41199 63.53 19.925 47.53 26.375 39.809C28.916 36.796 32.657 35.058 36.599 35.059L36.739 35.06ZM80.676 105.495C80.676 90.286 80.676 47.616 80.676 45.782C80.677 39.86 85.477 35.059 91.399 35.059C91.4 35.059 91.401 35.059 91.401 35.059C95.343 35.058 99.084 36.796 101.625 39.809C108.075 47.53 119.588 63.53 119.588 79.53V105.495C119.588 115.715 111.303 124 101.083 124C100.45 124 99.815 124 99.182 124C88.962 124 80.677 115.715 80.676 105.495Z" fill="#FAC7A2"/>
<path fill-rule="evenodd" clip-rule="evenodd" d="M29.034 56.248C29.275 54.157 29.704 52.062 30.416 50.223C31.359 47.784 32.866 45.617 34.414 43.53C34.743 43.087 35.37 42.994 35.813 43.323C36.256 43.652 36.349 44.279 36.02 44.722C34.579 46.665 33.16 48.674 32.281 50.944C31.174 53.805 30.824 57.331 30.774 60.389C30.758 61.389 30.813 62.431 31.201 63.364C32.354 66.141 35.76 66.231 38.246 65.51C39.231 64.85 40.217 64.196 41.165 63.509C41.612 63.186 42.238 63.286 42.562 63.733C42.886 64.18 42.785 64.806 42.338 65.129C38.938 67.591 34.984 69.562 32.504 73.056C32.408 73.191 32.315 73.327 32.223 73.464C31.781 75.811 31.859 78.124 33.081 80.288C33.3 80.676 33.59 81.155 33.933 81.693C34.096 81.712 34.257 81.773 34.4 81.876C36.532 83.42 39.186 83.829 41.763 84.037C42.313 84.082 42.724 84.565 42.679 85.115C42.635 85.665 42.152 86.075 41.602 86.031C39.777 85.883 37.927 85.62 36.204 85.021C37.747 87.152 39.485 89.314 40.761 90.423C41.177 90.785 41.221 91.418 40.859 91.834C40.497 92.251 39.865 92.295 39.448 91.933C36.95 89.76 32.745 83.763 31.339 81.271C30.664 80.074 30.269 78.841 30.091 77.583C29.477 79.087 28.971 80.64 28.502 82.157C27.762 84.551 26.953 87.556 26.092 90.798C26.097 90.809 26.101 90.821 26.105 90.832C27.458 94.504 29.125 98.12 30.097 101.922C30.194 101.982 30.282 102.06 30.356 102.155C32.467 104.841 35.053 106.603 37.619 108.799C38.039 109.158 38.088 109.79 37.729 110.209C37.37 110.629 36.738 110.678 36.319 110.319C34.43 108.702 32.539 107.302 30.817 105.631C31.211 108.282 31.456 110.956 32.2 113.557C32.352 114.087 32.045 114.641 31.514 114.793C30.984 114.945 30.429 114.637 30.278 114.107C29.221 110.413 29.156 106.572 28.267 102.856C27.549 99.85 26.358 96.97 25.217 94.091C23.422 100.834 21.436 108.028 19.393 112.634C19.17 113.139 18.578 113.367 18.074 113.143C17.569 112.919 17.341 112.328 17.565 111.824C18.712 109.237 19.839 105.829 20.923 102.144C20.467 102.533 19.981 102.893 19.447 103.205C17.831 104.151 15.996 104.492 14.189 104.872C13.649 104.986 13.118 104.639 13.005 104.099C12.891 103.559 13.237 103.028 13.777 102.915C15.374 102.579 17.008 102.316 18.436 101.48C19.863 100.644 20.88 99.412 22.005 98.232C22.019 98.217 22.033 98.203 22.047 98.19C23.72 92.131 25.264 85.859 26.591 81.566C27.277 79.35 28.047 77.067 29.085 74.944C28.084 75.617 27.112 76.198 26.308 76.543C23.042 77.944 19.201 78.427 15.723 79.06C15.18 79.159 14.659 78.798 14.56 78.255C14.461 77.712 14.822 77.191 15.365 77.093C17.835 76.643 20.5 76.286 22.988 75.586C22.262 75.421 21.553 75.201 20.882 74.903C19.829 74.435 18.837 73.732 17.9 73.068C17.45 72.748 17.344 72.124 17.664 71.674C17.983 71.223 18.608 71.117 19.058 71.437C19.888 72.026 20.761 72.66 21.694 73.075C23.23 73.757 24.999 73.946 26.661 74.05C26.695 74.052 26.729 74.056 26.763 74.062C28.75 72.895 31.203 70.935 32.648 69.789C32.68 69.763 32.713 69.74 32.747 69.719C33.436 69.044 34.176 68.421 34.945 67.83C32.587 67.633 30.362 66.558 29.354 64.131C28.909 63.059 28.778 61.879 28.772 60.723C28.723 60.651 28.684 60.572 28.654 60.486C27.569 57.299 25.991 54.323 23.232 52.325C22.785 52.001 22.685 51.376 23.009 50.929C23.332 50.482 23.958 50.382 24.405 50.705C26.43 52.172 27.911 54.093 29.034 56.248ZM89.7499 65.51C92.2399 66.231 95.6499 66.141 96.7999 63.364C97.1899 62.431 97.2399 61.389 97.2299 60.389C97.1799 57.331 96.8299 53.805 95.7199 50.944C94.8399 48.674 93.4199 46.665 91.9799 44.722C91.6499 44.279 91.74 43.652 92.19 43.323C92.63 42.994 93.26 43.087 93.59 43.53C95.13 45.617 96.64 47.784 97.58 50.223C98.3 52.062 98.7299 54.157 98.9699 56.248C100.09 54.093 101.57 52.172 103.6 50.705C104.04 50.382 104.67 50.482 104.99 50.929C105.32 51.376 105.22 52.001 104.77 52.325C102.01 54.323 100.43 57.299 99.3499 60.486C99.3199 60.572 99.2799 60.651 99.2299 60.723C99.2199 61.879 99.09 63.059 98.65 64.131C97.64 66.558 95.4099 67.633 93.0599 67.83C93.8199 68.42 94.5599 69.043 95.2499 69.719C95.2899 69.74 95.3199 69.763 95.3499 69.789C96.7999 70.935 99.2499 72.895 101.24 74.062C101.27 74.056 101.31 74.052 101.34 74.05C103 73.946 104.77 73.757 106.31 73.075C107.24 72.66 108.11 72.026 108.94 71.437C109.39 71.117 110.02 71.223 110.34 71.674C110.66 72.124 110.55 72.748 110.1 73.068C109.16 73.732 108.17 74.435 107.12 74.903C106.45 75.201 105.74 75.421 105.01 75.586C107.5 76.286 110.17 76.643 112.63 77.093C113.18 77.191 113.54 77.712 113.44 78.255C113.34 78.798 112.82 79.159 112.28 79.06C108.8 78.427 104.96 77.944 101.69 76.543C100.89 76.198 99.9199 75.617 98.9199 74.944C99.9499 77.067 100.72 79.35 101.41 81.566C102.74 85.859 104.28 92.131 105.95 98.19C105.97 98.203 105.98 98.217 106 98.232C107.12 99.412 108.14 100.644 109.56 101.48C110.99 102.316 112.63 102.579 114.22 102.915C114.76 103.028 115.11 103.559 115 104.099C114.88 104.639 114.35 104.986 113.81 104.872C112 104.492 110.17 104.151 108.55 103.205C108.02 102.893 107.53 102.533 107.08 102.144C108.16 105.829 109.29 109.237 110.44 111.824C110.66 112.328 110.43 112.919 109.93 113.143C109.42 113.367 108.83 113.139 108.61 112.634C106.56 108.028 104.58 100.834 102.78 94.091C101.64 96.97 100.45 99.85 99.7299 102.856C98.8399 106.572 98.7799 110.413 97.7199 114.107C97.5699 114.637 97.0199 114.945 96.4899 114.793C95.9599 114.641 95.6499 114.087 95.7999 113.557C96.5399 110.956 96.7899 108.282 97.1799 105.631C95.4599 107.302 93.5699 108.702 91.6799 110.319C91.2599 110.678 90.63 110.629 90.27 110.209C89.91 109.79 89.96 109.158 90.38 108.799C92.95 106.603 95.53 104.841 97.64 102.155C97.72 102.06 97.81 101.982 97.9 101.922C98.88 98.12 100.54 94.504 101.89 90.832C101.9 90.821 101.9 90.809 101.91 90.798C101.05 87.556 100.24 84.551 99.4999 82.157C99.0299 80.64 98.5199 79.087 97.9099 77.583C97.7299 78.841 97.3399 80.074 96.6599 81.271C95.2499 83.763 91.0499 89.76 88.5499 91.933C88.1299 92.295 87.5029 92.251 87.1409 91.834C86.7789 91.418 86.823 90.785 87.239 90.423C88.51 89.314 90.2499 87.152 91.7999 85.021C90.0699 85.62 88.22 85.883 86.398 86.031C85.848 86.075 85.3649 85.665 85.3209 85.115C85.2759 84.565 85.687 84.082 86.237 84.037C88.8099 83.829 91.4699 83.42 93.5999 81.876C93.7399 81.773 93.9 81.712 94.07 81.693C94.41 81.155 94.6999 80.676 94.9199 80.288C96.1399 78.124 96.22 75.811 95.78 73.464C95.69 73.327 95.5899 73.191 95.4999 73.056C93.0199 69.562 89.0599 67.591 85.6619 65.129C85.2149 64.806 85.1139 64.18 85.4379 63.733C85.7619 63.286 86.388 63.186 86.835 63.509C87.783 64.196 88.77 64.85 89.7499 65.51Z" fill="#F59B67"/>
<path fill-rule="evenodd" clip-rule="evenodd" d="M43.167 68.36C42.379 68.619 41.514 68.483 40.843 67.997C40.171 67.51 39.773 66.731 39.773 65.901C39.765 65.463 39.765 65.014 39.765 64.572C39.765 62.214 41.091 60.056 43.196 58.991C48.591 56.243 58.441 50.175 58.441 42.552V7C58.441 5.343 59.784 4 61.441 4C63.028 4 64.9721 4 66.5591 4C68.2161 4 69.5591 5.343 69.5591 7C69.5591 14.22 69.5591 32.693 69.5591 42.552C69.5591 50.175 79.4091 56.243 84.8021 58.995C86.9051 60.059 88.2311 62.215 88.2311 64.572C88.2351 65.014 88.235 65.463 88.235 65.901C88.235 66.733 87.8361 67.515 87.162 68.004C86.488 68.492 85.6211 68.628 84.8301 68.369C79.5241 66.552 69.329 63.3319 64 63.3319C58.671 63.3319 48.476 66.552 43.167 68.36Z" fill="#FF6161"/>
<path fill-rule="evenodd" clip-rule="evenodd" d="M39.893 63.314C40.057 63.838 40.387 64.303 40.843 64.634C41.514 65.12 42.379 65.256 43.167 64.997C48.476 63.189 58.671 59.969 64 59.969C69.329 59.969 79.5241 63.189 84.8301 65.006C85.6211 65.265 86.488 65.129 87.162 64.641C87.6131 64.314 87.941 63.856 88.108 63.339C88.189 63.741 88.2311 64.153 88.2311 64.572C88.2351 65.014 88.235 65.463 88.235 65.901C88.235 66.733 87.8361 67.5151 87.162 68.0041C86.488 68.4921 85.6211 68.6281 84.8301 68.3691C79.5241 66.552 69.329 63.332 64 63.332C58.671 63.332 48.476 66.552 43.167 68.36C42.379 68.619 41.514 68.483 40.843 67.997C40.171 67.51 39.773 66.731 39.773 65.901C39.765 65.463 39.765 65.014 39.765 64.572C39.765 64.144 39.808 63.723 39.893 63.314Z" fill="#F64545"/>
<path d="M108.279 55.067C113.174 55.067 117.142 51.0989 117.142 46.204C117.142 41.3091 113.174 37.3409 108.279 37.3409C103.384 37.3409 99.4156 41.3091 99.4156 46.204C99.4156 51.0989 103.384 55.067 108.279 55.067Z" fill="#86E94B"/>
<path fill-rule="evenodd" clip-rule="evenodd" d="M112.311 38.3107C115.178 39.7793 117.142 42.7644 117.142 46.204C117.142 51.0956 113.17 55.0663 108.279 55.0663C104.839 55.0663 101.855 53.1027 100.385 50.2363C101.941 52.2314 104.368 53.5159 107.092 53.5159C111.782 53.5159 115.591 49.7074 115.591 45.0164C115.591 42.2927 114.306 39.8664 112.311 38.3107Z" fill="#46D516"/>
<path fill-rule="evenodd" clip-rule="evenodd" d="M110.496 43.9846H112.259C112.406 43.9846 112.547 44.0433 112.651 44.147C112.755 44.2512 112.813 44.392 112.813 44.5389C112.813 45.3908 112.813 47.0127 112.813 47.8647C112.813 48.0116 112.755 48.1529 112.651 48.2566C112.547 48.3608 112.406 48.419 112.259 48.419C111.573 48.419 110.496 48.419 110.496 48.419V50.1822C110.496 50.3291 110.438 50.4699 110.334 50.5741C110.23 50.6778 110.089 50.7365 109.941 50.7365C109.089 50.7365 107.468 50.7365 106.616 50.7365C106.469 50.7365 106.328 50.6778 106.224 50.5741C106.12 50.4699 106.061 50.3291 106.061 50.1822C106.061 49.4965 106.061 48.419 106.061 48.419H104.299C104.152 48.419 104.01 48.3608 103.907 48.2566C103.803 48.1529 103.744 48.0116 103.744 47.8647C103.744 47.0127 103.744 45.3908 103.744 44.5389C103.744 44.392 103.803 44.2512 103.907 44.147C104.01 44.0433 104.152 43.9846 104.299 43.9846C104.984 43.9846 106.061 43.9846 106.061 43.9846V42.2213C106.061 42.0744 106.12 41.9337 106.224 41.8294C106.328 41.7258 106.469 41.667 106.616 41.667C107.468 41.667 109.089 41.667 109.941 41.667C110.089 41.667 110.23 41.7258 110.334 41.8294C110.438 41.9337 110.496 42.0744 110.496 42.2213C110.496 42.907 110.496 43.9846 110.496 43.9846Z" fill="white"/>
<path d="M16.7893 65.6904C21.4163 65.6904 25.1673 61.9395 25.1673 57.3124C25.1673 52.6854 21.4163 48.9344 16.7893 48.9344C12.1622 48.9344 8.41125 52.6854 8.41125 57.3124C8.41125 61.9395 12.1622 65.6904 16.7893 65.6904Z" fill="#86E94B"/>
<path fill-rule="evenodd" clip-rule="evenodd" d="M20.6009 49.8511C23.3105 51.2393 25.1673 54.0611 25.1673 57.3124C25.1673 61.9363 21.4132 65.6897 16.7893 65.6897C13.5379 65.6897 10.7168 63.8336 9.32794 61.124C10.7985 63.0099 13.0927 64.2242 15.6674 64.2242C20.101 64.2242 23.701 60.6241 23.701 56.1898C23.701 53.6151 22.4868 51.3216 20.6009 49.8511Z" fill="#46D516"/>
<path fill-rule="evenodd" clip-rule="evenodd" d="M18.8851 55.216H20.5518C20.6907 55.216 20.8243 55.2715 20.9223 55.3695C21.0208 55.468 21.0758 55.6011 21.0758 55.7399C21.0758 56.5453 21.0758 58.0784 21.0758 58.8838C21.0758 59.0226 21.0208 59.1562 20.9223 59.2542C20.8243 59.3527 20.6907 59.4077 20.5518 59.4077C19.9037 59.4077 18.8851 59.4077 18.8851 59.4077V61.0745C18.8851 61.2133 18.8301 61.3464 18.7321 61.4449C18.6336 61.5429 18.5005 61.5984 18.3611 61.5984C17.5558 61.5984 16.0227 61.5984 15.2173 61.5984C15.0785 61.5984 14.9454 61.5429 14.8469 61.4449C14.7489 61.3464 14.6934 61.2133 14.6934 61.0745C14.6934 60.4263 14.6934 59.4077 14.6934 59.4077H13.0271C12.8883 59.4077 12.7547 59.3527 12.6567 59.2542C12.5582 59.1562 12.5032 59.0226 12.5032 58.8838C12.5032 58.0784 12.5032 56.5453 12.5032 55.7399C12.5032 55.6011 12.5582 55.468 12.6567 55.3695C12.7547 55.2715 12.8883 55.216 13.0271 55.216C13.6748 55.216 14.6934 55.216 14.6934 55.216V53.5492C14.6934 53.4104 14.7489 53.2773 14.8469 53.1788C14.9454 53.0808 15.0785 53.0252 15.2173 53.0252C16.0227 53.0252 17.5558 53.0252 18.3611 53.0252C18.5005 53.0252 18.6336 53.0808 18.7321 53.1788C18.8301 53.2773 18.8851 53.4104 18.8851 53.5492C18.8851 54.1974 18.8851 55.216 18.8851 55.216Z" fill="white"/>
<path d="M50.9742 107.556C54.7212 107.556 57.7587 104.518 57.7587 100.771C57.7587 97.024 54.7212 93.9865 50.9742 93.9865C47.2272 93.9865 44.1897 97.024 44.1897 100.771C44.1897 104.518 47.2272 107.556 50.9742 107.556Z" fill="#86E94B"/>
<path fill-rule="evenodd" clip-rule="evenodd" d="M54.0609 94.7288C56.2551 95.8529 57.7588 98.138 57.7588 100.771C57.7588 104.515 54.7187 107.555 50.9743 107.555C48.3413 107.555 46.0568 106.052 44.9321 103.858C46.1229 105.385 47.9808 106.368 50.0657 106.368C53.6561 106.368 56.5714 103.453 56.5714 99.8618C56.5714 97.7769 55.5881 95.9196 54.0609 94.7288Z" fill="#46D516"/>
<path fill-rule="evenodd" clip-rule="evenodd" d="M52.6713 99.0742H54.021C54.1334 99.0742 54.2416 99.1192 54.321 99.1985C54.4008 99.2783 54.4453 99.3861 54.4453 99.4985C54.4453 100.151 54.4453 101.392 54.4453 102.044C54.4453 102.157 54.4008 102.265 54.321 102.344C54.2416 102.424 54.1334 102.469 54.021 102.469C53.4961 102.469 52.6713 102.469 52.6713 102.469V103.818C52.6713 103.931 52.6267 104.039 52.5474 104.118C52.4676 104.198 52.3598 104.243 52.2469 104.243C51.5948 104.243 50.3532 104.243 49.7011 104.243C49.5886 104.243 49.4808 104.198 49.4011 104.118C49.3217 104.039 49.2767 103.931 49.2767 103.818C49.2767 103.294 49.2767 102.469 49.2767 102.469H47.9274C47.815 102.469 47.7068 102.424 47.6274 102.344C47.5477 102.265 47.5031 102.157 47.5031 102.044C47.5031 101.392 47.5031 100.151 47.5031 99.4985C47.5031 99.3861 47.5477 99.2783 47.6274 99.1985C47.7068 99.1192 47.815 99.0742 47.9274 99.0742C48.4519 99.0742 49.2767 99.0742 49.2767 99.0742V97.7245C49.2767 97.612 49.3217 97.5043 49.4011 97.4245C49.4808 97.3452 49.5886 97.3002 49.7011 97.3002C50.3532 97.3002 51.5948 97.3002 52.2469 97.3002C52.3598 97.3002 52.4676 97.3452 52.5474 97.4245C52.6267 97.5043 52.6713 97.612 52.6713 97.7245C52.6713 98.2494 52.6713 99.0742 52.6713 99.0742Z" fill="white"/>
</svg>
