<svg width="128" height="128" viewBox="0 0 128 128" fill="none" xmlns="http://www.w3.org/2000/svg">
<path d="M15.7984 91.716C22.3148 91.716 27.5974 86.4334 27.5974 79.917C27.5974 73.4006 22.3148 68.118 15.7984 68.118C9.28203 68.118 3.99945 73.4006 3.99945 79.917C3.99945 86.4334 9.28203 91.716 15.7984 91.716Z" fill="#86E94B"/>
<path fill-rule="evenodd" clip-rule="evenodd" d="M106.805 83.5229C106.767 89.1211 107.138 97.0485 108.145 102.561C108.376 103.844 109.516 109.127 108.875 110.344C105.535 116.793 97.1056 124.15 86.5878 123.995C76.2419 119.741 77.5853 103.872 80.9463 95.2933L106.805 83.5229Z" fill="#FAC7A2"/>
<path fill-rule="evenodd" clip-rule="evenodd" d="M91.2896 91.3821L106.81 83.5344C106.785 85.5407 106.825 89.6027 106.937 91.6648C106.525 92.2287 106.148 92.7227 105.81 93.0983C103.784 95.4382 101.401 98.6349 99.0002 100.489C95.1611 103.437 88.2523 109.288 82.7551 110.843C81.4523 111.21 80.0826 111.544 78.6945 111.837C78.1324 107.145 78.8363 102.007 80.0708 97.8715L91.2896 91.3821Z" fill="#F59B67"/>
<path fill-rule="evenodd" clip-rule="evenodd" d="M48.8953 31.8962C46.651 42.8816 48.9543 52.2724 48.6885 65.4136C48.5408 73.505 46.7985 85.3469 52.0549 92.3752C68.2969 114.08 98.4774 102.445 108.104 82.0689C114.601 68.3371 120.862 43.9447 112.623 30.3901C106.096 19.6705 94.0773 13.5871 81.8221 12.7898C70.7775 12.0811 52.0551 16.4516 48.8953 31.8962Z" fill="#FAC7A2"/>
<path fill-rule="evenodd" clip-rule="evenodd" d="M48.199 50.478C47.827 44.121 47.592 38.278 48.895 31.895C52.048 16.437 70.778 12.091 81.833 12.801C94.068 13.587 106.099 19.676 112.616 30.402C114.05 32.763 102.155 43.256 97.705 45.041C89.779 48.22 75.032 52.355 64.138 52.355C57.75 52.355 52.497 51.775 48.199 50.478Z" fill="#F59B67"/>
<path fill-rule="evenodd" clip-rule="evenodd" d="M54.2106 9.48233C63.1289 10.2797 68.1198 3.98961 82.9738 3.98961C92.4827 3.98961 101.933 8.41923 109.64 19.0503C112.859 20.1134 117.318 24.0705 119.887 28.6478C125.35 38.3929 125.41 50.7959 119.887 61.0135C116.993 66.3586 109.374 71.2312 102.936 68.3371C96.2034 61.8994 96.2035 51.3274 97.5323 43.6199C89.6181 46.8092 75.2366 49.8509 64.3397 49.8509C51.0804 49.8509 42.6937 47.3407 37.6144 41.1393C34.307 37.0345 35.5177 33.2546 38.4708 34.0815C36.315 30.5673 34.3956 27.437 34.307 24.986C34.1593 21.1174 34.9271 15.7428 38.4708 12.7307C43.8158 8.18296 49.5152 9.0689 54.2106 9.48233Z" fill="#262626"/>
<path fill-rule="evenodd" clip-rule="evenodd" d="M123.993 44.024C124.108 49.823 122.746 55.706 119.879 61.002C116.983 66.353 109.366 71.216 102.923 68.332C101.696 67.153 100.694 65.838 99.8823 64.427C101.941 60.714 102.911 55.92 107.372 54.321C108.158 54.039 108.982 53.848 109.815 53.781C111.848 53.616 113.65 54.299 115.28 55.491C116.462 56.355 117.354 58.209 119.091 57.5C119.35 57.394 119.598 57.251 119.82 57.082C122.591 54.973 123.325 50.836 123.693 47.614C123.817 46.532 123.937 45.463 123.981 44.373C123.986 44.257 123.99 44.14 123.993 44.024Z" fill="#1A1A1A"/>
<path fill-rule="evenodd" clip-rule="evenodd" d="M99.6709 66.558C100.301 64.1068 102.007 60.8538 103.593 58.7774C106.924 54.4259 112.819 54.7908 115.36 59.3877C119.204 66.2404 115.337 78.0751 110.774 79.9674C108.81 80.7822 106.832 80.7092 104.947 79.9905C102.946 79.2362 101.376 77.5875 100.294 75.6389C99.1594 73.5692 99.0349 69.1272 99.6709 66.558Z" fill="#FAC7A2"/>
<path fill-rule="evenodd" clip-rule="evenodd" d="M110.633 59.4388C109.64 59.4624 108.565 59.6161 107.655 60.0888C105.433 61.2351 104.086 64.1542 103.223 66.3405C102.927 67.0969 103.306 67.9596 104.062 68.255C104.818 68.5505 105.681 68.1723 105.976 67.416C106.319 66.5414 106.733 65.4896 107.288 64.556C107.749 63.7878 108.281 63.0906 109.014 62.7124C109.522 62.4406 110.148 62.4051 110.727 62.3933C111.543 62.3697 112.181 61.6842 112.157 60.8688C112.134 60.0533 111.448 59.4152 110.633 59.4388Z" fill="#F59B67"/>
<path fill-rule="evenodd" clip-rule="evenodd" d="M51.8913 48.833L51.7643 48.691C57.4493 49.341 63.1713 48.912 68.8043 48.028C78.8763 46.448 88.8513 45.397 96.2763 38.16C101.007 33.549 105.652 25.89 108.22 20.957C108.22 20.957 105.652 27.019 104.846 28.709C102.397 33.844 100.443 38.725 97.5293 43.633C89.6043 46.812 75.2213 49.85 64.3273 49.85C59.5803 49.85 55.4593 49.53 51.8913 48.833Z" fill="#1A1A1A"/>
<path d="M33.9442 113.303C38.2567 113.303 41.7527 109.807 41.7527 105.494C41.7527 101.182 38.2567 97.6855 33.9442 97.6855C29.6316 97.6855 26.1356 101.182 26.1356 105.494C26.1356 109.807 29.6316 113.303 33.9442 113.303Z" fill="#86E94B"/>
<path d="M36.5963 64.205C39.4441 64.205 41.7526 61.8964 41.7526 59.0486C41.7526 56.2009 39.4441 53.8923 36.5963 53.8923C33.7485 53.8923 31.4399 56.2009 31.4399 59.0486C31.4399 61.8964 33.7485 64.205 36.5963 64.205Z" fill="#86E94B"/>
<path fill-rule="evenodd" clip-rule="evenodd" d="M21.1664 69.409C24.9824 71.364 27.5974 75.338 27.5974 79.917C27.5974 86.429 22.3104 91.715 15.7984 91.715C11.2195 91.715 7.24646 89.101 5.29047 85.285C7.36146 87.941 10.5925 89.651 14.2184 89.651C20.4624 89.651 25.5324 84.581 25.5324 78.336C25.5324 74.71 23.8224 71.48 21.1664 69.409Z" fill="#46D516"/>
<path fill-rule="evenodd" clip-rule="evenodd" d="M37.4967 98.5399C40.0221 99.8337 41.7527 102.464 41.7527 105.494C41.7527 109.804 38.2538 113.302 33.9442 113.302C30.9138 113.302 28.2845 111.572 26.99 109.047C28.3606 110.804 30.4988 111.936 32.8985 111.936C37.0308 111.936 40.3861 108.581 40.3861 104.448C40.3861 102.048 39.2545 99.9105 37.4967 98.5399Z" fill="#46D516"/>
<path fill-rule="evenodd" clip-rule="evenodd" d="M38.9421 54.4565C40.6098 55.3108 41.7526 57.0475 41.7526 59.0486C41.7526 61.8944 39.4421 64.2045 36.5962 64.2045C34.5951 64.2045 32.8589 63.0621 32.0041 61.3945C32.9091 62.5552 34.3211 63.3025 35.9058 63.3025C38.6345 63.3025 40.8501 61.0868 40.8501 58.3577C40.8501 56.7731 40.1028 55.3615 38.9421 54.4565Z" fill="#46D516"/>
<path fill-rule="evenodd" clip-rule="evenodd" d="M73.112 68.1025C73.618 67.1203 74.071 66.0477 74.939 65.3699C76.968 63.7875 79.799 64.4994 81.354 66.4808C81.865 67.132 82.809 67.2459 83.46 66.7341C84.111 66.2233 84.225 65.2794 83.714 64.6282C81.148 61.3593 76.443 60.3931 73.094 63.0044C71.887 63.9461 71.148 65.3635 70.445 66.7277C70.066 67.464 70.355 68.3685 71.091 68.7484C71.827 69.1272 72.733 68.8378 73.112 68.1025Z" fill="#F59B67"/>
<path fill-rule="evenodd" clip-rule="evenodd" d="M54.479 66.7848C54.749 66.4118 55.024 66.0398 55.467 65.8728C55.918 65.7028 56.395 65.8268 56.815 66.0508C57.345 66.3338 57.8 66.7918 58.055 67.2968C58.429 68.0348 59.332 68.3308 60.071 67.9568C60.809 67.5828 61.105 66.6798 60.731 65.9408C59.645 63.7958 56.826 62.1528 54.408 63.0658C53.397 63.4478 52.666 64.1748 52.049 65.0258C51.564 65.6958 51.714 66.6348 52.384 67.1208C53.055 67.6058 53.993 67.4558 54.479 66.7848Z" fill="#F59B67"/>
<path fill-rule="evenodd" clip-rule="evenodd" d="M62.5497 85.129C63.9887 85.458 65.4457 85.634 66.9217 85.596C67.7497 85.575 68.4037 84.885 68.3827 84.058C68.3617 83.23 67.6717 82.576 66.8447 82.597C65.6197 82.629 64.4117 82.477 63.2187 82.204C62.4117 82.02 61.6067 82.525 61.4217 83.333C61.2377 84.14 61.7427 84.945 62.5497 85.129Z" fill="#F59B67"/>
<path fill-rule="evenodd" clip-rule="evenodd" d="M18.7499 76.9651H21.0972C21.2928 76.9651 21.4809 77.0432 21.6189 77.1812C21.7577 77.32 21.8351 77.5074 21.8351 77.703C21.8351 78.8372 21.8351 80.9963 21.8351 82.1305C21.8351 82.326 21.7577 82.5142 21.6189 82.6522C21.4809 82.7909 21.2928 82.8684 21.0972 82.8684C20.1844 82.8684 18.7499 82.8684 18.7499 82.8684V85.2157C18.7499 85.4112 18.6724 85.5987 18.5344 85.7374C18.3957 85.8754 18.2083 85.9536 18.012 85.9536C16.8778 85.9536 14.7186 85.9536 13.5845 85.9536C13.3889 85.9536 13.2015 85.8754 13.0627 85.7374C12.9248 85.5987 12.8465 85.4112 12.8465 85.2157C12.8465 84.3029 12.8465 82.8684 12.8465 82.8684H10.4999C10.3044 82.8684 10.1162 82.7909 9.97823 82.6522C9.83951 82.5142 9.76202 82.326 9.76202 82.1305C9.76202 80.9963 9.76202 78.8372 9.76202 77.703C9.76202 77.5074 9.83951 77.32 9.97823 77.1812C10.1162 77.0432 10.3044 76.9651 10.4999 76.9651C11.412 76.9651 12.8465 76.9651 12.8465 76.9651V74.6177C12.8465 74.4222 12.9248 74.2348 13.0627 74.096C13.2015 73.958 13.3889 73.8798 13.5845 73.8798C14.7186 73.8798 16.8778 73.8798 18.012 73.8798C18.2083 73.8798 18.3957 73.958 18.5344 74.096C18.6724 74.2348 18.7499 74.4222 18.7499 74.6177C18.7499 75.5305 18.7499 76.9651 18.7499 76.9651Z" fill="white"/>
<path fill-rule="evenodd" clip-rule="evenodd" d="M35.8974 103.54H37.4509C37.5803 103.54 37.7048 103.592 37.7961 103.683C37.8879 103.775 37.9392 103.899 37.9392 104.029C37.9392 104.779 37.9392 106.208 37.9392 106.959C37.9392 107.088 37.8879 107.213 37.7961 107.304C37.7048 107.396 37.5803 107.447 37.4509 107.447C36.8468 107.447 35.8974 107.447 35.8974 107.447V109.001C35.8974 109.13 35.8461 109.254 35.7548 109.346C35.663 109.437 35.5389 109.489 35.409 109.489C34.6584 109.489 33.2295 109.489 32.4789 109.489C32.3495 109.489 32.2254 109.437 32.1336 109.346C32.0423 109.254 31.9905 109.13 31.9905 109.001C31.9905 108.397 31.9905 107.447 31.9905 107.447H30.4376C30.3082 107.447 30.1836 107.396 30.0923 107.304C30.0005 107.213 29.9492 107.088 29.9492 106.959C29.9492 106.208 29.9492 104.779 29.9492 104.029C29.9492 103.899 30.0005 103.775 30.0923 103.683C30.1836 103.592 30.3082 103.54 30.4376 103.54C31.0412 103.54 31.9905 103.54 31.9905 103.54V101.987C31.9905 101.857 32.0423 101.733 32.1336 101.642C32.2254 101.55 32.3495 101.498 32.4789 101.498C33.2295 101.498 34.6584 101.498 35.409 101.498C35.5389 101.498 35.663 101.55 35.7548 101.642C35.8461 101.733 35.8974 101.857 35.8974 101.987C35.8974 102.591 35.8974 103.54 35.8974 103.54Z" fill="white"/>
<path fill-rule="evenodd" clip-rule="evenodd" d="M37.8862 57.7597H38.9121C38.9975 57.7597 39.0798 57.7939 39.1401 57.8542C39.2007 57.9148 39.2346 57.9967 39.2346 58.0822C39.2346 58.5778 39.2346 59.5214 39.2346 60.0171C39.2346 60.1025 39.2007 60.1848 39.1401 60.2451C39.0798 60.3057 38.9975 60.3396 38.9121 60.3396C38.5132 60.3396 37.8862 60.3396 37.8862 60.3396V61.3654C37.8862 61.4508 37.8524 61.5328 37.7921 61.5934C37.7315 61.6537 37.6495 61.6879 37.5638 61.6879C37.0681 61.6879 36.1245 61.6879 35.6288 61.6879C35.5434 61.6879 35.4615 61.6537 35.4009 61.5934C35.3405 61.5328 35.3064 61.4508 35.3064 61.3654C35.3064 60.9665 35.3064 60.3396 35.3064 60.3396H34.2809C34.1954 60.3396 34.1132 60.3057 34.0529 60.2451C33.9922 60.1848 33.9584 60.1025 33.9584 60.0171C33.9584 59.5214 33.9584 58.5778 33.9584 58.0822C33.9584 57.9967 33.9922 57.9148 34.0529 57.8542C34.1132 57.7939 34.1954 57.7597 34.2809 57.7597C34.6795 57.7597 35.3064 57.7597 35.3064 57.7597V56.7339C35.3064 56.6484 35.3405 56.5665 35.4009 56.5059C35.4615 56.4456 35.5434 56.4114 35.6288 56.4114C36.1245 56.4114 37.0681 56.4114 37.5638 56.4114C37.6495 56.4114 37.7315 56.4456 37.7921 56.5059C37.8524 56.5665 37.8862 56.6484 37.8862 56.7339C37.8862 57.1328 37.8862 57.7597 37.8862 57.7597Z" fill="white"/>
<path fill-rule="evenodd" clip-rule="evenodd" d="M78.5369 88.694C77.8069 91.605 74.333 95.416 68.541 94.804C67.718 94.716 66.979 95.314 66.892 96.137C66.804 96.961 67.402 97.7 68.225 97.787C75.9599 98.605 80.472 93.311 81.447 89.424C81.648 88.622 81.1599 87.806 80.357 87.605C79.554 87.403 78.7389 87.891 78.5369 88.694Z" fill="#F59B67"/>
</svg>
