<svg width="128" height="128" viewBox="0 0 128 128" fill="none" xmlns="http://www.w3.org/2000/svg">
<path fill-rule="evenodd" clip-rule="evenodd" d="M85.4738 20.2448H42.5253V102.529C42.5253 114.389 52.1395 124.003 63.9995 124.003C75.8596 124.003 85.4738 114.389 85.4738 102.529C85.4738 72.1407 85.4738 20.2448 85.4738 20.2448Z" fill="#BDDEFF"/>
<path fill-rule="evenodd" clip-rule="evenodd" d="M85.4738 12.4684H42.5253V102.529C42.5253 114.389 52.1395 124.003 63.9995 124.003C75.8596 124.003 85.4738 114.389 85.4738 102.529C85.4738 70.1243 85.4738 12.4684 85.4738 12.4684Z" fill="#BDDEFF"/>
<path fill-rule="evenodd" clip-rule="evenodd" d="M81.4735 45.0706C81.4735 42.4552 68.6861 40.3099 63.0791 45.0706C59.2298 48.3393 46.5255 47.9958 46.5255 45.0706V102.529C46.5255 112.179 54.3483 120.003 63.9995 120.003C73.6499 120.003 81.4735 112.179 81.4735 102.529V45.0706Z" fill="#F64545"/>
<path fill-rule="evenodd" clip-rule="evenodd" d="M46.5265 45.0706C46.5265 42.4552 57.2691 39.3553 64.0005 45.0706C69.6411 49.8591 81.4745 47.9958 81.4745 45.0706V102.529C81.4745 112.179 73.6517 120.003 64.0005 120.003C54.3501 120.003 46.5265 112.179 46.5265 102.529V45.0706Z" fill="#FF6161"/>
<path d="M58.7167 105.941C61.0252 105.941 62.8966 104.069 62.8966 101.761C62.8966 99.4523 61.0252 97.5809 58.7167 97.5809C56.4082 97.5809 54.5368 99.4523 54.5368 101.761C54.5368 104.069 56.4082 105.941 58.7167 105.941Z" fill="#F64545"/>
<path d="M85.474 12.4659H42.526V18.9409H85.474V12.4659Z" fill="#8CC1FF"/>
<path fill-rule="evenodd" clip-rule="evenodd" d="M92.746 9.3499C92.746 7.93159 92.1823 6.57106 91.1792 5.56709C90.1753 4.56411 88.8142 4.00037 87.3961 4.00037C76.4394 4.00037 51.5619 4.00037 40.6061 4.00037C39.1871 4.00037 37.8261 4.56411 36.823 5.56709C35.82 6.57106 35.2563 7.93159 35.2563 9.3499C35.2563 9.3509 35.2563 9.35091 35.2563 9.35091C35.2563 10.7702 35.82 12.1308 36.823 13.1348C37.8261 14.1377 39.1871 14.7015 40.6061 14.7015C51.5619 14.7015 76.4394 14.7015 87.3961 14.7015C88.8142 14.7015 90.1753 14.1377 91.1792 13.1348C92.1823 12.1308 92.746 10.7702 92.746 9.35091C92.746 9.35091 92.746 9.3509 92.746 9.3499Z" fill="#BDDEFF"/>
<path d="M52.3188 97.5825C53.5441 97.5825 54.5374 96.5891 54.5374 95.3638C54.5374 94.1385 53.5441 93.1453 52.3188 93.1453C51.0935 93.1453 50.1002 94.1385 50.1002 95.3638C50.1002 96.5891 51.0935 97.5825 52.3188 97.5825Z" fill="#F64545"/>
<path d="M57.7732 91.4484C59.561 91.4484 61.0103 89.9991 61.0103 88.2113C61.0103 86.4236 59.561 84.9743 57.7732 84.9743C55.9854 84.9743 54.5362 86.4236 54.5362 88.2113C54.5362 89.9991 55.9854 91.4484 57.7732 91.4484Z" fill="#F64545"/>
<path d="M51.5127 83.7475C52.2933 83.7475 52.926 83.1147 52.926 82.3342C52.926 81.5537 52.2933 80.921 51.5127 80.921C50.7322 80.921 50.0995 81.5537 50.0995 82.3342C50.0995 83.1147 50.7322 83.7475 51.5127 83.7475Z" fill="#F64545"/>
<path d="M105.855 42.2469C110.065 42.2469 113.478 38.8342 113.478 34.6245C113.478 30.4147 110.065 27.002 105.855 27.002C101.645 27.002 98.2326 30.4147 98.2326 34.6245C98.2326 38.8342 101.645 42.2469 105.855 42.2469Z" fill="#86E94B"/>
<path d="M28.0498 59.7219C32.0293 59.7219 35.2554 56.4959 35.2554 52.5164C35.2554 48.5369 32.0293 45.3109 28.0498 45.3109C24.0703 45.3109 20.8443 48.5369 20.8443 52.5164C20.8443 56.4959 24.0703 59.7219 28.0498 59.7219Z" fill="#86E94B"/>
<path d="M20.1362 20.6356C23.2368 20.6356 25.7502 18.1221 25.7502 15.0215C25.7502 11.921 23.2368 9.40747 20.1362 9.40747C17.0357 9.40747 14.5222 11.921 14.5222 15.0215C14.5222 18.1221 17.0357 20.6356 20.1362 20.6356Z" fill="#86E94B"/>
<path fill-rule="evenodd" clip-rule="evenodd" d="M109.323 27.8359C111.788 29.0989 113.478 31.6663 113.478 34.6244C113.478 38.8314 110.062 42.2463 105.855 42.2463C102.897 42.2463 100.33 40.5576 99.0667 38.0923C100.405 39.8082 102.492 40.9129 104.834 40.9129C108.868 40.9129 112.144 37.6375 112.144 33.6031C112.144 31.2605 111.039 29.1739 109.323 27.8359Z" fill="#46D516"/>
<path fill-rule="evenodd" clip-rule="evenodd" d="M31.328 46.0992C33.6584 47.2931 35.2554 49.72 35.2554 52.5164C35.2554 56.4932 32.0267 59.7213 28.0499 59.7213C25.2535 59.7213 22.8273 58.1249 21.6328 55.7945C22.8975 57.4165 24.8706 58.4608 27.085 58.4608C30.8981 58.4608 33.9943 55.3646 33.9943 51.5509C33.9943 49.3365 32.95 47.364 31.328 46.0992Z" fill="#46D516"/>
<path fill-rule="evenodd" clip-rule="evenodd" d="M22.6903 10.0217C24.506 10.9519 25.7502 12.8428 25.7502 15.0215C25.7502 18.1199 23.2347 20.635 20.1362 20.635C17.9575 20.635 16.0671 19.3913 15.1364 17.5756C16.1218 18.8393 17.6591 19.653 19.3844 19.653C22.3554 19.653 24.7677 17.2406 24.7677 14.2692C24.7677 12.544 23.9541 11.0071 22.6903 10.0217Z" fill="#46D516"/>
<path fill-rule="evenodd" clip-rule="evenodd" d="M107.762 32.7159H109.278C109.405 32.7159 109.526 32.7665 109.615 32.8556C109.705 32.9452 109.755 33.0663 109.755 33.1927C109.755 33.9254 109.755 35.3203 109.755 36.053C109.755 36.1793 109.705 36.3008 109.615 36.39C109.526 36.4796 109.405 36.5297 109.278 36.5297C108.689 36.5297 107.762 36.5297 107.762 36.5297V38.0461C107.762 38.1724 107.712 38.2935 107.623 38.3832C107.533 38.4723 107.412 38.5228 107.285 38.5228C106.553 38.5228 105.158 38.5228 104.425 38.5228C104.299 38.5228 104.178 38.4723 104.088 38.3832C103.999 38.2935 103.948 38.1724 103.948 38.0461C103.948 37.4564 103.948 36.5297 103.948 36.5297H102.432C102.306 36.5297 102.184 36.4796 102.095 36.39C102.006 36.3008 101.956 36.1793 101.956 36.053C101.956 35.3203 101.956 33.9254 101.956 33.1927C101.956 33.0663 102.006 32.9452 102.095 32.8556C102.184 32.7665 102.306 32.7159 102.432 32.7159C103.022 32.7159 103.948 32.7159 103.948 32.7159V31.1995C103.948 31.0732 103.999 30.9521 104.088 30.8625C104.178 30.7733 104.299 30.7228 104.425 30.7228C105.158 30.7228 106.553 30.7228 107.285 30.7228C107.412 30.7228 107.533 30.7733 107.623 30.8625C107.712 30.9521 107.762 31.0732 107.762 31.1995C107.762 31.7892 107.762 32.7159 107.762 32.7159Z" fill="white"/>
<path fill-rule="evenodd" clip-rule="evenodd" d="M29.8524 50.7138H31.2859C31.4053 50.7138 31.5202 50.7616 31.6045 50.8458C31.6892 50.9305 31.7365 51.045 31.7365 51.1644C31.7365 51.8571 31.7365 53.1757 31.7365 53.8683C31.7365 53.9877 31.6892 54.1026 31.6045 54.1869C31.5202 54.2716 31.4053 54.3189 31.2859 54.3189C30.7284 54.3189 29.8524 54.3189 29.8524 54.3189V55.7524C29.8524 55.8718 29.8051 55.9863 29.7208 56.071C29.6361 56.1553 29.5216 56.2031 29.4017 56.2031C28.7091 56.2031 27.3905 56.2031 26.6979 56.2031C26.5784 56.2031 26.464 56.1553 26.3793 56.071C26.295 55.9863 26.2472 55.8718 26.2472 55.7524C26.2472 55.195 26.2472 54.3189 26.2472 54.3189H24.8142C24.6947 54.3189 24.5798 54.2716 24.4956 54.1869C24.4108 54.1026 24.3635 53.9877 24.3635 53.8683C24.3635 53.1757 24.3635 51.8571 24.3635 51.1644C24.3635 51.045 24.4108 50.9305 24.4956 50.8458C24.5798 50.7616 24.6947 50.7138 24.8142 50.7138C25.3712 50.7138 26.2472 50.7138 26.2472 50.7138V49.2803C26.2472 49.1609 26.295 49.0464 26.3793 48.9617C26.464 48.8774 26.5784 48.8297 26.6979 48.8297C27.3905 48.8297 28.7091 48.8297 29.4017 48.8297C29.5216 48.8297 29.6361 48.8774 29.7208 48.9617C29.8051 49.0464 29.8524 49.1609 29.8524 49.2803C29.8524 49.8377 29.8524 50.7138 29.8524 50.7138Z" fill="white"/>
<path fill-rule="evenodd" clip-rule="evenodd" d="M21.5406 13.6176H22.6575C22.7505 13.6176 22.8401 13.6549 22.9057 13.7205C22.9717 13.7865 23.0086 13.8757 23.0086 13.9688C23.0086 14.5084 23.0086 15.5357 23.0086 16.0754C23.0086 16.1684 22.9717 16.258 22.9057 16.3236C22.8401 16.3896 22.7505 16.4265 22.6575 16.4265C22.2232 16.4265 21.5406 16.4265 21.5406 16.4265V17.5434C21.5406 17.6364 21.5038 17.7256 21.4381 17.7916C21.3721 17.8573 21.2829 17.8945 21.1895 17.8945C20.6499 17.8945 19.6225 17.8945 19.0829 17.8945C18.9898 17.8945 18.9007 17.8573 18.8347 17.7916C18.769 17.7256 18.7318 17.6364 18.7318 17.5434C18.7318 17.109 18.7318 16.4265 18.7318 16.4265H17.6153C17.5222 16.4265 17.4327 16.3896 17.367 16.3236C17.301 16.258 17.2642 16.1684 17.2642 16.0754C17.2642 15.5357 17.2642 14.5084 17.2642 13.9688C17.2642 13.8757 17.301 13.7865 17.367 13.7205C17.4327 13.6549 17.5222 13.6176 17.6153 13.6176C18.0492 13.6176 18.7318 13.6176 18.7318 13.6176V12.5008C18.7318 12.4077 18.769 12.3186 18.8347 12.2525C18.9007 12.1869 18.9898 12.1497 19.0829 12.1497C19.6225 12.1497 20.6499 12.1497 21.1895 12.1497C21.2829 12.1497 21.3721 12.1869 21.4381 12.2525C21.5038 12.3186 21.5406 12.4077 21.5406 12.5008C21.5406 12.9351 21.5406 13.6176 21.5406 13.6176Z" fill="white"/>
<path d="M84.1181 83.0467C87.7082 83.0467 90.6185 80.1364 90.6185 76.5463C90.6185 72.9562 87.7082 70.0459 84.1181 70.0459C80.5281 70.0459 77.6177 72.9562 77.6177 76.5463C77.6177 80.1364 80.5281 83.0467 84.1181 83.0467Z" fill="#86E94B"/>
<path fill-rule="evenodd" clip-rule="evenodd" d="M87.0755 70.7571C89.1779 71.8342 90.6185 74.0236 90.6185 76.5463C90.6185 80.1339 87.7058 83.0461 84.1181 83.0461C81.5954 83.0461 79.4066 81.606 78.329 79.5037C79.47 80.9669 81.25 81.909 83.2477 81.909C86.6877 81.909 89.4809 79.1158 89.4809 75.6753C89.4809 73.6776 88.5388 71.8981 87.0755 70.7571Z" fill="#46D516"/>
<path fill-rule="evenodd" clip-rule="evenodd" d="M85.7439 74.919H87.0371C87.1449 74.919 87.2485 74.9621 87.3245 75.0381C87.401 75.1145 87.4437 75.2178 87.4437 75.3255C87.4437 75.9504 87.4437 77.14 87.4437 77.7648C87.4437 77.8725 87.401 77.9762 87.3245 78.0522C87.2485 78.1287 87.1449 78.1714 87.0371 78.1714C86.5342 78.1714 85.7439 78.1714 85.7439 78.1714V79.4646C85.7439 79.5723 85.7012 79.6756 85.6252 79.752C85.5488 79.828 85.4455 79.8711 85.3374 79.8711C84.7125 79.8711 83.523 79.8711 82.8982 79.8711C82.7904 79.8711 82.6872 79.828 82.6107 79.752C82.5347 79.6756 82.4916 79.5723 82.4916 79.4646C82.4916 78.9617 82.4916 78.1714 82.4916 78.1714H81.1988C81.0911 78.1714 80.9874 78.1287 80.9114 78.0522C80.835 77.9762 80.7923 77.8725 80.7923 77.7648C80.7923 77.14 80.7923 75.9504 80.7923 75.3255C80.7923 75.2178 80.835 75.1145 80.9114 75.0381C80.9874 74.9621 81.0911 74.919 81.1988 74.919C81.7013 74.919 82.4916 74.919 82.4916 74.919V73.6258C82.4916 73.518 82.5347 73.4148 82.6107 73.3384C82.6872 73.2623 82.7904 73.2192 82.8982 73.2192C83.523 73.2192 84.7125 73.2192 85.3374 73.2192C85.4455 73.2192 85.5488 73.2623 85.6252 73.3384C85.7012 73.4148 85.7439 73.518 85.7439 73.6258C85.7439 74.1287 85.7439 74.919 85.7439 74.919Z" fill="white"/>
</svg>
