<svg width="128" height="128" viewBox="0 0 128 128" fill="none" xmlns="http://www.w3.org/2000/svg">
<path fill-rule="evenodd" clip-rule="evenodd" d="M57.364 11.2209H42.662C39.703 11.2209 36.983 12.844 35.577 15.447C35.249 16.055 35.005 16.507 35.005 16.507C34.481 17.478 34.843 18.6919 35.815 19.2169C36.786 19.7409 38 19.3779 38.525 18.4069C38.525 18.4069 38.768 17.956 39.097 17.348C39.804 16.038 41.173 15.221 42.662 15.221C47.997 15.221 57.364 15.221 57.364 15.221C58.468 15.221 59.364 14.325 59.364 13.221C59.364 12.1169 58.468 11.2209 57.364 11.2209Z" fill="#FFA215"/>
<path fill-rule="evenodd" clip-rule="evenodd" d="M73.0579 7.99988C73.0579 5.7908 71.267 3.99988 69.058 3.99988C66.0508 3.99988 61.9492 3.99988 58.942 3.99988C56.7327 3.99988 54.9421 5.7908 54.9421 7.99988C54.9421 14.8747 54.9421 28.2005 54.9421 28.2005H73.0579V7.99988Z" fill="#FFCB49"/>
<path fill-rule="evenodd" clip-rule="evenodd" d="M81.2783 29.9372C81.2783 26.6234 78.5918 23.937 75.2782 23.937C68.9535 23.937 59.0474 23.937 52.722 23.937C49.4084 23.937 46.7225 26.6234 46.7225 29.9372C46.7225 35.7987 46.7225 43.8448 46.7225 43.8448H81.2783V29.9372Z" fill="#FFA215"/>
<path fill-rule="evenodd" clip-rule="evenodd" d="M49.525 29.2009V42.845C49.525 43.397 49.973 43.845 50.525 43.845C51.077 43.845 51.525 43.397 51.525 42.845V29.2009C51.525 28.6489 51.077 28.2009 50.525 28.2009C49.973 28.2009 49.525 28.6489 49.525 29.2009Z" fill="#FFCB49"/>
<path fill-rule="evenodd" clip-rule="evenodd" d="M56.263 29.2009V42.845C56.263 43.397 56.711 43.845 57.263 43.845C57.815 43.845 58.263 43.397 58.263 42.845V29.2009C58.263 28.6489 57.815 28.2009 57.263 28.2009C56.711 28.2009 56.263 28.6489 56.263 29.2009Z" fill="#FFCB49"/>
<path fill-rule="evenodd" clip-rule="evenodd" d="M63.001 29.2009V42.845C63.001 43.397 63.449 43.845 64.001 43.845C64.553 43.845 65.001 43.397 65.001 42.845V29.2009C65.001 28.6489 64.553 28.2009 64.001 28.2009C63.449 28.2009 63.001 28.6489 63.001 29.2009Z" fill="#FFCB49"/>
<path fill-rule="evenodd" clip-rule="evenodd" d="M69.739 29.2009V42.845C69.739 43.397 70.187 43.845 70.739 43.845C71.291 43.845 71.739 43.397 71.739 42.845V29.2009C71.739 28.6489 71.291 28.2009 70.739 28.2009C70.187 28.2009 69.739 28.6489 69.739 29.2009Z" fill="#FFCB49"/>
<path fill-rule="evenodd" clip-rule="evenodd" d="M76.475 29.2009V42.845C76.475 43.397 76.923 43.845 77.475 43.845C78.027 43.845 78.475 43.397 78.475 42.845V29.2009C78.475 28.6489 78.027 28.2009 77.475 28.2009C76.923 28.2009 76.475 28.6489 76.475 29.2009Z" fill="#FFCB49"/>
<path fill-rule="evenodd" clip-rule="evenodd" d="M95.9568 58.5076C95.9568 47.4618 87.0024 38.5071 75.9568 38.5071C68.3386 38.5071 59.6608 38.5071 52.0438 38.5071C40.9982 38.5071 32.0438 47.4618 32.0438 58.5076C32.0438 75.9207 32.0438 100.44 32.0438 113.999C32.0438 116.651 33.0973 119.195 34.9723 121.07C36.8472 122.946 39.3914 123.999 42.0432 123.999C54.0239 123.999 73.9755 123.999 85.9561 123.999C88.6091 123.999 91.1522 122.946 93.0283 121.07C94.9033 119.195 95.9568 116.651 95.9568 113.999C95.9568 100.44 95.9568 75.9207 95.9568 58.5076Z" fill="#BDDEFF"/>
<path fill-rule="evenodd" clip-rule="evenodd" d="M91.8502 63.9987C87.7251 59.5761 70.1732 60.8042 64.0003 63.9987C57.8275 67.1931 43.3666 68.0287 36.1505 63.9987V111.907C36.1505 114.028 36.9927 116.063 38.493 117.564C39.9933 119.064 42.0285 119.907 44.15 119.907C54.73 119.907 73.2696 119.907 83.8496 119.907C85.9721 119.907 88.0062 119.064 89.5065 117.564C91.0068 116.063 91.8502 114.028 91.8502 111.907C91.8502 96.452 91.8502 63.9987 91.8502 63.9987Z" fill="#FFA215"/>
<path fill-rule="evenodd" clip-rule="evenodd" d="M36.1498 63.9987C40.2749 59.5761 57.8268 60.8042 63.9997 63.9987C70.1725 67.1931 84.6334 68.0287 91.8495 63.9987V111.907C91.8495 114.028 91.0073 116.063 89.507 117.564C88.0067 119.064 85.9715 119.907 83.85 119.907C73.27 119.907 54.7304 119.907 44.1504 119.907C42.0279 119.907 39.9938 119.064 38.4935 117.564C36.9932 116.063 36.1498 114.028 36.1498 111.907C36.1498 96.452 36.1498 63.9987 36.1498 63.9987Z" fill="#FFCB49"/>
</svg>
