<svg width="128" height="128" viewBox="0 0 128 128" fill="none" xmlns="http://www.w3.org/2000/svg">
<path fill-rule="evenodd" clip-rule="evenodd" d="M23.664 82.2591C19.4593 80.9263 14.549 82.6954 12.9418 86.774C11.3345 90.8509 12.6895 96.0237 17.1805 98.0178C22.4079 100.341 28.0034 96.8554 29.0362 91.7321C29.3976 89.9408 29.0362 83.9635 23.664 82.2591Z" fill="#BDDEFF"/>
<path fill-rule="evenodd" clip-rule="evenodd" d="M21.4539 81.845C22.1979 81.895 22.9409 82.032 23.6629 82.261C29.0359 83.965 29.3979 89.942 29.0359 91.734C28.0029 96.857 22.4079 100.341 17.1799 98.02C15.5839 97.311 14.3839 96.201 13.5719 94.88C13.6419 94.957 14.7029 95.551 14.9179 95.623C17.8419 96.599 17.7639 94.74 19.0369 93.216C20.1249 91.912 20.9839 91.802 21.9769 91.128C22.9569 90.464 23.4199 88.271 23.4489 87.138C23.4829 85.832 23.4829 82.626 21.4539 81.845Z" fill="#8CC1FF"/>
<path fill-rule="evenodd" clip-rule="evenodd" d="M101.713 67.7349C101.713 63.391 99.987 59.2241 96.9156 56.1524C93.8442 53.0807 89.6779 51.3554 85.3335 51.3554C72.1281 51.3554 53.6459 51.3554 40.4406 51.3554C36.0962 51.3554 31.9299 53.0807 28.8585 56.1524C25.7861 59.2241 24.0611 63.391 24.0611 67.7349C24.0611 74.968 24.0611 83.4526 24.0611 90.6857C24.0611 95.0296 25.7861 99.1954 28.8585 102.267C31.9299 105.339 36.0962 107.065 40.4406 107.065C53.6459 107.065 72.1281 107.065 85.3335 107.065C89.6779 107.065 93.8442 105.339 96.9156 102.267C99.987 99.1954 101.713 95.0296 101.713 90.6857C101.713 83.4526 101.713 74.968 101.713 67.7349Z" fill="#FFCB49"/>
<path fill-rule="evenodd" clip-rule="evenodd" d="M92.99 54.181C91.716 53.024 90.109 52.116 88.166 51.6C91.459 52.178 94.52 53.755 96.916 56.151C99.987 59.222 101.713 63.389 101.713 67.733C101.713 74.966 101.713 83.45 101.713 90.683C101.713 95.028 99.987 99.1941 96.916 102.265C93.844 105.337 89.678 107.063 85.334 107.063C72.128 107.063 53.646 107.063 40.44 107.063C36.096 107.063 31.93 105.337 28.858 102.265C26.915 100.322 25.511 97.9411 24.741 95.3531C24.772 95.3901 25.299 95.967 26.116 96.733C26.823 97.967 27.703 99.1131 28.741 100.132C31.738 103.075 35.803 104.728 40.041 104.728C52.925 104.728 70.957 104.728 83.84 104.728C88.079 104.728 92.143 103.075 95.14 100.132C98.137 97.1891 99.821 93.197 99.821 89.035C99.821 82.105 99.821 73.976 99.821 67.046C99.821 62.884 98.137 58.893 95.14 55.95C94.473 55.295 93.753 54.703 92.99 54.181Z" fill="#FFA215"/>
<path fill-rule="evenodd" clip-rule="evenodd" d="M44.6979 90.624C43.8739 90.221 43.1149 89.682 42.4539 89.021C40.8809 87.448 39.9969 85.314 39.9969 83.088C39.9969 79.382 39.9969 79.036 39.9969 75.33C39.9969 73.105 40.8809 70.971 42.4539 69.397C44.0279 67.823 46.1619 66.939 48.3879 66.939C55.1529 66.939 70.6209 66.939 77.3859 66.939C79.6119 66.939 81.7459 67.823 83.3199 69.397C84.3109 70.388 85.0279 71.602 85.4239 72.92C85.0389 72.191 84.5419 71.517 83.9429 70.925C82.3949 69.395 80.2959 68.536 78.1079 68.536C71.4549 68.536 56.2439 68.536 49.5909 68.536C47.4019 68.536 45.3039 69.395 43.7559 70.925C42.2089 72.455 41.3389 74.529 41.3389 76.693C41.3389 80.295 41.3389 80.454 41.3389 84.056C41.3389 86.22 42.2089 88.294 43.7559 89.824C44.0509 90.116 44.3659 90.383 44.6979 90.624Z" fill="#FFA215"/>
<path fill-rule="evenodd" clip-rule="evenodd" d="M59.9045 29.7201C59.2273 29.5356 57.5109 29.3121 56.599 29.7201C54.6877 30.5751 54.0207 33.8158 54.9196 35.7703C55.3482 36.7012 56.2545 37.3791 57.0988 37.7449C58.5234 38.3606 60.0421 38.1097 61.4325 37.5056C62.2658 37.1429 63.2274 35.2569 63.2274 33.9296C63.2274 31.9772 61.3003 30.0985 59.9045 29.7201Z" fill="#BDDEFF"/>
<path fill-rule="evenodd" clip-rule="evenodd" d="M59.8404 29.7032C59.8626 29.7087 59.8839 29.7143 59.9051 29.7198C61.3001 30.0986 63.2272 31.9776 63.2272 33.9306C63.2272 35.2572 62.2664 37.1427 61.4322 37.5058C60.0419 38.11 58.5231 38.3603 57.0995 37.745C56.3798 37.4337 55.6158 36.8961 55.1401 36.1681C55.4375 36.388 55.7553 36.5662 56.0648 36.6993C57.408 37.2804 58.8399 37.0439 60.1517 36.4739C60.9379 36.1321 61.8451 34.3537 61.8451 33.1019C61.8451 31.7578 60.876 30.4496 59.8404 29.7032Z" fill="#8CC1FF"/>
<path fill-rule="evenodd" clip-rule="evenodd" d="M17.8633 23.842C15.3258 23.0376 12.3625 24.1053 11.3925 26.5667C10.4226 29.0271 11.2403 32.1488 13.9506 33.3523C17.1053 34.7542 20.4821 32.6508 21.1054 29.5589C21.3235 28.4778 21.1054 24.8706 17.8633 23.842Z" fill="#BDDEFF"/>
<path fill-rule="evenodd" clip-rule="evenodd" d="M112.398 51.9676C108.862 50.8468 104.732 52.3346 103.38 55.7646C102.029 59.1931 103.168 63.5433 106.945 65.2203C111.341 67.1739 116.047 64.2428 116.916 59.9341C117.219 58.4277 116.915 53.401 112.398 51.9676Z" fill="#BDDEFF"/>
<path fill-rule="evenodd" clip-rule="evenodd" d="M17.7472 23.8071C17.7863 23.8184 17.8254 23.8307 17.8644 23.842C21.1065 24.8706 21.3246 28.4779 21.1065 29.5589C20.4832 32.6508 17.1064 34.7543 13.9517 33.3523C13.1432 32.9934 12.5024 32.4636 12.0283 31.8321C12.3091 32.044 12.6217 32.2301 12.9663 32.3834C15.9739 33.7185 19.1913 31.7138 19.7858 28.7679C19.9669 27.8689 19.8321 25.1411 17.7472 23.8071Z" fill="#8CC1FF"/>
<path fill-rule="evenodd" clip-rule="evenodd" d="M112.234 51.9189C112.289 51.9347 112.343 51.9519 112.398 51.9677C116.915 53.401 117.219 58.4277 116.915 59.9342C116.047 64.2428 111.341 67.1739 106.945 65.2203C105.818 64.7201 104.925 63.9819 104.265 63.1018C104.656 63.3971 105.092 63.6565 105.572 63.8701C109.763 65.7306 114.246 62.937 115.075 58.8319C115.327 57.5792 115.139 53.778 112.234 51.9189Z" fill="#8CC1FF"/>
<path fill-rule="evenodd" clip-rule="evenodd" d="M86.6655 14.4332C87.6654 15.6213 88.0712 17.9298 86.4819 19.2637C85.8971 19.7548 85.0361 19.939 84.297 20.0066C83.7893 20.0511 83.2694 20.0802 82.7771 19.9221C80.9734 19.3465 80.4256 16.3611 81.6538 14.9858C82.5627 13.9682 83.2138 13.8039 84.297 13.6919C85.0839 13.609 86.1579 13.83 86.6655 14.4332Z" fill="#BDDEFF"/>
<path fill-rule="evenodd" clip-rule="evenodd" d="M21.0177 81.1925C21.6832 82.333 21.3417 84.3074 20.1806 84.9834C19.6186 85.3107 18.8403 85.509 18.2105 85.4571C17.7779 85.4221 17.3665 85.2024 16.9764 84.9983C15.5464 84.2535 15.5201 81.6689 16.7503 80.6932C17.6606 79.9712 18.2308 79.9279 19.156 79.9911C19.8283 80.0357 20.6782 80.6112 21.0177 81.1925Z" fill="#BDDEFF"/>
<path fill-rule="evenodd" clip-rule="evenodd" d="M19.8509 80.189C20.3309 80.415 20.7899 80.803 21.0169 81.193C21.6829 82.334 21.3419 84.309 20.1799 84.985C19.6189 85.311 18.8409 85.51 18.2099 85.458C17.7779 85.423 17.3659 85.203 16.9769 85C16.8839 84.952 16.7979 84.896 16.7169 84.834C16.9839 84.959 17.2589 85.061 17.5429 85.084C18.1789 85.136 18.9639 84.936 19.5299 84.607C20.7009 83.925 21.0459 81.934 20.3739 80.783C20.2539 80.577 20.0689 80.371 19.8509 80.189Z" fill="#8CC1FF"/>
<path fill-rule="evenodd" clip-rule="evenodd" d="M85.7966 13.8724C86.1431 13.9975 86.4529 14.1822 86.6653 14.4341C87.6635 15.6208 88.0432 18.1156 86.4539 19.4494C85.8692 19.9403 85.0088 20.125 84.2689 20.1921C83.7624 20.2372 83.2678 20.08 82.776 19.9228C82.1114 19.7104 81.6169 19.1709 81.32 18.5053C81.5332 18.7002 81.7815 18.851 82.0609 18.9411C82.5242 19.089 82.9893 19.2481 83.4673 19.2049C84.165 19.1424 84.9767 18.9677 85.5282 18.5053C86.9852 17.2828 86.6699 15.027 85.7966 13.8724Z" fill="#8CC1FF"/>
<path fill-rule="evenodd" clip-rule="evenodd" d="M30.7389 91.0323C25.5494 89.3873 19.489 91.5708 17.5054 96.6046C15.5217 101.636 17.194 108.021 22.7369 110.482C29.1886 113.349 36.0946 109.047 37.3693 102.724C37.8153 100.513 37.3693 93.1358 30.7389 91.0323Z" fill="#BDDEFF"/>
<path fill-rule="evenodd" clip-rule="evenodd" d="M39.0908 98.9341C36.351 98.0656 33.1515 99.2184 32.1043 101.876C31.057 104.532 31.9399 107.903 34.8662 109.202C38.2723 110.716 41.9183 108.445 42.5912 105.107C42.8267 103.939 42.5912 100.045 39.0908 98.9341Z" fill="#BDDEFF"/>
<path fill-rule="evenodd" clip-rule="evenodd" d="M33.8939 108.701C30.9929 111.263 26.7749 112.278 22.7349 110.484C21.0809 109.75 19.7719 108.666 18.8019 107.374C19.3759 107.808 20.0149 108.188 20.7199 108.501C24.8969 110.355 29.2719 109.06 32.0309 106.15C32.2119 106.653 32.4759 107.04 32.7709 107.374C33.0299 107.667 33.4299 107.991 33.8019 108.157C37.0489 109.598 40.5229 107.435 41.1649 104.253C41.3609 103.283 41.2149 100.338 38.9649 98.897C39.0069 98.91 39.0489 98.922 39.0899 98.936C42.5909 100.046 42.8269 103.94 42.5909 105.108C41.9179 108.446 38.2719 110.716 34.8659 109.204C34.5519 109.064 34.1959 108.855 33.9279 108.671L33.8939 108.701ZM34.7729 99.164C34.6589 96.692 33.7109 93.018 30.4979 90.962C30.5779 90.985 30.6569 91.009 30.7359 91.034C34.9009 92.355 36.6259 95.756 37.2229 98.65C36.3709 98.652 35.5299 98.828 34.7729 99.164Z" fill="#8CC1FF"/>
<path fill-rule="evenodd" clip-rule="evenodd" d="M46.4259 55.6351C45.1419 60.0198 40.2097 62.8597 35.5866 60.8058C31.418 58.9556 30.1613 54.1537 31.6539 50.37C33.1452 46.5863 37.7013 44.9435 41.6029 46.1815C43.3327 46.7292 44.5025 47.7536 45.2786 48.9296C46.2459 48.3099 47.5262 48.141 48.6835 48.5086C51.0428 49.2562 51.2017 51.8812 51.0428 52.6685C50.628 54.7261 48.5369 56.1815 46.4259 55.6351Z" fill="#BDDEFF"/>
<path fill-rule="evenodd" clip-rule="evenodd" d="M48.0972 48.3693C48.2951 48.4003 48.4908 48.4474 48.6844 48.5084C51.0431 49.2561 51.2025 51.8812 51.0431 52.6674C50.6281 54.7255 48.5368 56.1814 46.4252 55.6337H46.4263C45.1426 60.0195 40.2102 62.8585 35.5869 60.8058C34.3439 60.2538 33.3587 59.4397 32.6303 58.4674C33.0613 58.7936 33.5416 59.0792 34.0722 59.3146C36.2362 60.2762 39.7064 59.9254 41.7121 58.4674C43.5028 57.1655 44.1949 55.0379 44.3575 54.4325C44.9265 54.8154 45.6112 55.04 46.3482 55.04C48.3154 55.04 49.9135 53.443 49.9135 51.4758C49.9135 50.143 49.1808 48.9801 48.0972 48.3693ZM44.2344 49.976C43.7969 48.564 42.9497 47.1028 41.4243 46.1262C41.4853 46.1433 41.5441 46.1615 41.604 46.1807C43.3327 46.7284 44.5019 47.7542 45.2785 48.9288C44.8602 49.1962 44.5008 49.5482 44.2344 49.976Z" fill="#8CC1FF"/>
<path fill-rule="evenodd" clip-rule="evenodd" d="M101.346 91.4578C96.5642 89.9419 90.9795 91.954 89.1516 96.5927C87.3236 101.229 88.8647 107.113 93.9725 109.381C99.9177 112.023 106.282 108.059 107.456 102.232C107.867 100.194 107.456 93.3962 101.346 91.4578Z" fill="#BDDEFF"/>
<path fill-rule="evenodd" clip-rule="evenodd" d="M101.524 91.518C107.464 93.53 107.863 100.216 107.456 102.234C106.281 108.06 99.9179 112.023 93.9719 109.383C92.7309 108.832 91.7009 108.067 90.8789 107.16C91.3299 107.47 91.8219 107.746 92.3529 107.982C98.1239 110.545 104.301 106.699 105.441 101.043C105.789 99.3171 105.53 94.078 101.524 91.518Z" fill="#8CC1FF"/>
<path fill-rule="evenodd" clip-rule="evenodd" d="M83.948 95.8616C82.1147 95.2805 79.9737 96.0519 79.2729 97.8302C78.5721 99.6078 79.1629 101.863 81.1211 102.733C83.4003 103.746 85.8401 102.226 86.2904 99.992C86.448 99.211 86.2904 96.6048 83.948 95.8616Z" fill="#BDDEFF"/>
<path fill-rule="evenodd" clip-rule="evenodd" d="M84.0751 95.9042C86.2954 96.6994 86.4443 99.2241 86.2897 99.9915C85.8398 102.225 83.4002 103.744 81.1209 102.732C80.401 102.413 79.8668 101.907 79.5125 101.305C79.8201 101.656 80.2096 101.952 80.6841 102.162C81.2404 102.41 81.8196 102.461 82.1632 102.162C82.506 101.864 82.4814 101.037 82.7432 100.374C83.239 99.1161 84.9235 98.2023 85.0838 97.6648C85.2434 97.1281 84.8368 96.3616 84.0751 95.9042Z" fill="#8CC1FF"/>
<path fill-rule="evenodd" clip-rule="evenodd" d="M105.812 87.8558C103.597 87.1537 101.01 88.0857 100.163 90.2343C99.3167 92.3821 100.031 95.1072 102.396 96.1577C105.15 97.3815 108.098 95.5453 108.642 92.8463C108.832 91.9026 108.642 88.7537 105.812 87.8558Z" fill="#BDDEFF"/>
<path fill-rule="evenodd" clip-rule="evenodd" d="M105.286 87.7219C105.463 87.7578 105.638 87.8025 105.811 87.8575C108.642 88.7551 108.832 91.9034 108.642 92.8481C108.097 95.5464 105.15 97.3823 102.396 96.1592C102.31 96.1209 102.225 96.0802 102.142 96.0363C104.58 96.507 106.93 94.798 107.41 92.4164C107.584 91.558 107.442 88.8764 105.286 87.7219Z" fill="#8CC1FF"/>
<path fill-rule="evenodd" clip-rule="evenodd" d="M90.8543 97.4127C87.7517 96.4292 84.1286 97.7346 82.9426 100.744C81.7567 103.752 82.7565 107.569 86.0703 109.041C89.9274 110.755 94.0562 108.183 94.8183 104.403C95.0849 103.081 94.8183 98.6703 90.8543 97.4127Z" fill="#BDDEFF"/>
<path fill-rule="evenodd" clip-rule="evenodd" d="M92.5382 98.273C94.8922 100.052 95.0412 103.302 94.8182 104.404C94.0562 108.185 89.9282 110.755 86.0702 109.042C84.8722 108.511 83.9772 107.672 83.3782 106.677C83.8722 107.176 84.4722 107.598 85.1792 107.912C88.9812 109.6 93.0502 107.066 93.8022 103.34C93.9842 102.434 93.9132 100.055 92.5382 98.273Z" fill="#8CC1FF"/>
</svg>
