<svg width="128" height="128" viewBox="0 0 128 128" fill="none" xmlns="http://www.w3.org/2000/svg">
<path fill-rule="evenodd" clip-rule="evenodd" d="M91.665 83.5229C91.6267 89.1211 91.998 97.0485 93.005 102.561C93.2359 103.844 94.376 109.127 93.735 110.344C90.3946 116.793 81.9656 124.15 71.4478 123.995C61.1019 119.741 62.4454 103.872 65.8063 95.2933L91.665 83.5229Z" fill="#FAC7A2"/>
<path fill-rule="evenodd" clip-rule="evenodd" d="M76.1536 91.3821L91.6738 83.5344C91.6495 85.5407 91.6895 89.6027 91.8007 91.6648C91.3894 92.2287 91.0116 92.7227 90.6739 93.0983C88.6476 95.4382 86.2654 98.6349 83.8642 100.489C80.0251 103.437 73.1163 109.288 67.6191 110.843C66.3164 111.21 64.9466 111.544 63.5585 111.837C62.9964 107.145 63.7003 102.007 64.9348 97.8715L76.1536 91.3821Z" fill="#F59B67"/>
<path fill-rule="evenodd" clip-rule="evenodd" d="M33.7551 31.8962C31.5108 42.8816 33.8141 52.2724 33.5483 65.4136C33.4007 73.505 31.6583 85.3469 36.9148 92.3752C53.1567 114.08 83.3372 102.445 92.9642 82.0689C99.461 68.3371 105.721 43.9447 97.4824 30.3901C90.9561 19.6705 78.9371 13.5871 66.6819 12.7898C55.6374 12.0811 36.9149 16.4516 33.7551 31.8962Z" fill="#FAC7A2"/>
<path fill-rule="evenodd" clip-rule="evenodd" d="M33.059 50.478C32.687 44.121 32.452 38.278 33.755 31.895C36.908 16.437 55.638 12.091 66.693 12.801C78.928 13.587 90.959 19.676 97.476 30.402C98.91 32.763 87.015 43.256 82.565 45.041C74.639 48.22 59.892 52.355 48.998 52.355C42.61 52.355 37.357 51.775 33.059 50.478Z" fill="#F59B67"/>
<path fill-rule="evenodd" clip-rule="evenodd" d="M39.0704 9.48233C47.9887 10.2797 52.9796 3.98961 67.8336 3.98961C77.3425 3.98961 86.7923 8.41923 94.4999 19.0503C97.7187 20.1134 102.178 24.0705 104.747 28.6478C110.21 38.3929 110.269 50.7959 104.747 61.0135C101.853 66.3586 94.2339 71.2312 87.7962 68.3371C81.0632 61.8994 81.0633 51.3274 82.3921 43.6199C74.4779 46.8092 60.0964 49.8509 49.1996 49.8509C35.9402 49.8509 27.5536 47.3407 22.4743 41.1393C19.1668 37.0345 20.3776 33.2546 23.3306 34.0815C21.1749 30.5673 19.2554 27.437 19.1668 24.986C19.0192 21.1174 19.7869 15.7428 23.3306 12.7307C28.6757 8.18296 34.3751 9.0689 39.0704 9.48233Z" fill="#262626"/>
<path fill-rule="evenodd" clip-rule="evenodd" d="M108.854 44.024C108.969 49.823 107.607 55.706 104.74 61.002C101.844 66.353 94.227 71.216 87.784 68.332C86.557 67.153 85.555 65.838 84.743 64.427C86.802 60.714 87.772 55.92 92.233 54.321C93.019 54.039 93.843 53.848 94.676 53.781C96.709 53.616 98.511 54.299 100.141 55.491C101.323 56.355 102.215 58.209 103.952 57.5C104.211 57.394 104.459 57.251 104.681 57.082C107.452 54.973 108.186 50.836 108.554 47.614C108.678 46.532 108.798 45.463 108.842 44.373C108.847 44.257 108.851 44.14 108.854 44.024Z" fill="#1A1A1A"/>
<path fill-rule="evenodd" clip-rule="evenodd" d="M55.486 63.74C59.127 65.195 62.981 65.819 67.334 65.097C68.15 64.962 68.704 64.189 68.568 63.372C68.433 62.555 67.66 62.002 66.843 62.138C63.08 62.762 59.748 62.213 56.6 60.954C55.831 60.647 54.957 61.022 54.65 61.791C54.343 62.559 54.717 63.433 55.486 63.74ZM42.384 61.041C40.781 61.944 39.062 62.532 37.02 62.144C36.207 61.989 35.421 62.524 35.266 63.337C35.112 64.15 35.646 64.936 36.46 65.091C39.269 65.6261 41.651 64.898 43.857 63.654C44.579 63.247 44.834 62.332 44.427 61.611C44.021 60.89 43.105 60.634 42.384 61.041Z" fill="#F59B67"/>
<path fill-rule="evenodd" clip-rule="evenodd" d="M36.752 48.833L36.625 48.691C42.31 49.341 48.032 48.912 53.665 48.028C63.737 46.448 73.712 45.397 81.137 38.16C85.868 33.549 90.513 25.89 93.081 20.957C93.081 20.957 90.513 27.019 89.707 28.709C87.258 33.844 85.304 38.725 82.39 43.633C74.465 46.812 60.082 49.85 49.188 49.85C44.441 49.85 40.32 49.53 36.752 48.833Z" fill="#1A1A1A"/>
<path fill-rule="evenodd" clip-rule="evenodd" d="M49.0283 69.6532C47.6548 68.9659 45.5454 69.1019 44.4196 69.6943C42.1986 70.8655 40.9125 73.699 39.4452 75.6133C37.2916 78.4225 35.197 80.4012 34.4655 84.0305C33.7634 87.5197 34.6098 90.7475 36.073 93.9225C38.2614 98.6724 42.5896 103.772 48.0026 104.928C51.7543 105.728 57.9104 105.735 61.4112 103.835C67.0655 100.766 68.2704 95.1622 68.8175 88.8047C69.1042 85.481 68.3864 81.8232 65.7605 79.5557C62.6213 76.8456 58.3457 76.581 54.729 74.8501C52.0652 73.5746 50.7465 70.5123 49.0283 69.6532Z" fill="#BDDEFF"/>
<path fill-rule="evenodd" clip-rule="evenodd" d="M50.9 71.359C51.935 72.574 53.071 74.057 54.726 74.849C57.441 76.149 60.526 76.622 63.224 77.923C61.866 77.719 60.718 78.414 59.579 79.246C57.34 80.883 55.569 83.026 53.52 84.881C52.717 85.608 51.871 86.639 50.861 87.07C50.407 87.264 49.765 87.481 49.395 87.102C47.86 85.531 50.088 82.507 50.501 81.481C51.935 77.923 51.935 74.057 50.9 71.359ZM41.501 72.582C40.033 75.695 39.0749 78.972 38.3189 82.342C38.1119 83.267 38.0029 84.523 37.8319 85.705C37.8199 85.789 37.605 86.706 37.275 86.652C36.795 86.573 36.656 85.221 36.633 84.994C36.524 83.881 36.671 82.754 36.533 81.646C36.471 81.151 36.3359 80.589 35.9539 80.238C36.917 78.645 38.169 77.274 39.442 75.614C40.13 74.716 40.778 73.617 41.501 72.582Z" fill="#8CC1FF"/>
<path fill-rule="evenodd" clip-rule="evenodd" d="M39.727 89.173C40.094 88.909 40.503 88.714 40.948 88.6C43.591 87.924 46.506 90.381 47.453 94.084C48.401 97.788 47.025 101.343 44.383 102.02C43.883 102.148 43.374 102.163 42.869 102.08L42.887 102.153L39.319 101.531C37.67 101.234 36.104 99.561 35.518 97.269C34.941 95.015 35.482 92.831 36.74 91.759L39.173 89.652C39.346 89.474 39.53 89.314 39.726 89.173H39.727Z" fill="#8CC1FF"/>
<path fill-rule="evenodd" clip-rule="evenodd" d="M36.3574 94.4642C32.4284 96.6632 29.7135 98.7222 27.8216 101.483C25.0765 105.487 24.0332 111.688 24.0332 122.054C24.0332 123.434 25.1531 123.999 26.5333 123.999C27.9128 123.999 29.0334 123.434 29.0334 122.054C29.0334 113.185 29.5968 107.736 31.9454 104.31C33.4485 102.117 35.678 100.574 38.7995 98.8283C40.0035 98.1543 40.1581 96.8672 39.4842 95.6632C38.8103 94.4592 37.5614 93.7912 36.3574 94.4642Z" fill="#262626"/>
<path fill-rule="evenodd" clip-rule="evenodd" d="M67.4731 87.791C67.4761 90.093 67.279 92.061 66.878 93.689C81.855 88.541 94.55 83.64 95.7 79.335L93.08 78.185C87.607 81.943 78.5071 85.043 67.4731 87.791Z" fill="#262626"/>
<path fill-rule="evenodd" clip-rule="evenodd" d="M84.531 66.558C85.1608 64.1068 86.8673 60.8538 88.4535 58.7774C91.7841 54.4259 97.6791 54.7908 100.22 59.3877C104.064 66.2404 100.197 78.0751 95.6341 79.9674C93.6698 80.7822 91.6924 80.7092 89.8076 79.9905C87.8064 79.2362 86.2359 77.5875 85.1542 75.6389C84.0196 73.5692 83.895 69.1272 84.531 66.558Z" fill="#FAC7A2"/>
<path fill-rule="evenodd" clip-rule="evenodd" d="M95.4928 59.4388C94.5 59.4624 93.4246 59.6161 92.5146 60.0888C90.2929 61.2351 88.9456 64.1542 88.0829 66.3405C87.7875 67.0969 88.1656 67.9596 88.922 68.255C89.6783 68.5505 90.5411 68.1723 90.8365 67.416C91.1792 66.5414 91.5929 65.4896 92.1483 64.556C92.6092 63.7878 93.141 63.0906 93.8737 62.7124C94.3819 62.4406 95.0083 62.4051 95.5873 62.3933C96.4028 62.3697 97.0409 61.6842 97.0172 60.8688C96.9936 60.0533 96.3082 59.4152 95.4928 59.4388Z" fill="#F59B67"/>
</svg>
